/* XPM */
static char bumpMaterial_xpm[] = {
/* width height num_colors chars_per_pixel */
"    32    32      256            2",
/* colors */
"`` c #c1c1c1",
"`. c #bdbdbd",
"`# c #b1b1b1",
"`a c #a8a8a8",
"`b c #a4a4a4",
"`c c #9f9f9f",
"`d c #b6b6b6",
"`e c #c0c0c0",
"`f c #bfbfbf",
"`g c #acacac",
"`h c #a3a3a3",
"`i c #bababa",
"`j c #bcbcbc",
"`k c #bbbbbb",
"`l c #878787",
"`m c #555555",
"`n c #585858",
"`o c #898989",
"`p c #adadad",
"`q c #c2c2c2",
"`r c #d8d8d8",
"`s c #f8f8f8",
"`t c #e8e8e8",
"`u c #b4b4b4",
"`v c #979797",
"`w c #989898",
"`x c #727272",
"`y c #595959",
"`z c #8e8e8e",
"`A c #cccccc",
"`B c #b3b3b3",
"`C c #aeaeae",
"`D c #9b9b9b",
"`E c #939393",
"`F c #7d7d7d",
"`G c #c8c8c8",
"`H c #c9c9c9",
"`I c #d2d2d2",
"`J c #bebebe",
"`K c #9e9e9e",
"`L c #9c9c9c",
"`M c #a0a0a0",
"`N c #313131",
"`O c #696969",
"`P c #909090",
"`Q c #b5b5b5",
"`R c #a7a7a7",
"`S c #b8b8b8",
"`T c #8f8f8f",
"`U c #393939",
"`V c #666666",
"`W c #e3e3e3",
"`X c #f0f0f0",
"`Y c #e0e0e0",
"`Z c #dbdbdb",
"`0 c #d6d6d6",
"`1 c #dcdcdc",
"`2 c #505050",
"`3 c #000000",
"`4 c #9d9d9d",
"`5 c #676767",
"`6 c #a9a9a9",
"`7 c #e7e7e7",
"`8 c #e5e5e5",
".` c #999999",
".. c #d3d3d3",
".# c #c4c4c4",
".a c #525252",
".b c #5b5b5b",
".c c #d9d9d9",
".d c #d0d0d0",
".e c #afafaf",
".f c #828282",
".g c #ededed",
".h c #6f6f6f",
".i c #606060",
".j c #a2a2a2",
".k c #e9e9e9",
".l c #dadada",
".m c #f2f2f2",
".n c #f6f6f6",
".o c #8b8b8b",
".p c #919191",
".q c #5d5d5d",
".r c #6d6d6d",
".s c #f1f1f1",
".t c #b7b7b7",
".u c #3c3c3c",
".v c #a6a6a6",
".w c #c5c5c5",
".x c #cfcfcf",
".y c #838383",
".z c #ebebeb",
".A c #b9b9b9",
".B c #949494",
".C c #787878",
".D c #848484",
".E c #6c6c6c",
".F c #4b4b4b",
".G c #3f3f3f",
".H c #a1a1a1",
".I c #969696",
".J c #cacaca",
".K c #c6c6c6",
".L c #565656",
".M c #ececec",
".N c #7c7c7c",
".O c #858585",
".P c #616161",
".Q c #3a3a3a",
".R c #aaaaaa",
".S c #cecece",
".T c #f3f3f3",
".U c #707070",
".V c #161616",
".W c #202020",
".X c #a5a5a5",
".Y c #f5f5f5",
".Z c #929292",
".0 c #222222",
".1 c #464646",
".2 c #eeeeee",
".3 c #0d0d0d",
".4 c #080808",
".5 c #636363",
".6 c #b0b0b0",
".7 c #cbcbcb",
".8 c #8c8c8c",
"#` c #8d8d8d",
"#. c #d4d4d4",
"## c #d1d1d1",
"#a c #8a8a8a",
"#b c #232323",
"#c c #1c1c1c",
"#d c #0a0a0a",
"#e c #e2e2e2",
"#f c #c7c7c7",
"#g c #888888",
"#h c #535353",
"#i c #d5d5d5",
"#j c #3e3e3e",
"#k c #6b6b6b",
"#l c #ababab",
"#m c #dfdfdf",
"#n c #5a5a5a",
"#o c #4d4d4d",
"#p c #484848",
"#q c #686868",
"#r c #717171",
"#s c #9a9a9a",
"#t c #2c2c2c",
"#u c #1e1e1e",
"#v c #818181",
"#w c #b2b2b2",
"#x c #646464",
"#y c #4e4e4e",
"#z c #515151",
"#A c #747474",
"#B c #cdcdcd",
"#C c #2e2e2e",
"#D c #e6e6e6",
"#E c #353535",
"#F c #292929",
"#G c #323232",
"#H c #777777",
"#I c #dedede",
"#J c #6e6e6e",
"#K c #414141",
"#L c #2b2b2b",
"#M c #5f5f5f",
"#N c #7a7a7a",
"#O c #333333",
"#P c #181818",
"#Q c #141414",
"#R c #454545",
"#S c #373737",
"#T c #7b7b7b",
"#U c #4a4a4a",
"#V c #7f7f7f",
"#W c #1a1a1a",
"#X c #e1e1e1",
"#Y c #959595",
"#Z c #212121",
"#0 c #575757",
"#1 c #7e7e7e",
"#2 c #404040",
"#3 c #5e5e5e",
"#4 c #6a6a6a",
"#5 c #4c4c4c",
"#6 c #111111",
"#7 c #424242",
"#8 c #dddddd",
"a` c #363636",
"a. c #444444",
"a# c #494949",
"aa c #737373",
"ab c #2f2f2f",
"ac c #030303",
"ad c #656565",
"ae c #868686",
"af c #797979",
"ag c #5c5c5c",
"ah c #282828",
"ai c #262626",
"aj c #3b3b3b",
"ak c #808080",
"al c #757575",
"am c #252525",
"an c #0f0f0f",
"ao c #545454",
"ap c #474747",
"aq c #000000",
"ar c #000000",
"as c #000000",
"at c #000000",
"au c #000000",
"av c #000000",
"aw c #000000",
"ax c #000000",
"ay c #000000",
"az c #000000",
"aA c #000000",
"aB c #000000",
"aC c #000000",
"aD c #000000",
"aE c #000000",
"aF c #000000",
"aG c #000000",
"aH c #000000",
"aI c #000000",
"aJ c #000000",
"aK c #000000",
"aL c #000000",
"aM c #000000",
"aN c #000000",
"aO c #000000",
"aP c #000000",
"aQ c #000000",
"aR c #000000",
"aS c #000000",
"aT c #000000",
"aU c #000000",
"aV c #000000",
"aW c #000000",
"aX c #000000",
"aY c #000000",
"aZ c #000000",
"a0 c #000000",
"a1 c #000000",
"a2 c #000000",
"a3 c #000000",
"a4 c #000000",
"a5 c #000000",
"a6 c #000000",
"a7 c #000000",
"a8 c #000000",
/* pixels */
"````````````````````````````````````````````````````````````````",
"`````````````````````````.`#`a`b`c`b`d`e````````````````````````",
"```````````````````f`g`h`#`i`j`k`g`l`m`n`o`p````````````````````",
"`````````````````p`p`q`r`s`t`u`v`w`w`x`y`z`A`B`C````````````````",
"`````````````k`D`E`F`D`G`H`I`J`b`K`L`M`z`N`O`e`i`P`e````````````",
"```````````Q`R`g`Q`S`p`T`U`V`W`X`Y`Z`0`1`2`3`P`4`F`5`J``````````",
"`````````S`6`f`7`8`p.`...#.a.b.c.d`p.e`J`v`3.f.g.h.i`m`e````````",
"````````.j`j.k.l`6.`.m.n.n`M.i`8`1`v.o.p`6.q.r.s.t.u.a`V````````",
"``````.v`S.w.x`S.y`t.n.z.``C```h`0.A.B.o.C.D`M`Y`#.E.F.G`a``````",
"`````j`d`T.H`r`q`E`a`#.I.e.J.K.L`E.M`0.d`h`3.N`K`h.O.P.Q.Q``````",
"````.R.e.o`k.k`e`S.A.e.S.w.K.T.e.U`8`0`1`v`3.S`v.G`R.C.V.W.X````",
"```f.t.e`h.c`u.I`j.e.x.Y`Q.#.T.S.N`j.Z`S.0.1.2`..3.P`K.4`3.5````",
"``.6.#`4`Q.7.8...Y`G`c.S`d.v.#.N`c.A.y#``y#.##.B#a#b.C#c#d.L`f``",
"``.R.e`w.c`f`T#e.Y#f`M`G.g..`l.p..`0#g#h`H#i`D#g`L.i#j`N#k`x#l``",
"```R.X.e.c`d`z.T.T`h.I`p.S#m`a..`A`B#n.R`T#o`#`K`T#p`3#q`Q#r`E``",
"``.v.H`6#..x`x.C.b.5#f`I#s`g`B`e`j.j`k`0.Z`3`o`u#t`3#u`T`..G#v``",
"``.X`K`M.d.c`F`U.j..#i`e`S`6`p`j`c#w`Z`i`S.B#t.E.y`m#x#y#z`3`l``",
"```M`b`v#a#A.7#B`Y.S`e`i.j`T`k.d`Q#C#a#D`R`u.1#E`A.N.u`3`3#F`E``",
"```v`j.i#G#H#D#q`L#I`Z.j#J#e.l`M`e.E#A.j#k#v.1#K`a#L`3`3#n`V.j``",
"```L#B#M#F`u`7`v`3`e.7#L`L##.v#N`L.3.o.v#O#P#Q`y#R`3.u#S#T#U`S``",
"```S.Z.8#k`j.e`8.O#Q.0#J#I.#`b#V#W`3#X..#`#Y`V.b#T#a.p#y.P#Z````",
"````#R#Y`P`K`6.e`8`M#0`T.a#z.W#L`V##`8.C#1#a.3`v.#.y.G#2`U.N````",
"`````M#3.8#z.j`K`g``.6.R#4#5`O`K`u`u.O#A.f.V#t`e.1`3`3.a#6`j````",
"``````#7.6`T#C`v`6#L.Q`q#m#8.k`j#Ma`#S`F.1`3`d.f`3`3a.a#.E``````",
"``````#w#M.#.Z.0aaab.1`T.f#a.D#qa.#4#S#dac`b`b`3`3#W.L.V`e``````",
"````````.Dad.A`6a#`3.Wae#v`Faf#1ag#Lah#6.U`o`3`3aca.ai`C````````",
"``````````.C#K`o`Q`T#3ag`U#L#b#Q.V#2.o#Taj`3`3`3ai.W`w``````````",
"`````````````o.0#2akal#5`5af#T.y.p.j`l#2am#Q.0`U#W.H````````````",
"```````````````p#z.3`3`3#h#v#v#r.a`3`3`3am#R#5`5`i``````````````",
"`````````````````e`c`y#tanac`3`3`3.Va`a..F`x`a``````````````````",
"```````````````````````u#Y.Uaoap#y#q.O`c.A``````````````````````",
"````````````````````````````````````````````````````````````````"
};
