/* XPM */
static char domeHelp_xpm[] = {
/* width height num_colors chars_per_pixel */
"    32    32      256            2",
/* colors */
"`` c #c1c1c1",
"`. c #c5c4c3",
"`# c #c5c5c4",
"`a c #c4c4c3",
"`b c #c4c1b7",
"`c c #e4c355",
"`d c #f0bf20",
"`e c #997d12",
"`f c #826b0d",
"`g c #856d0d",
"`h c #856e0d",
"`i c #856e0e",
"`j c #866e0e",
"`k c #887115",
"`l c #9a8025",
"`m c #c3c2be",
"`n c #e4c14d",
"`o c #e5b310",
"`p c #c9ad4c",
"`q c #a69553",
"`r c #9f9051",
"`s c #a09051",
"`t c #a08f4f",
"`u c #9f8f4e",
"`v c #9e8e4c",
"`w c #9d8d4b",
"`x c #9d8c4a",
"`y c #9b8a48",
"`z c #836e1a",
"`A c #8e7311",
"`B c #c3c2bd",
"`C c #c6c5c0",
"`D c #f0b809",
"`E c #ccb873",
"`F c #fbfeff",
"`G c #ffffff",
"`H c #aea270",
"`I c #8a6f14",
"`J c #cecbbf",
"`K c #e4ae00",
"`L c #ded6bb",
"`M c #c2ba96",
"`N c #8a6e14",
"`O c #cfccbf",
"`P c #e9b100",
"`Q c #d6cca7",
"`R c #dad7c7",
"`S c #896f15",
"`T c #c2c1bf",
"`U c #cfcbbf",
"`V c #f9bf04",
"`W c #d2ae33",
"`X c #d6c99c",
"`Y c #d6caa0",
"`Z c #d5ca9f",
"`0 c #d6ca9f",
"`1 c #d5caa0",
"`2 c #c4b786",
"`3 c #967c13",
"`4 c #c6c3b8",
"`5 c #f9c109",
"`6 c #f4bc0c",
"`7 c #d9a702",
"`8 c #ebb504",
".` c #eab404",
".. c #eab304",
".# c #ebb507",
".a c #f1bb07",
".b c #e6cf83",
".c c #fec409",
".d c #cfa20f",
".e c #7d6409",
".f c #fec612",
".g c #fbc412",
".h c #fbc312",
".i c #fac312",
".j c #fec512",
".k c #ffc612",
".l c #fdc512",
".m c #f9c006",
".n c #e9cf7d",
".o c #ffc509",
".p c #cca00f",
".q c #765e09",
".r c #fcc412",
".s c #f9c212",
".t c #f8c112",
".u c #ecb811",
".v c #e4b211",
".w c #f0bb11",
".x c #ffc813",
".y c #f9c112",
".z c #f8be06",
".A c #e8cf7f",
".B c #ffc409",
".C c #775f09",
".D c #fdc513",
".E c #deaf10",
".F c #554506",
".G c #4b3d06",
".H c #574606",
".I c #a17f0c",
".J c #f9c312",
".K c #cda00f",
".L c #fcc512",
".M c #c69c0f",
".N c #372e04",
".O c #90720a",
".P c #b4900d",
".Q c #8b6f0a",
".R c #423605",
".S c #b28c0d",
".T c #ffc913",
".U c #f8bf06",
".V c #e8d07f",
".W c #fdc409",
".X c #fac412",
".Y c #f7c212",
".Z c #fbc413",
".0 c #dead10",
".1 c #92740b",
".2 c #eab711",
".3 c #ffcf14",
".4 c #ffcc13",
".5 c #655108",
".6 c #81670a",
".7 c #f7c112",
".8 c #f6be06",
"#` c #f8bf08",
"#. c #c89d0e",
"## c #f5c011",
"#a c #f2be11",
"#b c #f2bc11",
"#c c #f5bf11",
"#d c #b38d0d",
"#e c #463a05",
"#f c #a4810c",
"#g c #f2bd11",
"#h c #f1ba05",
"#i c #e5cd7e",
"#j c #f0ba08",
"#k c #c3990e",
"#l c #755d09",
"#m c #eebb11",
"#n c #ebb911",
"#o c #ebb811",
"#p c #f3be12",
"#q c #896d0a",
"#r c #e9b611",
"#s c #edb911",
"#t c #eab405",
"#u c #e2ca7e",
"#v c #cdcabf",
"#w c #e8b307",
"#x c #bd950e",
"#y c #735c09",
"#z c #e7b411",
"#A c #e3b211",
"#B c #e3b111",
"#C c #ecb912",
"#D c #9d7c0b",
"#E c #4d3f06",
"#F c #c49a0e",
"#G c #e6b311",
"#H c #e2ad05",
"#I c #dfc87e",
"#J c #deac05",
"#K c #b68f0c",
"#L c #715a08",
"#M c #ddae0f",
"#N c #dbac0f",
"#O c #daab0f",
"#P c #deae10",
"#Q c #be960e",
"#R c #9f7e0b",
"#S c #dcac10",
"#T c #d8a703",
"#U c #dac57e",
"#V c #ccc9bf",
"#W c #d4a405",
"#X c #af8a0c",
"#Y c #6f5908",
"#Z c #d3a70f",
"#0 c #d1a50f",
"#1 c #d0a40f",
"#2 c #d3a60f",
"#3 c #c69c0e",
"#4 c #614e07",
"#5 c #4c3e05",
"#6 c #8d700a",
"#7 c #d7a90f",
"#8 c #d1a40f",
"a` c #ce9f03",
"a. c #d6c27d",
"a# c #c99c04",
"aa c #a8840c",
"ab c #6c5708",
"ac c #c99e0e",
"ad c #c79d0e",
"ae c #bb940e",
"af c #5c4a07",
"ag c #483b05",
"ah c #856a0a",
"ai c #cca10f",
"aj c #c79c0e",
"ak c #c39702",
"al c #d1be7c",
"am c #cbc8bf",
"an c #bd9304",
"ao c #a07e0c",
"ap c #6a5508",
"aq c #bc950e",
"ar c #a6830c",
"as c #bb930e",
"at c #b88f01",
"au c #cdba7c",
"av c #cac8bf",
"aw c #b38b03",
"ax c #98790b",
"ay c #675308",
"az c #b58f0d",
"aA c #b38e0d",
"aB c #b28d0d",
"aC c #b48e0d",
"aD c #b6900d",
"aE c #ae8700",
"aF c #c8b77c",
"aG c #c9c7bf",
"aH c #a98300",
"aI c #927308",
"aJ c #645005",
"aK c #ab870a",
"aL c #a9860a",
"aM c #a9850a",
"aN c #a47f00",
"aO c #c4b379",
"aP c #c3c2c1",
"aQ c #aa9139",
"aR c #a28317",
"aS c #977b14",
"aT c #a68615",
"aU c #a58515",
"aV c #a17f0a",
"aW c #c2b483",
"aX c #c6c6c4",
"aY c #c7c6c4",
"aZ c #000000",
"a0 c #000000",
"a1 c #000000",
"a2 c #000000",
"a3 c #000000",
"a4 c #000000",
"a5 c #000000",
"a6 c #000000",
"a7 c #000000",
"a8 c #000000",
/* pixels */
"````````````````````````````````````````````````````````````````",
"````````````````````````````````````````````````````````````````",
"````````````````````````````````````````````````````````````````",
"````````````````````````````````````````````````````````````````",
"`````````````````````.`#`.`.`.`.`.`.`.`.`.`.`.`.`a``````````````",
"`````````````````b`c`d`e`f`g`h`i`i`j`j`j`j`j`j`k`l`m````````````",
"`````````````````n`o`p`q`r`s`t`u`u`v`v`w`x`x`y`z`A`B````````````",
"```````````````C`D`E`F`G`G`G`G`G`G`G`G`G`G`G`G`H`I`B````````````",
"```````````````J`K`L`G`G`G`G`G`G`G`G`G`G`G`G`G`M`N`B````````````",
"```````````````O`P`Q`G`G`G`G`G`G`G`G`G`G`G`G`G`R`S`T````````````",
"```````````````U`V`W`X`Y`Z`Z`Z`Z`Z`Z`Z`Z`Z`0`1`2`3`4````````````",
"```````````````U`5`6`7`8.`.`.`.`.`.`.`.`.`.`...#.a.b````````````",
"```````````````U.c.d.e.f.g.h.i.h.j.k.l.h.i.h.h.h.m.n````````````",
"```````````````U.o.p.q.r.s.t.g.r.u.v.w.x.i.t.y.y.z.A````````````",
"```````````````U.B.p.C.r.s.D.E.q.F.G.H.I.J.i.y.y.z.A````````````",
"```````````````U.o.K.C.L.J.x.M.N.O.P.Q.R.S.T.s.s.U.V````````````",
"```````````````U.W.p.C.X.Y.Z.0.1.2.3.4.5.6.x.7.7.8.A````````````",
"```````````````U#`#..q###a#b#c.l#c.2#d#e#f.g#g#g#h#i````````````",
"```````````````J#j#k#l#m#n#o#o#p#d.F.G#q#r#s#o#o#t#u````````````",
"``````````````#v#w#x#y#z#A#B#B#C#D#E#F#o#G#B#B#B#H#I````````````",
"``````````````#v#J#K#L#M#N#O#O#P#Q#R#O#S#O#O#O#O#T#U````````````",
"``````````````#V#W#X#Y#Z#0#1#2#3#4#5#6#7#8#1#1#1a`a.````````````",
"``````````````#Va#aaabacad#3acaeafagahaiaj#3#3#3akal````````````",
"``````````````amanaoap#Qaqaeae#Q#darasaqaeaeaeaeatau````````````",
"``````````````avawaxayazaAaBaBaBaCaD#daBaBaBaBaBaEaF````````````",
"``````````````aGaHaIaJaKaLaMaMaMaMaMaMaMaMaMaMaMaNaO````````````",
"``````````````aPaQaRaSaTaUaUaUaUaUaUaUaUaUaUaUaUaVaW````````````",
"``````````````````aXaYaYaYaYaYaYaYaYaYaYaYaYaYaYaY`a````````````",
"````````````````````````````````````````````````````````````````",
"````````````````````````````````````````````````````````````````",
"````````````````````````````````````````````````````````````````",
"````````````````````````````````````````````````````````````````"
};
