/* XPM */
static char domeGrid_xpm[] = {
/* width height num_colors chars_per_pixel */
"    32    32      256            2",
/* colors */
"`` c #c1c1c1",
"`. c #bfbfbf",
"`# c #adacaa",
"`a c #9c957f",
"`b c #a39152",
"`c c #b29435",
"`d c #b69426",
"`e c #c8a224",
"`f c #cca527",
"`g c #b89627",
"`h c #a4a29a",
"`i c #a49152",
"`j c #b6931f",
"`k c #886b0c",
"`l c #463705",
"`m c #221a02",
"`n c #120e01",
"`o c #94740b",
"`p c #b18b0d",
"`q c #151001",
"`r c #453605",
"`s c #a3a19a",
"`t c #b2b1b0",
"`u c #a0905d",
"`v c #dcaf1d",
"`w c #6f5708",
"`x c #110d01",
"`y c #010100",
"`z c #000000",
"`A c #8a6c0a",
"`B c #a9840c",
"`C c #020200",
"`D c #644e07",
"`E c #daae1d",
"`F c #b2b2b0",
"`G c #a5a29c",
"`H c #b19436",
"`I c #80640a",
"`J c #d0a310",
"`K c #92720b",
"`L c #030200",
"`M c #070500",
"`N c #130f01",
"`O c #99780b",
"`P c #b28b0d",
"`Q c #161101",
"`R c #060500",
"`S c #755c09",
"`T c #deae10",
"`U c #8c6e0b",
"`V c #b29436",
"`W c #a19e94",
"`X c #b39327",
"`Y c #473805",
"`Z c #554307",
"`0 c #dfae10",
"`1 c #3d3005",
"`2 c #362a04",
"`3 c #795f09",
"`4 c #b08a0d",
"`5 c #c0960e",
"`6 c #e0af10",
"`7 c #bf960e",
"`8 c #2a2103",
".` c #d7a810",
".. c #735a09",
".# c #040300",
".a c #a4a29b",
".b c #352a04",
".c c #0a0800",
".d c #b78f0e",
".e c #dcac10",
".f c #bd940e",
".g c #7f6309",
".h c #3f3105",
".i c #1b1502",
".j c #8d6e0a",
".k c #91720b",
".l c #7e6309",
".m c #bc930e",
".n c #d5a710",
".o c #ca9e0e",
".p c #342903",
".q c #b39328",
".r c #050400",
".s c #6c5407",
".t c #c89c0e",
".u c #4b3b05",
".v c #6e5608",
".w c #8b6d0a",
".x c #3a2d04",
".y c #cda00f",
".z c #705808",
".A c #281f03",
".B c #785e09",
".C c #0b0800",
".D c #806409",
".E c #98770b",
".F c #9d7b0b",
".G c #93730b",
".H c #2b2203",
".I c #b38c0d",
".J c #141001",
".K c #c2980e",
".L c #a07d0c",
".M c #be950e",
".N c #d4a610",
".O c #9f7d0c",
".P c #c99d0e",
".Q c #211a02",
".R c #090700",
".S c #564307",
".T c #1f1802",
".U c #e6b411",
".V c #614c07",
".W c #201902",
".X c #725909",
".Y c #90710a",
".Z c #5a4707",
".0 c #e2b110",
".1 c #c1970e",
".2 c #a39052",
".3 c #d6a810",
".4 c #b8900e",
".5 c #a27f0c",
".6 c #6b5407",
".7 c #574407",
".8 c #7a6009",
"#` c #3c2f04",
"#. c #b59320",
"## c #aeadab",
"#a c #392d04",
"#b c #9e7c0c",
"#c c #302503",
"#d c #332803",
"#e c #86690a",
"#f c #292003",
"#g c #413305",
"#h c #e1b010",
"#i c #ac860c",
"#j c #ddad10",
"#k c #cfa210",
"#l c #dbab10",
"#m c #b58e0d",
"#n c #a3800c",
"#o c #a39053",
"#p c #584507",
"#q c #c69b0e",
"#r c #6d5508",
"#s c #231b02",
"#t c #b29535",
"#u c #b79526",
"#v c #c3990e",
"#w c #ecb912",
"#x c #f1bd12",
"#y c #c4990e",
"#z c #cda626",
"#A c #a8830c",
"#B c #b48d0d",
"#C c #f7c112",
"#D c #a17e0c",
"#E c #95750b",
"#F c #cca526",
"#G c #c59a0e",
"#H c #daab10",
"#I c #4c3b05",
"#J c #7b6009",
"#K c #bb920e",
"#L c #765c09",
"#M c #b5921f",
"#N c #594607",
"#O c #ddaf1d",
"#P c #1c1602",
"#Q c #8b6d0b",
"#R c #a1915d",
"#S c #af890d",
"#T c #876b0b",
"#U c #000000",
"#V c #000000",
"#W c #000000",
"#X c #000000",
"#Y c #000000",
"#Z c #000000",
"#0 c #000000",
"#1 c #000000",
"#2 c #000000",
"#3 c #000000",
"#4 c #000000",
"#5 c #000000",
"#6 c #000000",
"#7 c #000000",
"#8 c #000000",
"a` c #000000",
"a. c #000000",
"a# c #000000",
"aa c #000000",
"ab c #000000",
"ac c #000000",
"ad c #000000",
"ae c #000000",
"af c #000000",
"ag c #000000",
"ah c #000000",
"ai c #000000",
"aj c #000000",
"ak c #000000",
"al c #000000",
"am c #000000",
"an c #000000",
"ao c #000000",
"ap c #000000",
"aq c #000000",
"ar c #000000",
"as c #000000",
"at c #000000",
"au c #000000",
"av c #000000",
"aw c #000000",
"ax c #000000",
"ay c #000000",
"az c #000000",
"aA c #000000",
"aB c #000000",
"aC c #000000",
"aD c #000000",
"aE c #000000",
"aF c #000000",
"aG c #000000",
"aH c #000000",
"aI c #000000",
"aJ c #000000",
"aK c #000000",
"aL c #000000",
"aM c #000000",
"aN c #000000",
"aO c #000000",
"aP c #000000",
"aQ c #000000",
"aR c #000000",
"aS c #000000",
"aT c #000000",
"aU c #000000",
"aV c #000000",
"aW c #000000",
"aX c #000000",
"aY c #000000",
"aZ c #000000",
"a0 c #000000",
"a1 c #000000",
"a2 c #000000",
"a3 c #000000",
"a4 c #000000",
"a5 c #000000",
"a6 c #000000",
"a7 c #000000",
"a8 c #000000",
/* pixels */
"```````````````````.`#`a`b`c`d`e`f`g`c`b`a`#`.``````````````````",
"```````````````.`h`i`j`k`l`m`n`o`p`q`m`r`k`j`b`s`.``````````````",
"`````````````t`u`v`w`x`y`z`z`y`A`B`C`z`z`C`x`D`E`u`F````````````",
"```````````G`H`I`J`K`L`z`z`M`N`O`P`Q`R`z`z`y`S`T`U`V`G``````````",
"`````````W`X`Y`C`Z`0`1`2`3`4`5`0`6`7`4`3`2`8.`...#`Y`X`W````````",
"``````.a`X.b`z`z.c.d.e.f.g.h.i.j.k.i.h.l.m.n.o`N`z`z.p.q.a``````",
"`````t`c`Y`z`z.r.s.t`6.u`z`z`z.v.w`z`z`z.x`0.y.s.r`z`z`Y`V`t````",
"```.`u`U`L`z.r.z`P.A.B`P.C`L`x.D.E`x`L.r.F.G.H.I`w.r`z`C`I`u`.``",
"```s`E`T..`N.s.I.i`z.J.K.w.L.M.N.e.M.O.l.P.Q`z.i.I.s.R.S`J`v`h``",
"`.`i`D`S.`.o.y.H`z`z.T.m.U.V.W.X.Y.W.Z.0.1.T`z`z.A.t.d`0.k`w.2`.",
"`#`j`x`y`8.3`0.G.Q.T.4`S.5.v`z.6.w`z.7.I.8.4.T`q`3`0.e#`.#`x#.##",
"`a`k`y`z`2.m#a#b.P.1.8.r#c.K#d#e.L#f.m#g.#`S.m.K`P.u.f`2`z`y`k`a",
"`b`l`z`z.8.l`z`R.l#h.I#g.C#i#j#k.e#l#m.C#c#n.U`A.c`z.l`3`z`z`l#o",
"`c`m`z`R`4.h`z`L.L.Z#p.m#m.K#q.5.I.o.K#i.K#r.V.O`L`z.h`4`R`z#s#t",
"#u`q`L`q`5.i`z`x.M.W`y.A#l.o#v#w#x#y#q#j#d`y.T.M`x`z.i`5`n`z`x#u",
"#z`p#A`P#h.k`A`O.e.Y.w.O#l#B#x#C#C#w#D`J#e.6.X.n.D#r.j`T`O.w#E`e",
"`e`o.w.E`0.j.v.D.n.X.6#e`J.5#w#C#C#x.I#l.O.w.Y#j.E`A.k#h`P`B`p#F",
"`d`n`z`N`7.i`z`x.M.W`z#d#j#G#y#x#w#v.P#l#f`y.W.M`x`z.i`5`Q`L`q`g",
"#t`m`z`M`4.h`z`L.O.V.v.K#i.K.P#B.5#q.K#m.m#p.Z.O`L`z.h`4`R`z#s#t",
"`b`r`z`z`3.l`z.c`A.U#n#c.c#m#H#l`J#j#i.c#g.I.0.l`R`z.l`3`z`z`r#o",
"`a`k`y`z`2.f#I`P.1.m`S.r#g.m#f.O#e.p.K#c.r#J.1.o#b.x#K`2`z`y`k`a",
"`#`j`x`L#`.e`0`3`q.T.4#J.I.7`y`A.s`y#r.5#L.4.T.Q.G`6.n`8`y`x#M`#",
"`.`i`w.k`0.d.P.A`z`z.W.1#h#N.T.Y.X.W.V.U.m.T`z`z.H.y.o.``S`D`b`.",
"```h#O`J.S.R.s`P.i`z.W.o.l.O.M.e.N.M.O.w.1`q`z#P.I.s`N..`T`E`s``",
"```.`u`I`C`z.r.z`P.H.G#b.r`L`x.E.D`x`L.C`P`3.A.I.z.r`z`L#Q#R`.``",
"`````t`V`Y`z`z.r.6.y`0.x`z`z`y`A.v`z`z`z.u`6.P.s.r`z`z`Y`H`t````",
"```````G.q.b`z`z`N.o.n#K.l.h.i.k.j.i.h.l.f.e.d.c`z`z.p.q.a``````",
"`````````W.q`Y`L...``8`2`3`4`7#h`0`7#S.8`2`1`0.S`L`Y.q`W````````",
"```````````G`c`U`T`S`y`z`z`R`Q`P`O`N`R`z`z.#`K`J`I`c`G``````````",
"`````````````t#R`E`D`x`C`z`z`L#A.w`z`z`z`y`x`w`v`u`t````````````",
"```````````````.`h`b`j`k`l`m`q`4#E`n#s`l#T`j`b`h`.``````````````",
"```````````````````.`#`a.2`c#u#z`e#u`c.2`a##`.``````````````````"
};
