/* XPM */
static char * image_name[]={
"32 32 33 2",
"  	c #C2C2C2",
". 	c #8C8C8C",
"X 	c #000000",
"o 	c #6B3939",
"O 	c #F2DE0D",
"+ 	c #CDCD1D",
"@ 	c #5F929E",
"# 	c #20B2AA",
"$ 	c #DAAA00",
"% 	c #F5280A",
"& 	c #D11619",
"* 	c #FF4500",
"= 	c #509F69",
"- 	c #1E90FF",
"; 	c #D2691E",
": 	c #55562F",
"> 	c #171717",
", 	c #B8860B",
"< 	c #141414",
"1 	c #B0B0B0",
"2 	c #B3B3B3",
"3 	c #333333",
"4 	c #030303",
"5 	c #858585",
"6 	c #8A8A8A",
"7 	c #000001",
"8 	c #5E5E5E",
"9 	c #4A4A4A",
"0 	c #4D4D4D",
"q 	c #595959",
"w 	c #BFBFBF",
"e 	c #A3A3A3",
"r 	c #BDBDBD",
"                                                                ",
"                                                                ",
"                                                                ",
"                                                                ",
"                                                                ",
"                                                                ",
"                                                                ",
"                                                                ",
"                                                                ",
". . . . . . . . . . . . . . . . . . . . . . . . . . . . . . . . ",
"X o o o o o o o o o o o o o o o o o o o o o o o o o o o o o o X ",
"X O O O O O O O O O O O O O O O O O O O O O O O O O O O O O O X ",
"X O O O O O O O O O O O O O O O O O O O O O O O O O O O O O O X ",
"X O O + @ # # # # # # @ $ O O O O O O $ % & % % % % & * $ O O X ",
"X O O = - - - - - - - - @ O O O O O O % & & & & & & & & ; O O X ",
"X O O @ - - - - - - - - # O O O O O O % & & & & & & & & * O O X ",
"X O O @ - - - - - - - - # O O O O O O % & & & & & & & & * O O X ",
"X O O = - - - - - - - - @ O O $ $ O O % & & & & & & & & ; O O X ",
"X O O + @ # # # # # # @ $ O : > > : O $ % & % % % % & * $ O O X ",
"X O O O O O O O O O O O O , < 1 2 > , O O O O O O O O O O O O X ",
"3 4 $ O O O O O O O O O O o 5     6 o O O O O O O O O O O $ 7 3 ",
"  8 4 4 4 4 4 4 4 4 4 4 4 9         0 4 4 4 4 4 4 4 4 4 4 4 q   ",
"  w e e e e e e e e e e e r         r e e e e e e e e e e e w   ",
"                                                                ",
"                                                                ",
"                                                                ",
"                                                                ",
"                                                                ",
"                                                                ",
"                                                                ",
"                                                                ",
"                                                                "
};
