/* XPM */
static char domeInfo_xpm[] = {
/* width height num_colors chars_per_pixel */
"    32    32      256            2",
/* colors */
"`` c #c1c1c1",
"`. c #c2c1bf",
"`# c #dac16d",
"`a c #f1c020",
"`b c #f5c012",
"`c c #d9c06c",
"`d c #f2be11",
"`e c #edbb1b",
"`f c #f0bb11",
"`g c #ecbb1f",
"`h c #c5c0b0",
"`i c #edba11",
"`j c #7a6109",
"`k c #504106",
"`l c #8f710a",
"`m c #c6c0ac",
"`n c #e9b710",
"`o c #6f5908",
"`p c #c5bfac",
"`q c #e5b410",
"`r c #645007",
"`s c #786009",
"`t c #e1b110",
"`u c #cea20f",
"`v c #b18c0d",
"`w c #d7aa0f",
"`x c #c4bfac",
"`y c #ddae10",
"`z c #c4beac",
"`A c #d8ab0f",
"`B c #8f720a",
"`C c #997a0b",
"`D c #c3beac",
"`E c #d4a70f",
"`F c #624f07",
"`G c #6a5508",
"`H c #c3bdac",
"`I c #cfa30e",
"`J c #be960d",
"`K c #94750a",
"`L c #584807",
"`M c #695508",
"`N c #c2bdac",
"`O c #cba00e",
"`P c #695408",
"`Q c #c69c0e",
"`R c #685308",
"`S c #c1bcac",
"`T c #c0980e",
"`U c #665208",
"`V c #c0bcac",
"`W c #bc940d",
"`X c #665207",
"`Y c #c0bbac",
"`Z c #b7910d",
"`0 c #655107",
"`1 c #bfbbac",
"`2 c #b28d0c",
"`3 c #a5830b",
"`4 c #574606",
"`5 c #5d4b07",
"`6 c #ad8a0c",
"`7 c #7b6309",
"`8 c #bfbbae",
".` c #aa870c",
".. c #685408",
".# c #7a6209",
".a c #bfbcb0",
".b c #c1c0bf",
".c c #a78715",
".d c #a6840c",
".e c #9b7b0b",
".f c #a8891b",
".g c #b1a063",
".h c #a2820b",
".i c #b1a269",
".j c #a28518",
".k c #a0800b",
".l c #000000",
".m c #000000",
".n c #000000",
".o c #000000",
".p c #000000",
".q c #000000",
".r c #000000",
".s c #000000",
".t c #000000",
".u c #000000",
".v c #000000",
".w c #000000",
".x c #000000",
".y c #000000",
".z c #000000",
".A c #000000",
".B c #000000",
".C c #000000",
".D c #000000",
".E c #000000",
".F c #000000",
".G c #000000",
".H c #000000",
".I c #000000",
".J c #000000",
".K c #000000",
".L c #000000",
".M c #000000",
".N c #000000",
".O c #000000",
".P c #000000",
".Q c #000000",
".R c #000000",
".S c #000000",
".T c #000000",
".U c #000000",
".V c #000000",
".W c #000000",
".X c #000000",
".Y c #000000",
".Z c #000000",
".0 c #000000",
".1 c #000000",
".2 c #000000",
".3 c #000000",
".4 c #000000",
".5 c #000000",
".6 c #000000",
".7 c #000000",
".8 c #000000",
"#` c #000000",
"#. c #000000",
"## c #000000",
"#a c #000000",
"#b c #000000",
"#c c #000000",
"#d c #000000",
"#e c #000000",
"#f c #000000",
"#g c #000000",
"#h c #000000",
"#i c #000000",
"#j c #000000",
"#k c #000000",
"#l c #000000",
"#m c #000000",
"#n c #000000",
"#o c #000000",
"#p c #000000",
"#q c #000000",
"#r c #000000",
"#s c #000000",
"#t c #000000",
"#u c #000000",
"#v c #000000",
"#w c #000000",
"#x c #000000",
"#y c #000000",
"#z c #000000",
"#A c #000000",
"#B c #000000",
"#C c #000000",
"#D c #000000",
"#E c #000000",
"#F c #000000",
"#G c #000000",
"#H c #000000",
"#I c #000000",
"#J c #000000",
"#K c #000000",
"#L c #000000",
"#M c #000000",
"#N c #000000",
"#O c #000000",
"#P c #000000",
"#Q c #000000",
"#R c #000000",
"#S c #000000",
"#T c #000000",
"#U c #000000",
"#V c #000000",
"#W c #000000",
"#X c #000000",
"#Y c #000000",
"#Z c #000000",
"#0 c #000000",
"#1 c #000000",
"#2 c #000000",
"#3 c #000000",
"#4 c #000000",
"#5 c #000000",
"#6 c #000000",
"#7 c #000000",
"#8 c #000000",
"a` c #000000",
"a. c #000000",
"a# c #000000",
"aa c #000000",
"ab c #000000",
"ac c #000000",
"ad c #000000",
"ae c #000000",
"af c #000000",
"ag c #000000",
"ah c #000000",
"ai c #000000",
"aj c #000000",
"ak c #000000",
"al c #000000",
"am c #000000",
"an c #000000",
"ao c #000000",
"ap c #000000",
"aq c #000000",
"ar c #000000",
"as c #000000",
"at c #000000",
"au c #000000",
"av c #000000",
"aw c #000000",
"ax c #000000",
"ay c #000000",
"az c #000000",
"aA c #000000",
"aB c #000000",
"aC c #000000",
"aD c #000000",
"aE c #000000",
"aF c #000000",
"aG c #000000",
"aH c #000000",
"aI c #000000",
"aJ c #000000",
"aK c #000000",
"aL c #000000",
"aM c #000000",
"aN c #000000",
"aO c #000000",
"aP c #000000",
"aQ c #000000",
"aR c #000000",
"aS c #000000",
"aT c #000000",
"aU c #000000",
"aV c #000000",
"aW c #000000",
"aX c #000000",
"aY c #000000",
"aZ c #000000",
"a0 c #000000",
"a1 c #000000",
"a2 c #000000",
"a3 c #000000",
"a4 c #000000",
"a5 c #000000",
"a6 c #000000",
"a7 c #000000",
"a8 c #000000",
/* pixels */
"````````````````````````````````````````````````````````````````",
"````````````````````````````````````````````````````````````````",
"````````````````````````````````````````````````````````````````",
"````````````````````````````````````````````````````````````````",
"````````````````````````````````````````````````````````````````",
"````````````````````````````````````````````````````````````````",
"```````````.`#`a`b`b`b`b`b`b`b`b`b`b`b`b`b`b`b`b`a`#`.``````````",
"```````````c`d`d`d`d`d`d`d`d`d`d`d`d`d`d`d`d`d`d`d`d`c``````````",
"`````````.`e`f`f`f`f`f`f`f`f`f`f`f`f`f`f`f`f`f`f`f`f`g``````````",
"`````````h`i`i`i`i`i`i`i`i`i`j`k`k`l`i`i`i`i`i`i`i`i`i`h````````",
"`````````m`n`n`n`n`n`n`n`n`n`k`k`k`o`n`n`n`n`n`n`n`n`n`m````````",
"`````````p`q`q`q`q`q`q`q`q`q`r`k`k`s`q`q`q`q`q`q`q`q`q`p````````",
"`````````p`t`t`t`t`t`t`t`t`t`u`v`v`w`t`t`t`t`t`t`t`t`t`p````````",
"`````````x`y`y`y`y`y`y`y`y`y`y`y`y`y`y`y`y`y`y`y`y`y`y`x````````",
"`````````z`A`A`A`A`A`A`A`B`k`k`k`k`C`A`A`A`A`A`A`A`A`A`z````````",
"`````````D`E`E`E`E`E`E`E`F`k`k`k`k`G`E`E`E`E`E`E`E`E`E`D````````",
"`````````H`I`I`I`I`I`I`I`J`K`K`L`k`M`I`I`I`I`I`I`I`I`I`H````````",
"`````````N`O`O`O`O`O`O`O`O`O`O`k`k`P`O`O`O`O`O`O`O`O`O`N````````",
"`````````N`Q`Q`Q`Q`Q`Q`Q`Q`Q`Q`k`k`R`Q`Q`Q`Q`Q`Q`Q`Q`Q`N````````",
"`````````S`T`T`T`T`T`T`T`T`T`T`k`k`U`T`T`T`T`T`T`T`T`T`S````````",
"`````````V`W`W`W`W`W`W`W`W`W`W`k`k`X`W`W`W`W`W`W`W`W`W`V````````",
"`````````Y`Z`Z`Z`Z`Z`Z`Z`Z`Z`Z`k`k`0`Z`Z`Z`Z`Z`Z`Z`Z`Z`Y````````",
"`````````1`2`2`2`2`2`2`2`2`3`3`4`k`5`3`3`2`2`2`2`2`2`2`1````````",
"`````````1`6`6`6`6`6`6`6`P`k`k`k`k`k`k`k`7`6`6`6`6`6`6`1````````",
"`````````8.`.`.`.`.`.`.`..`k`k`k`k`k`k`k.#.`.`.`.`.`.`.a````````",
"````````.b.c.d.d.d.d.d.d.d.e.e.e.e.e.e.e.d.d.d.d.d.d.f``````````",
"``````````.g.h.h.h.h.h.h.h.h.h.h.h.h.h.h.h.h.h.h.h.h.g``````````",
"``````````.b.i.j.k.k.k.k.k.k.k.k.k.k.k.k.k.k.k.k.j.i.b``````````",
"````````````````````````````````````````````````````````````````",
"````````````````````````````````````````````````````````````````",
"````````````````````````````````````````````````````````````````",
"````````````````````````````````````````````````````````````````"
};
