/* XPM */
static char domeText_xpm[] = {
/* width height num_colors chars_per_pixel */
"    32    32      256            2",
/* colors */
"`` c #c1c1c1",
"`. c #aca99e",
"`# c #7d7451",
"`a c #504106",
"`b c #766c44",
"`c c #a4a091",
"`d c #b48e0d",
"`e c #f7c211",
"`f c #bf970d",
"`g c #5b4a07",
"`h c #958f78",
"`i c #caa00e",
"`j c #665207",
"`k c #d6a80f",
"`l c #675b2b",
"`m c #8e876c",
"`n c #5f521f",
"`o c #6e6338",
"`p c #584a12",
"`q c #715b08",
"`r c #e1b110",
"`s c #948e76",
"`t c #93750a",
"`u c #ecb910",
"`v c #9d9885",
"`w c #7d6309",
"`x c #a9860c",
"`y c #9e7d0b",
"`z c #a39f8f",
"`A c #7f7653",
"`B c #8c856a",
"`C c #bbbab7",
"`D c #857d5d",
"`E c #b3b1aa",
"`F c #867e5f",
"`G c #886c0a",
"`H c #b2b0a8",
"`I c #000000",
"`J c #000000",
"`K c #000000",
"`L c #000000",
"`M c #000000",
"`N c #000000",
"`O c #000000",
"`P c #000000",
"`Q c #000000",
"`R c #000000",
"`S c #000000",
"`T c #000000",
"`U c #000000",
"`V c #000000",
"`W c #000000",
"`X c #000000",
"`Y c #000000",
"`Z c #000000",
"`0 c #000000",
"`1 c #000000",
"`2 c #000000",
"`3 c #000000",
"`4 c #000000",
"`5 c #000000",
"`6 c #000000",
"`7 c #000000",
"`8 c #000000",
".` c #000000",
".. c #000000",
".# c #000000",
".a c #000000",
".b c #000000",
".c c #000000",
".d c #000000",
".e c #000000",
".f c #000000",
".g c #000000",
".h c #000000",
".i c #000000",
".j c #000000",
".k c #000000",
".l c #000000",
".m c #000000",
".n c #000000",
".o c #000000",
".p c #000000",
".q c #000000",
".r c #000000",
".s c #000000",
".t c #000000",
".u c #000000",
".v c #000000",
".w c #000000",
".x c #000000",
".y c #000000",
".z c #000000",
".A c #000000",
".B c #000000",
".C c #000000",
".D c #000000",
".E c #000000",
".F c #000000",
".G c #000000",
".H c #000000",
".I c #000000",
".J c #000000",
".K c #000000",
".L c #000000",
".M c #000000",
".N c #000000",
".O c #000000",
".P c #000000",
".Q c #000000",
".R c #000000",
".S c #000000",
".T c #000000",
".U c #000000",
".V c #000000",
".W c #000000",
".X c #000000",
".Y c #000000",
".Z c #000000",
".0 c #000000",
".1 c #000000",
".2 c #000000",
".3 c #000000",
".4 c #000000",
".5 c #000000",
".6 c #000000",
".7 c #000000",
".8 c #000000",
"#` c #000000",
"#. c #000000",
"## c #000000",
"#a c #000000",
"#b c #000000",
"#c c #000000",
"#d c #000000",
"#e c #000000",
"#f c #000000",
"#g c #000000",
"#h c #000000",
"#i c #000000",
"#j c #000000",
"#k c #000000",
"#l c #000000",
"#m c #000000",
"#n c #000000",
"#o c #000000",
"#p c #000000",
"#q c #000000",
"#r c #000000",
"#s c #000000",
"#t c #000000",
"#u c #000000",
"#v c #000000",
"#w c #000000",
"#x c #000000",
"#y c #000000",
"#z c #000000",
"#A c #000000",
"#B c #000000",
"#C c #000000",
"#D c #000000",
"#E c #000000",
"#F c #000000",
"#G c #000000",
"#H c #000000",
"#I c #000000",
"#J c #000000",
"#K c #000000",
"#L c #000000",
"#M c #000000",
"#N c #000000",
"#O c #000000",
"#P c #000000",
"#Q c #000000",
"#R c #000000",
"#S c #000000",
"#T c #000000",
"#U c #000000",
"#V c #000000",
"#W c #000000",
"#X c #000000",
"#Y c #000000",
"#Z c #000000",
"#0 c #000000",
"#1 c #000000",
"#2 c #000000",
"#3 c #000000",
"#4 c #000000",
"#5 c #000000",
"#6 c #000000",
"#7 c #000000",
"#8 c #000000",
"a` c #000000",
"a. c #000000",
"a# c #000000",
"aa c #000000",
"ab c #000000",
"ac c #000000",
"ad c #000000",
"ae c #000000",
"af c #000000",
"ag c #000000",
"ah c #000000",
"ai c #000000",
"aj c #000000",
"ak c #000000",
"al c #000000",
"am c #000000",
"an c #000000",
"ao c #000000",
"ap c #000000",
"aq c #000000",
"ar c #000000",
"as c #000000",
"at c #000000",
"au c #000000",
"av c #000000",
"aw c #000000",
"ax c #000000",
"ay c #000000",
"az c #000000",
"aA c #000000",
"aB c #000000",
"aC c #000000",
"aD c #000000",
"aE c #000000",
"aF c #000000",
"aG c #000000",
"aH c #000000",
"aI c #000000",
"aJ c #000000",
"aK c #000000",
"aL c #000000",
"aM c #000000",
"aN c #000000",
"aO c #000000",
"aP c #000000",
"aQ c #000000",
"aR c #000000",
"aS c #000000",
"aT c #000000",
"aU c #000000",
"aV c #000000",
"aW c #000000",
"aX c #000000",
"aY c #000000",
"aZ c #000000",
"a0 c #000000",
"a1 c #000000",
"a2 c #000000",
"a3 c #000000",
"a4 c #000000",
"a5 c #000000",
"a6 c #000000",
"a7 c #000000",
"a8 c #000000",
/* pixels */
"````````````````````````````````````````````````````````````````",
"````````````````````````````````````````````````````````````````",
"````````````````````````````````````````````````````````````````",
"````````````````````````````````````````````````````````````````",
"````````````````````````````````````````````````````````````````",
"````````````````````````````````````````````````````````````````",
"````````````````````````````````````````````````````````````````",
"```.`#`a`a`a`b`c````````````````````````````````````````````````",
"```#`d`e`e`e`f`g`h``````````````````````````````````````````````",
"```#`d`i`a`j`k`k`l```m`n`a`n`m```m`n`a`a`o`p`a`b`c```h`l`a`n`m``",
"```#`d`i`o`h`j`e`q`h`q`r`e`r`q`s`t`r`e`e`i`u`e`f`b`v`q`k`e`r`j`c",
"```#`d`i`o```a`e`w`l`k`x`a`x`f`b`t`r`j`w`u`q`j`e`g`o`i`y`a`y`f`b",
"```#`d`i`o`h`g`e`q`n`r`w`z`w`r`n`t`i`o`j`r`n`a`e`j`n`r`e`e`e`i`o",
"```#`d`i`a`j`k`i`o`l`k`x`a`x`f`b`t`i`o`j`r`n`a`e`j`l`k`y`a`a`o`v",
"```#`d`e`e`e`f`g`v`h`q`r`e`r`q`s`t`i`o`j`r`n`a`e`j`h`q`k`e`e`d`#",
"```.`#`a`a`a`b`c`````m`n`a`n`m```s`o`v`m`n`m`A`a`A```h`l`a`a`#`.",
"````````````````````````````````````````````````````````````````",
"````````````````````````````````````````````````````````````````",
"````````````````````````````````````````````````````````````````",
"```````.`#`a`a`a`a`a`o`v`````````````````````````v`o`B`C````````",
"```````#`d`e`e`e`e`e`i`o`````````````````````````o`i`y`B````````",
"```````.`#`a`a`e`w`a`o`m`n`a`a`A```m`n`D`E`D`l`h`o`i`y`a`A``````",
"`````````````a`e`w`z`F`w`r`e`e`t`F`j`r`x`b`x`k`g`t`e`e`e`t`s````",
"`````````````a`e`w`z`p`u`t`a`G`u`p`m`j`u`f`r`j`h`o`i`y`a`A``````",
"`````````````a`e`w`z`j`e`e`e`e`e`j`H`F`t`e`G`m```o`i`y`B````````",
"`````````````a`e`w`z`p`u`t`a`a`a`A`m`j`u`f`r`j`h`o`i`x`a`A``````",
"`````````````a`e`w`z`F`w`r`e`e`r`n`j`r`y`b`f`k`g`s`t`e`e`t`s````",
"`````````````A`a`A`````m`n`a`a`n`m`m`n`B`c`b`l`h```A`a`a`A``````",
"````````````````````````````````````````````````````````````````",
"````````````````````````````````````````````````````````````````",
"````````````````````````````````````````````````````````````````",
"````````````````````````````````````````````````````````````````"
};
