/* XPM */
static char image_name[]={
"32 32 9 2",
"  	c #C2C2C2",
". 	c #55562F",
"X 	c #B8860B",
"o 	c #DAAA00",
"O 	c #8B4513",
"+ 	c #F2DE0D",
"@ 	c #6B3939",
"# 	c #96522D",
"$ 	c #242424",
"                                                                ",
"                                                                ",
"    . . . . . . . . . . . . . . . . . . . . . . . . . . . .     ",
"    . X X X X X X X X X X X X X X X X X X o o o o o o o o .     ",
"    . X . X . X . X X X X X X X X X X X X o o o o o o o o .     ",
"    . X X X X X X X X X X X X X X X X X X o o o o o o o o .     ",
"    . . . . . . . . . . O O O O O O O O O O O O O O O O O .     ",
"    . o o o o o o o o o o o o o o o o o o o o o o o o o o .     ",
"    . o + + + + + + + + + + + + + + + + + + + + + + + + o .     ",
"    . o + + + + + + + + + + + + + + + + + + + + + + + + o .     ",
"    . o + + . . . . . . . . . . . + + + + + + + + + + + o .     ",
"    . o + + . + + + + + + + + + . + + + + + + + + + + + o .     ",
"    . o o o . + + + + + + o . o . o o o o o o . . o o o o .     ",
"    . o o o . + + + + + o . o + . o o o . @ @ o # @ o o o .     ",
"    . o o o . + + + + + . o + + @ . . @ o # @ o O . o o o .     ",
"    . o o o . + X o + X X + + X @ o # $ o # . . . O o o o .     ",
"    . o o o . + o . o . o + + . O . @ @ @ . X o o o o o o .     ",
"    . o o o @ + + # . X + + o . # o # # O @ . # o o o o o .     ",
"    . o o o @ + + o . o + + o . @ . . o o . # O . X o o o .     ",
"    @ o o o @ + + + o + + + o . # # . . . . o o . X o o o @     ",
"    @ o o o @ @ @ @ @ @ @ @ . . # # # # # O . . . X o o o @     ",
"    @ o o o o o o o o o o o X . O O # # # # # # . o o o o @     ",
"    @ o o o o o o o o o o o X . O O O O O O # O . o o o o @     ",
"    @ o o o o o o o o o o o o . . . O O O O O O . o o o o @     ",
"    @ o o o o o o o o o o o o o o O . . . O O . . o o o o @     ",
"    @ o o o o o o o o o o o o o o o o o O . . . O o o o o @     ",
"    @ o o o o o o o o o o o o o o o o o o o o O X o o o o @     ",
"    @ o o o o o o o o o o o o o o o o o o o o o o o o o o @     ",
"    @ o o o o o o o o o o o o o o o o o o o o o o o o o o @     ",
"    . @ @ @ @ @ @ @ @ @ @ @ @ @ @ @ @ @ @ @ @ @ @ @ @ @ @ .     ",
"                                                                ",
"                                                                "
};
