/* XPM */
static char render_galaxy_xpm[] = {
/* width height num_colors chars_per_pixel */
"    32    32      256            2",
/* colors */
"`` c #7c5a04",
"`. c #bc961c",
"`# c #a49674",
"`a c #8c7a3c",
"`b c #cc9e1c",
"`c c #ac820c",
"`d c #dcb224",
"`e c #a4966c",
"`f c #947a44",
"`g c #b4b29c",
"`h c #8c6a04",
"`i c #ac8a3c",
"`j c #bc9a44",
"`k c #aca68c",
"`l c #a48624",
"`m c #d4aa1c",
"`n c #846a24",
"`o c #e4ba4c",
"`p c #b48e1c",
"`q c #9c8a4c",
"`r c #b49634",
"`s c #9c7a14",
"`t c #ecba24",
"`u c #e4c274",
"`v c #946e04",
"`w c #aca694",
"`x c #9c7a2c",
"`y c #dcb644",
"`z c #c4a64c",
"`A c #ac8624",
"`B c #ccaa3c",
"`C c #bc9e3c",
"`D c #cca234",
"`E c #b49e4c",
"`F c #9c8a5c",
"`G c #e4ba24",
"`H c #bcbeb4",
"`I c #947614",
"`J c #846204",
"`K c #ac9e74",
"`L c #948244",
"`M c #bca674",
"`N c #bc8e1c",
"`O c #cca62c",
"`P c #e4b224",
"`Q c #bca264",
"`R c #d4aa2c",
"`S c #8c722c",
"`T c #a4821c",
"`U c #ac8a14",
"`V c #9c7a1c",
"`W c #946e14",
"`X c #c49e1c",
"`Y c #bcbaac",
"`Z c #ac9254",
"`0 c #bca254",
"`1 c #e4be64",
"`2 c #c49a2c",
"`3 c #9c822c",
"`4 c #a48644",
"`5 c #d4a21c",
"`6 c #b4860c",
"`7 c #b4964c",
"`8 c #a48e3c",
".` c #ac8e34",
".. c #a49254",
".# c #e4ca7c",
".a c #bcae94",
".b c #bca664",
".c c #c49e2c",
".d c #b49e64",
".e c #9c9264",
".f c #846214",
".g c #ac9e84",
".h c #9c8244",
".i c #c4961c",
".j c #bcb29c",
".k c #846a1c",
".l c #ac9244",
".m c #9c863c",
".n c #a48a44",
".o c #bc962c",
".p c #b48a24",
".q c #bcae84",
".r c #8c7234",
".s c #c49e3c",
".t c #cca22c",
".u c #ac861c",
".v c #dcb234",
".w c #ac965c",
".x c #c49e44",
".y c #b4a67c",
".z c #dcaa1c",
".A c #e4c254",
".B c #a47a0c",
".C c #9c7204",
".D c #b4ae94",
".E c #ac8a34",
".F c #d4ae3c",
".G c #c4bebc",
".H c #e4b634",
".I c #dcae2c",
".J c #a4822c",
".K c #845e04",
".L c #ac9a74",
".M c #947a2c",
".N c #cca21c",
".O c #ac860c",
".P c #bc9e54",
".Q c #8c6e24",
".R c #e4be5c",
".S c #e4c684",
".T c #e4b63c",
".U c #ac8a29",
".V c #ccaa4c",
".W c #cca644",
".X c #9c7611",
".Y c #8c6604",
".Z c #b4a274",
".0 c #bcaa8c",
".1 c #bc9224",
".2 c #e4b628",
".3 c #a47e24",
".4 c #9c7214",
".5 c #b48e2c",
".6 c #c4aa6c",
".7 c #c4a230",
".8 c #b4a269",
"#` c #a49260",
"#. c #d4a620",
"## c #c4a247",
"#a c #b4923c",
"#b c #947224",
"#c c #8c6a17",
"#d c #a4863a",
"#e c #b4aa94",
"#f c #c4aa5c",
"#g c #948654",
"#h c #9c8654",
"#i c #c49a24",
"#j c #bcb6ac",
"#k c #a48a54",
"#l c #bc9a3c",
"#m c #ac966c",
"#n c #b4a68c",
"#o c #947a3c",
"#p c #ecba34",
"#q c #b49e5c",
"#r c #e4ba34",
"#s c #b48a14",
"#t c #9c823c",
"#u c #e4ca8c",
"#v c #b4aea4",
"#w c #a4926c",
"#x c #7c5e08",
"#y c #a49a78",
"#z c #dcb62c",
"#A c #947e45",
"#B c #ac8e42",
"#C c #bc9e4c",
"#D c #846e2c",
"#E c #e4be50",
"#F c #b49224",
"#G c #e4c676",
"#H c #94720c",
"#I c #9c7e30",
"#J c #ccae44",
"#K c #cca639",
"#L c #9c8e61",
"#M c #84660c",
"#N c #aca27c",
"#O c #bcaa78",
"#P c #bc921a",
"#Q c #d4ae34",
"#R c #9c7e24",
"#S c #947219",
"#T c #e4c267",
"#U c #b49a54",
"#V c #bcaa6c",
"#W c #846615",
"#X c #aca287",
"#Y c #9c8647",
"#Z c #c49a1b",
"#0 c #bcb6a4",
"#1 c #a48e4c",
"#2 c #bc9a34",
"#3 c #8c7637",
"#4 c #dcae24",
"#5 c #a47e0f",
"#6 c #c4c2c1",
"#7 c #e4ba3f",
"#8 c #b49230",
"a` c #8c6e1c",
"a. c #a48a3c",
"a# c #c4a23c",
"aa c #dcb634",
"ab c #947624",
"ac c #a48e54",
"ad c #ac9a6c",
"ae c #b4aa8c",
"af c #947e3c",
"ag c #bc9624",
"ah c #cc9e24",
"ai c #ac8214",
"aj c #dcb22c",
"ak c #b4b2a4",
"al c #8c6a0c",
"am c #bc9a4c",
"an c #a4862c",
"ao c #d4aa24",
"ap c #b48e24",
"aq c #9c8a54",
"ar c #b4963c",
"as c #ecba2c",
"at c #946e0c",
"au c #c4a654",
"av c #ac862c",
"aw c #ccaa44",
"ax c #b49e54",
"ay c #e4ba2c",
"az c #bcbebc",
"aA c #94761c",
"aB c #84620c",
"aC c #ac9e7c",
"aD c #94824c",
"aE c #e4b22c",
"aF c #bca26c",
"aG c #d4aa34",
"aH c #9c7a24",
"aI c #c49e24",
"aJ c #bcbab4",
"aK c #ac925c",
"aL c #c49a34",
"aM c #9c8234",
"aN c #d4a224",
"aO c #b48614",
"aP c #e4ca84",
"aQ c #bcae9c",
"aR c #bca66c",
"aS c #c49e34",
"aT c #b49e6c",
"aU c #bcb2a4",
"aV c #ac924c",
"aW c #bc9634",
"aX c #bcae8c",
"aY c #ac9664",
"aZ c #b4a684",
"a0 c #dcaa24",
"a1 c #a47a14",
"a2 c #9c720c",
"a3 c #b4ae9c",
"a4 c #dcae34",
"a5 c #a48234",
"a6 c #cca224",
"a7 c #ac8614",
"a8 c #8c6e2c",
/* pixels */
"#6#6az#6az.GazazazaJaJaJa3#maM#x.f.eaUazaJ#jakaJaJ#jaJaz.Gaz#6#6",
"az#6azazaz`HaJaJ#jaJ`Y#jaU.y##.N`c#W`#ak#jaUaUak#y#wakazaz.Gaz#6",
"#6az#6azaU#e.g#y`##yaC#y`k.D.0.2#r`6`S`F#XakaJaCaba8a3.GaJaz#6az",
"#6az.GaJ`w`F.k#W.K.K#x#W#A`e#w`K#Q.2.5#c#3#naJam#P#x`kaJaJaz.G#6",
"#6azaz#j`k#k.X`X#.`daN`b`.#S.Y#W#`.baw#.at#gaQ#Q`P`J#gaU`HaJaz#6",
"az#6azaJaUaZax.2a4aGayayaG.t#r.N.Y.raT#z`b.K`F`zay#5aDakaJaJaz.G",
"#6azaJaJ#j#j#0.aaeaC#daMacaV`R.2`t`c`S.Z.2.NaB`Z.vaW#yaU#j#jazaz",
"azaJ#jaJaJa3`##L#Laf.X#s.B`s.3#d.x`G`p`S`C#r`c`S.8`i`S#yakaJaJaU",
"aJaJ.Ga3#w`a#b.U#8ar#K.Iay`P`O#FaH#I#4.i`4aE#ra``7`R.Y#oak#jaZ#X",
"aJaJ`kaD#Wai`O`B.PaT.w#t.u`papaga0#Z#8aIa1a.#4#Iar.T.OaDaQaT#Y`e",
"aJ`##D.Y#Z.2`z.L`eaC#`ap#.`d`bag`maE`AaI.2#R#l.`#B.I.3#y.b#2#c#g",
"#X.f`v#7#r.6#y.M.5#l.w.`.1#..N`m#.#Z`d#Z#..Uap`l.n`C#I#w#J`P.Y#3",
".r``.2#p.6`k#A#8.7#B#d.E#F#4#7`o`o`o#7ah`.#Z`P#P`xaG#5aD.Fay.YaD",
"aB`..2#V#Lab#8###k`Ta6#Paj`o`1#T#T`1`1#7ay#Zao#Za5.2at`e.F`2.Q.g",
"#L.P#O#X``.z.2`K#S#4#i#Z#7.R#T`u#G#G#T`1.H#F.1`8aG.z#WaZ#K.3#ga3",
"`Y#ja3`Fat`P#C#Sao`Can.N#r`1#GaPaPaP`u#T.7.o#8`4`t#5#Ya4`b#W`#`Y",
"aJak`Fataoaw`L#say.1a6`b.H.A#G.SaPaP#G`1#Qag.`aW#Faf#K#7.C#3a3#j",
".G#e#D.O#r`Q.f.2a0#P.2`d#r#E#T.SaP.S`u`1.T#P#8.7.MaT.H.i.f#y.a#e",
"az.g#x`b.H.Za`a6`l`.`P#.as`o#T#G#G`u#T`y`O.N#.aH.w#Qaga`.e#Oau#1",
"aUaD`v.Ha4aC`4`E.h`N#Z#Z.2#7`o`1`1#E#E#r#.`U#8#iaya0.Y#L.q`t#i#W",
"a3#3at`R`M#y`laG#d#Pah`p`b`Xas#Q.v#rao`.`N#i.Hay`c#caq.W.2.2.C#x",
"#j.e.h.d.D#o#Pasa5#Fao#dag.p#Z`.ap.N.uan#8#.#P`W`L#X.V#7.2`J.k#w",
"#j.g#``Q.D#oa2#Q.n`s.c#1.N`P#Y.U#2#Za.`7.lav`3#1aGaG#lag`h`n.Laz",
"ak`#..aFa3`e`I`d#U#t.c#a.4`..Pac.U#Z#8`D`G.2.2.7.I`c.k`F#h.g#jaz",
"#j#X.ga3#j`#.4.2#q#h.p#Kac#A#8.s#1aD#danai`c.C`W#o`S#La3`YaJaJ#j",
"az#jakaz#j`##Maoau#y`Sap#Q.8aD.5.I.W##.l`8.haq#``K`Q#O.DaQakaJaJ",
"#6az#6aJaJ`k`nap.2.b#yab#r.2#e#A`Uay.2.2#7.I.W#z`tayaE#`ae#vaJaz",
"#6azazazaJ#j#halas#Q#j#A.B#p.v.Z#A.K`J.C.i#Z`U.5ai#5`caB#y#j`H.G",
"#6#6.GazaJaz.g#x`v`7.j.g.f`haIau`M`K`e#La8aBa8#A.r.r.M`S#yaJ.Gaz",
"az#6az.Gaz.Ga3aq`a`#.DaU#X`a.k#a`G.W.Da3`w.g#X#Xae#vak`wakazaz#6",
"#6az#6az.GaJaJ#ja3#n#nak`Ha3#wafaO.UaTaX#j`H`Y#jaJaz.Gaz.Gaz.Gaz",
"#6#6az#6azazaz#6az#j`waUaJ.GaJ#y.f`S#`aC`gazaJazazaJaz.Gaz.Gaz#6"
};
