/* XPM */
static char render_domeAFL_FOV_xpm[] = {
/* width height num_colors chars_per_pixel */
"    32    32      256            2",
/* colors */
"`` c #c1c1c1",
"`. c #d0a70f",
"`# c #695d2f",
"`a c #d0a70c",
"`b c #8b6f0a",
"`c c #7c5218",
"`d c #161302",
"`e c #776d47",
"`f c #bf990a",
"`g c #54450b",
"`h c #8c700a",
"`i c #eaba0f",
"`j c #0d0c0d",
"`k c #a1029d",
"`l c #5b4907",
"`m c #6b6033",
"`n c #040505",
"`o c #bab9b5",
"`p c #514207",
"`q c #9c7608",
"`r c #b1aea6",
"`s c #1b1b1b",
"`t c #642339",
"`u c #b4920c",
"`v c #9e800a",
"`w c #06d7f4",
"`x c #6507a5",
"`y c #242325",
"`z c #bb950b",
"`A c #ddb00e",
"`B c #ecbb10",
"`C c #314235",
"`D c #a50d0b",
"`E c #682309",
"`F c #7e6508",
"`G c #8f7309",
"`H c #775007",
"`I c #aca99e",
"`J c #7c5207",
"`K c #c69f0c",
"`L c #f1c00f",
"`M c #d0ab23",
"`N c #7f7653",
"`O c #020202",
"`P c #d5aa0b",
"`Q c #8f886e",
"`R c #928c74",
"`S c #9d9885",
"`T c #837b5a",
"`U c #7f7754",
"`V c #313232",
"`W c #a6a294",
"`X c #5c4e15",
"`Y c #00fdeb",
"`Z c #191505",
"`0 c #060205",
"`1 c #564606",
"`2 c #670f52",
"`3 c #310426",
"`4 c #947909",
"`5 c #aeaca2",
"`6 c #000003",
"`7 c #201d0c",
"`8 c #000001",
".` c #fbdc06",
".. c #42543f",
".# c #bfbfbe",
".a c #bdbdbb",
".b c #3e3e2b",
".c c #594807",
".d c #1e1d1d",
".e c #6b0506",
".f c #fb1306",
".g c #fafd06",
".h c #060606",
".i c #5f3721",
".j c #6f2d04",
".k c #562427",
".l c #795017",
".m c #b4b2ab",
".n c #8d866c",
".o c #62f94f",
".p c #7e7552",
".q c #900a76",
".r c #131313",
".s c #23de62",
".t c #241e9c",
".u c #725c08",
".v c #846a09",
".w c #b18d0c",
".x c #816908",
".y c #080808",
".z c #eebc10",
".A c #e5b60f",
".B c #373a39",
".C c #0c5dd2",
".D c #317ea7",
".E c #5e4d07",
".F c #d0a60c",
".G c #a88709",
".H c #e8b80b",
".I c #584a12",
".J c #a39f8f",
".K c #2f3f3e",
".L c #97927c",
".M c #61572b",
".N c #928c73",
".O c #6f653a",
".P c #6d6235",
".Q c #1ac0b5",
".R c #2d2919",
".S c #746a42",
".T c #7d7450",
".U c #323636",
".V c #101010",
".W c #695e30",
".X c #060808",
".Y c #72652e",
".Z c #161616",
".0 c #a8a598",
".1 c #121212",
".2 c #e10205",
".3 c #8e7006",
".4 c #daae0a",
".5 c #8b6e06",
".6 c #34a59a",
".7 c #000202",
".8 c #cca30b",
"#` c #2b383a",
"#. c #2f0303",
"## c #392a26",
"#a c #0a0a0a",
"#b c #7b6107",
"#c c #009ff5",
"#d c #fa3803",
"#e c #111215",
"#f c #08090c",
"#g c #8a7009",
"#h c #fd6706",
"#i c #ae8c0b",
"#j c #030407",
"#k c #211207",
"#l c #000104",
"#m c #8c7209",
"#n c #1325cd",
"#o c #27a05a",
"#p c #92750a",
"#q c #f38c0a",
"#r c #7b5319",
"#s c #5f3c07",
"#t c #655107",
"#u c #7e530a",
"#v c #7a5207",
"#w c #3e316e",
"#x c #b9b7b3",
"#y c #544406",
"#z c #534306",
"#A c #6b5608",
"#B c #553f0b",
"#C c #50481d",
"#D c #b78813",
"#E c #67520a",
"#F c #534007",
"#G c #743670",
"#H c #4f243f",
"#I c #948e77",
"#J c #61405a",
"#K c #d6b124",
"#L c #877f61",
"#M c #5e511e",
"#N c #000000",
"#O c #796f49",
"#P c #0a0509",
"#Q c #6c6032",
"#R c #72673e",
"#S c #323432",
"#T c #6a5c28",
"#U c #7b714c",
"#V c #2f302f",
"#W c #9b8639",
"#X c #7b116d",
"#Y c #8a8265",
"#Z c #c9a621",
"#0 c #c7ba1f",
"#1 c #928b72",
"#2 c #9e8216",
"#3 c #4f0e41",
"#4 c #291424",
"#5 c #51003d",
"#6 c #141301",
"#7 c #f1bd0c",
"#8 c #765b07",
"a` c #8a6b09",
"a. c #70570b",
"a# c #856a15",
"aa c #453a16",
"ab c #997307",
"ac c #53440b",
"ad c #eabf1c",
"ae c #5a4509",
"af c #8e6d0f",
"ag c #7c600e",
"ah c #906e11",
"ai c #373536",
"aj c #584707",
"ak c #9b7513",
"al c #c89825",
"am c #34233e",
"an c #4621d0",
"ao c #bcbbb9",
"ap c #ffa502",
"aq c #353132",
"ar c #8d720a",
"as c #774f07",
"at c #0d0001",
"au c #6f4b08",
"av c #b7b6b1",
"aw c #685407",
"ax c #684411",
"ay c #524200",
"az c #ccc81e",
"aA c #6aa242",
"aB c #a58605",
"aC c #8b6f09",
"aD c #83542f",
"aE c #3a4b79",
"aF c #9eff37",
"aG c #6e3313",
"aH c #80c12b",
"aI c #6c3d3e",
"aJ c #752c14",
"aK c #c35732",
"aL c #0bdfbd",
"aM c #02f4d5",
"aN c #df3018",
"aO c #331f1c",
"aP c #a6aa3a",
"aQ c #b2961c",
"aR c #d3fb16",
"aS c #441817",
"aT c #af3f3f",
"aU c #722d2d",
"aV c #6d2e2e",
"aW c #1b0e0e",
"aX c #464040",
"aY c #c6ff2d",
"aZ c #a17f00",
"a0 c #020404",
"a1 c #695a18",
"a2 c #3f363d",
"a3 c #abe520",
"a4 c #856e0a",
"a5 c #000201",
"a6 c #111102",
"a7 c #121414",
"a8 c #ffffff",
/* pixels */
"````````````````````````````````````````````````````````````````",
"````````````````````````````````````````````````````````````````",
"````````````````````````````````````````````````````````````````",
"````````````````````````````````````````````````````````````````",
"````````````````````````````````````````````````````````````````",
"````````````````````````````````````````````````````````````````",
"```````````````````````5.N#U`m.M`p`m#O`Q`I``````````````````````",
"````````````````.#.L`mae.I#C.........b.baa`##I.a````````````````",
"``````````````.L#F.jaJaD#WaPaA#o.6.6.DaE#wam.k#B`R``````````````",
"``````````#x`U.j.kaIaTaKalazaH#o.Q.Q.D.t#w#G#J#HaV`N`r``````````",
"`````````I.p`E`VaXaU`DaN#q.`a3.saL`w.C.t`x#X#G#J.B`t#F.J````````",
"```````r.p`E.K.U`yaS`D.f#h.`aR.saM`w.C.t`x.q`2#Ha2`C`t#B.0``````",
"```````N`E.K`V.d.raW.e.2#d.`.g.s`Y`w#n`x`k.q#3#4.d#V`C`t`e.a````",
"````#L.j#``V`s.1`j.X#k`D.fap.g.o`Y#c#n`k`k`2`3`j.1`s`V`C`t`T````",
"```5#s##.B.d.r`j.y`0`0#..2#h.g.o`Y#c`x`k`2`3.h.X`j.r`s.Baq.i.J``",
"```U`E.K`y.Z`j.y`n`n.7`O.e.f.`.o`Y.C`k.q`3`0a0`n.y`j.Z`y`C`t.S``",
".m#s##.U`s.V#a.h`n`O`O.7at`D#qaF`wan`k`3#P`8`O`n.h#a.V`s#Sai.i`I",
"`QaG#``y#e#f#j#l`6`6`8`8#N#.#daY`w`x#5`0#N`8`6`6#l#j#f#e`y`C.k`T",
"`m.i.b.R`7`7`Z`Z`d`d`d`d`d`d.e#0.D`2#k#6`d`d`d`d`Z`Z`7`7.R.baO`p",
"#Ma1.5#g`b`b`b`b`b`b`b`b`b`b.3a`.3.5#g`b`h`h`h`h`h`h`h`baC#pay#C",
".P.G`P`.`.`.`.`.`.`.`.`.`.`.`..F.F.F`a`a`a`a`a`a`a`a`a`a`a`PaZ.M",
"#Qau#v`H`H`Has#v`J`J`J#u`J`H#u#r.l#r`c`c`c`c.l.l`c`c`c`c`c`cax.M",
"`pa#ab`q`q`q`q#b`#`#`#.W#8`q#D#Daka..W`#`#`#agah`1`#`#`#`##Eaf#T",
"`g#K.H`u`u`u`uar`R``.T`4`L`f`4`4`K`L`v`N``.L.x`L#m.N````.O`fad#M",
"`g`M`z.O`e`e`e`R```S`F.z`v.P.n.n`##i`B.u.0.a#y`K.8`p```r#t.H#2`U",
"`g`M.8.x.v.v`F#z.##O#i`i.E`r`````W#A`B`v`T``#Y#m.z.u`W`T`v.H#E`r",
"`g#Z#7`A`A`A`K`1ao`m`f`A`1.a````av.E`i.w`e``.m.E`i.w`e`1`A`z.O``",
"`g`M`f`l`l`l.c`Q``#R`u.A`l`o````.m#t`i.G.p`````e.w.Aaj.x`i#b`S``",
"`g`M`f.P`o`o`o````#1`G`L.v`U`5`5`N#p.z`F`S`````W.u`B`G`z`.#z.#``",
"`g#K`f`m```````````o.c`z`B`Gaw#A`4`B`z#y.#```````p`K.A`i`G.n````",
"acaQaB.S````````````.N.c.G`P.4.4`P`v`l`S````````#I`F`a`f`l#x````",
"`R`X.I.J```````````````W`e`X.Y.Y`X.T`I````````````#L`X.I`Q``````"
};
