/* XPM */
static char render_rob_lookup_background_xpm[] = {
/* width height num_colors chars_per_pixel */
"    32    32      256            2",
/* colors */
"`` c #040204",
"`. c #8c821c",
"`# c #444214",
"`a c #6c6214",
"`b c #c4c2c4",
"`c c #24220c",
"`d c #b4a224",
"`e c #444244",
"`f c #84826c",
"`g c #6c6244",
"`h c #34320c",
"`i c #5c520c",
"`j c #949284",
"`k c #141204",
"`l c #7c7214",
"`m c #342a0c",
"`n c #a4a29c",
"`o c #54523c",
"`p c #747264",
"`q c #a49224",
"`r c #e4e2e4",
"`s c #242224",
"`t c #343234",
"`u c #b4b2b4",
"`v c #848284",
"`w c #645a14",
"`x c #1c1e24",
"`y c #8c7a04",
"`z c #545254",
"`A c #544614",
"`B c #1c1a04",
"`C c #7c7a64",
"`D c #8c8254",
"`E c #949294",
"`F c #0c0a04",
"`G c #6c662c",
"`H c #2c2a04",
"`I c #44360c",
"`J c #7c722c",
"`K c #f4f2f4",
"`L c #5c5a4c",
"`M c #9c8a24",
"`N c #d4d2d4",
"`O c #2c2204",
"`P c #8c8a6c",
"`Q c #5c522c",
"`R c #acaaa4",
"`S c #4c4624",
"`T c #645214",
"`U c #141214",
"`V c #2c2a2c",
"`W c #bcbab4",
"`X c #949a9c",
"`Y c #4c4a14",
"`Z c #4c4a4c",
"`0 c #64625c",
"`1 c #3c361c",
"`2 c #847214",
"`3 c #7c765c",
"`4 c #ac9a24",
"`5 c #848a94",
"`6 c #645a24",
"`7 c #7c7a74",
"`8 c #7c6a1c",
".` c #645e5c",
".. c #0c0604",
".# c #948a24",
".a c #4c4204",
".b c #3c2e0c",
".c c #eceaec",
".d c #2c261c",
".e c #343a44",
".f c #544e14",
".g c #1c1a1c",
".h c #140e04",
".i c #5c5a5c",
".j c #2c2614",
".k c #948e74",
".l c #a49e94",
".m c #040614",
".n c #94821c",
".o c #746604",
".p c #cccacc",
".q c #d4ba2c",
".r c #3c320c",
".s c #5c521c",
".t c #9c967c",
".u c #1c1604",
".v c #342a14",
".w c #aca69c",
".x c #645a34",
".y c #6c727c",
".z c #a49244",
".A c #6c5a14",
".B c #8c7e1c",
".C c #0c0e04",
".D c #443e0c",
".E c #fcfafc",
".F c #dcdadc",
".G c #2c2604",
".H c #b4aea4",
".I c #bcbec4",
".J c #9c9a9c",
".K c #6c6a6c",
".L c #847614",
".M c #8c8a8c",
".N c #4c4214",
".O c #040604",
".P c #24260c",
".Q c #bcae2c",
".R c #444644",
".S c #8c866c",
".T c #5c5614",
".U c #342e04",
".V c #a4a6a4",
".W c #5c5a44",
".X c #ac9624",
".Y c #242624",
".Z c #bcb6b4",
".0 c #5c5654",
".1 c #544a14",
".2 c #241e04",
".3 c #7c7a6c",
".4 c #8c865c",
".5 c #74661c",
".6 c #84722c",
".7 c #5c5e54",
".8 c #a48e24",
"#` c #8c8a7c",
"#. c #746e4c",
"## c #8c761c",
"#a c #544e3c",
"#b c #3c3a3c",
"#c c #747274",
"#d c #b49e24",
"#e c #7c6e2c",
"#f c #eceafc",
"#g c #746214",
"#h c #c4aa2c",
"#i c #5c5234",
"#j c #1c1e34",
"#k c #5c4e14",
"#l c #9c968c",
"#m c #947e1c",
"#n c #4c3e0c",
"#o c #848674",
"#p c #7c7e5c",
"#q c #d4d6dc",
"#r c #acaeac",
"#s c #64560c",
"#t c #141614",
"#u c #bcbebc",
"#v c #646664",
"#w c #3c3a24",
"#x c #7c7e7c",
"#y c #948624",
"#z c #3c3604",
"#A c #8c8e84",
"#B c #c4c6c4",
"#C c #141604",
"#D c #a49624",
"#E c #e4e6e4",
"#F c #343634",
"#G c #b4b6b4",
"#H c #848684",
"#I c #645e14",
"#J c #545654",
"#K c #949694",
"#L c #443a0c",
"#M c #f4f6f4",
"#N c #9c8e24",
"#O c #2c2e2c",
"#P c #4c4e4c",
"#Q c #7c6e1c",
"#R c #eceeec",
"#S c #1c1e1c",
"#T c #5c5e5c",
"#U c #cccecc",
"#V c #6c5e14",
"#W c #fcfefc",
"#X c #dcdedc",
"#Y c #9c9e9c",
"#Z c #6c6e6c",
"#0 c #4c4614",
"#1 c #3c3e3c",
"#2 c #747674",
"#3 c #746614",
"#4 c #04020c",
"#5 c #8c8224",
"#6 c #242214",
"#7 c #5c5214",
"#8 c #94928c",
"a` c #7c721c",
"a. c #a4a2a4",
"a# c #1c1a0c",
"aa c #8c825c",
"ab c #0c0a0c",
"ac c #2c2a0c",
"ad c #7c7234",
"ae c #5c5a54",
"af c #2c220c",
"ag c #8c8a74",
"ah c #acaaac",
"ai c #14121c",
"aj c #bcbabc",
"ak c #949aa4",
"al c #84721c",
"am c #7c7664",
"an c #645a2c",
"ao c #7c7a7c",
"ap c #4c420c",
"aq c #2c2624",
"ar c #948e7c",
"as c #1c160c",
"at c #0c0e0c",
"au c #2c260c",
"av c #84761c",
"aw c #44464c",
"ax c #342e0c",
"ay c #24262c",
"az c #544a1c",
"aA c #746624",
"aB c #645614",
"aC c #3c360c",
"aD c #8c8e8c",
"aE c #000000",
"aF c #000000",
"aG c #000000",
"aH c #000000",
"aI c #000000",
"aJ c #000000",
"aK c #000000",
"aL c #000000",
"aM c #000000",
"aN c #000000",
"aO c #000000",
"aP c #000000",
"aQ c #000000",
"aR c #000000",
"aS c #000000",
"aT c #000000",
"aU c #000000",
"aV c #000000",
"aW c #000000",
"aX c #000000",
"aY c #000000",
"aZ c #000000",
"a0 c #000000",
"a1 c #000000",
"a2 c #000000",
"a3 c #000000",
"a4 c #000000",
"a5 c #000000",
"a6 c #000000",
"a7 c #000000",
"a8 c #000000",
/* pixels */
"`b`b#u`b`b#u`b`b#u`b`b#u`b`b#u`b`b#u`b`b#u`b`b#u`b`b#u`b`b#u`b`b",
"#u`b`b#u`b`b#u`b`b#u`b`b#u`b`b#u`b`b#u`b`b#u`b`b#u`b`b#u`b`b#u`b",
"`b#u`b`b#u`b`b#u`b`b#u`b#r#A`f.4.4#o`j#r`b#u`b#u#B#u`b`b#u`b`b#u",
"`b#u#B#u#B#u`b`b#u#B#Y.`#e`l#n#L`I.D##`G`L`R`b`b#u`b#u#B`b#u`b`b",
"`b#u`b`b`b`b#u#B#8`J.U`F`A.1`A#0#L.1.1#L`k`m`JaD`b`b`b#u`b`b#u`b",
"`b`b#u`b#u`b#u`o.u#3`w#k.2#C`m.C#z``.G.h.f`2.1.G.W`b#u#B#u`b#u#B",
"#u`b#u#B#uahaA#L#C``#V#g.Gav.1apa``c#3#Q.G#7.2``#0`J#r`b`b.I#B`b",
"`b`b#u`b#r`F#3.X```H.2``.D.A```c#Q.h``.1.G``acaC#V`a.j`u#u#B#u`b",
"#u`b`b#u`S`Haf`k`M.8au`F#Q.r````#3.O``aC#m.2#0#d#V``ax`Q.I`b`b#u",
"`b#u`b.W#NaC```k`i.u#L.o.XaC#kap.X`w#k`h.8a``k``#k`c```q.7`b#u`b",
"`b#u#K`F`T...m`D`1````#0#k```````2aC`````O.o`````F`8#Vap.U.J`b#u",
"`b`b`o````#K#W`5``#S#B`Nay``.e`X#o`````V#j#e`m`Hap.8.n``.G#.`b`b",
"#u#K.h``#P#W`r````#R#W.K```z#W#W#b``#Z#W#f#p.L`A#z```w.2`k`2#Y`b",
"`b`0ac``#J#W.F````#W#W`e```v#W#U````#X#W`r`p.o``````ac#V`A#0.3#u",
"`Ran.x#W#u``#P#B.V#2.Mao#F.M#Waj````#X#W#B```l`#````.r.q.D```g`n",
"#8#s#w#W.p``#S#W#W`U```b#W`v``#1#W`K`e#F`x``#I`.ax`2#0.1ap```6ag",
"`7`a#Lai#v#G`EaDah.i.g#r#W#H``#1#W#W`s````.Y#Q.Q#L`k```kaBaC.1`C",
"`P#L#C``#F#W#R````#R#W.R```v#Wah`e.KaD#caD#Z``#y.h``````#D.T..`3",
".S`H#4#Y`E.J#r`e.g.F#W#P``#x#W#B````#E#W.E#b``#N`#``.U#7`..P`Faa",
"#`.a`F#W.c``.O#W#W.Y``.V#R.M.i#H.K#Paj#M#x`````.#D`A`w.h`m.T`m`C",
"#K`AaC.yah#b`V.c#W`V``#G#W#H``#1#W#W.g`````k.A`d`4```````c`M.d#x",
"`W#a`F``.g#W#Wat``#u#q`7#c#H`Z`0.c#M#S``#Oae``.1.n````.u`2#7aw`R",
".I#l`F.R.i#X#W.g``#U#W#J``#2#W#B`````r#R.F#P``ax.B.O#k.1aC`Y`n`b",
"`b#u`0#q#W````.F.c.K`p`v#1`v#W`b````#R#W#G```kaB#h`i.U``.G.k`b#u",
"`b.I`n#K#M#t``#X#W`e``.V#W`E``#1#W`N`z#v`x``#k#V`M````.Cag`b#u`b",
"`b`b.V`````K#W#P`eaD#Z`E#WaD``#b#W#W`U``#S#O```H#y```#.H`b#u`b`b",
"#u`b#r.g#t#E#W`t``#G#W#v``#2#W#G`t.KaD#v.J#P``.D.z`j`b`b.I`b#u`b",
"`b`b`W#Y#W`e.gah#Y.M#Bao``#Z#W.p````#R#W.I`s.k`W#u`b`b#u`b`b`b#u",
"#u`b.I#Z#R`V``#B#W#T``#K#Wa.``#v`u#2.V.F`Z.R`b`b`b#u`b`b#u`b#u#B",
"`b#u`b`bah`Eao#Z`v#P`s.i#WaD``#F#W#W`U`````E#u`b#u`b#u#B#u#B`b#u",
"`b`b#u`b#u`b#u`b`b#u`bajah`E#x.K#cao#O``#T`b#u`b`b#u#B`b`b#u`b`b",
"#u`b`b#u#B`b`b#u`b`b#u`b#u`b`b#u`b`b`b#u`b`b`b#u#B`b#u`b#u`b#u`b"
};
