/* XPM */
static char render_domeRamp_xpm[] = {
/* width height num_colors chars_per_pixel */
"    32    32      256            2",
/* colors */
"`` c #040204",
"`. c #94821c",
"`# c #bc0204",
"`a c #444614",
"`b c #d4c22c",
"`c c #84711c",
"`d c #cc8224",
"`e c #1c0694",
"`f c #8c0684",
"`g c #6c6214",
"`h c #242208",
"`i c #aca224",
"`j c #c4ac2c",
"`k c #dc02bc",
"`l c #d41604",
"`m c #444644",
"`n c #64625c",
"`o c #cc4a04",
"`p c #948a64",
"`q c #3c0224",
"`r c #34325c",
"`s c #445204",
"`t c #fce53c",
"`u c #fc2204",
"`v c #542a04",
"`w c #c402dc",
"`x c #fc8206",
"`y c #54068c",
"`z c #a4a3a4",
"`A c #041604",
"`B c #fc0247",
"`C c #fc921c",
"`D c #746e1c",
"`E c #fca43c",
"`F c #94966c",
"`G c #d46a04",
"`H c #c4c2c4",
"`I c #2c3a0c",
"`J c #b4b4b4",
"`K c #f4d634",
"`L c #8402fc",
"`M c #544611",
"`N c #847e60",
"`O c #6c6844",
"`P c #fc0287",
"`Q c #64725c",
"`R c #ec822c",
"`S c #949694",
"`T c #240234",
"`U c #34228c",
"`V c #3c2204",
"`W c #5c5214",
"`X c #a402f7",
"`Y c #a49224",
"`Z c #847a1c",
"`0 c #7c6a1c",
"`1 c #fc021c",
"`2 c #fc02c4",
"`3 c #acaaa7",
"`4 c #fc6604",
"`5 c #2c02c4",
"`6 c #746a1c",
"`7 c #5402fc",
"`8 c #fcb23c",
".` c #5c5a24",
".. c #fc1204",
".# c #040c04",
".a c #fcc434",
".b c #2c2a0d",
".c c #ccb62c",
".d c #fcf53c",
".e c #dc02fc",
".f c #fc0268",
".g c #f402a8",
".h c #9c0274",
".i c #6c6228",
".j c #5c5644",
".k c #3c1604",
".l c #44390c",
".m c #d402cf",
".n c #fc8e0c",
".o c #1c1804",
".p c #544a2c",
".q c #645a14",
".r c #b402ec",
".s c #fc0230",
".t c #ecca30",
".u c #847630",
".v c #746e5c",
".w c #fc4604",
".x c #fc9a38",
".y c #94927f",
".z c #fcdd34",
".A c #544e14",
".B c #7c7660",
".C c #a49e94",
".D c #b4ae9c",
".E c #fc7804",
".F c #8c825c",
".G c #4c4a34",
".H c #4c1684",
".I c #746214",
".J c #d4aa24",
".K c #848284",
".L c #54020c",
".M c #fc3204",
".N c #fc8614",
".O c #7c6e34",
".P c #bcbdbc",
".Q c #fc8a26",
".R c #9c9e9a",
".S c #ac9b24",
".T c #7402fc",
".U c #f4ba34",
".V c #140e04",
".W c #bc0644",
".X c #fcca37",
".Y c #7c7a7c",
".Z c #9c8a24",
".0 c #4c420c",
".1 c #84761a",
".2 c #2c02bc",
".3 c #2c250c",
".4 c #bca324",
".5 c #ec02b2",
".6 c #544e70",
".7 c #646674",
".8 c #fcec3c",
"#` c #fc8609",
"#. c #d49a24",
"## c #4402f4",
"#a c #fc5604",
"#b c #6c028c",
"#c c #d47a24",
"#d c #443e74",
"#e c #541e04",
"#f c #5402bc",
"#g c #5c566c",
"#h c #0c1e04",
"#i c #9402fc",
"#j c #440e34",
"#k c #cc0224",
"#l c #e49234",
"#m c #e4760c",
"#n c #2c0294",
"#o c #342c0c",
"#p c #3c340c",
"#q c #fc02ec",
"#r c #dcbe2c",
"#s c #9c0284",
"#t c #3c367c",
"#u c #847a3c",
"#v c #fcab3c",
"#w c #fc7104",
"#x c #fcfd3c",
"#y c #fc3c04",
"#z c #fc6204",
"#A c #545214",
"#B c #ac0264",
"#C c #6c560c",
"#D c #141304",
"#E c #fc0a0c",
"#F c #8c8a7c",
"#G c #6402fc",
"#H c #a4923c",
"#I c #6c6a74",
"#J c #240a3c",
"#K c #3c2a84",
"#L c #5c0a04",
"#M c #ccb22c",
"#N c #d47214",
"#O c #645e44",
"#P c #443e0c",
"#Q c #241e04",
"#R c #bc02fc",
"#S c #fc9434",
"#T c #9c9a8c",
"#U c #2c0a9c",
"#V c #fc2a04",
"#W c #fc0259",
"#X c #fc029a",
"#Y c #fc1a04",
"#Z c #fc027a",
"#0 c #fc4e04",
"#1 c #fc7e04",
"#2 c #d4b224",
"#3 c #6c02a4",
"#4 c #3c3a0c",
"#5 c #cc02d3",
"#6 c #3402d4",
"#7 c #645a34",
"#8 c #fc02a4",
"a` c #dc02c6",
"a. c #5c2e08",
"a# c #aca6a0",
"aa c #9c9274",
"ab c #bcb6ac",
"ac c #fcd237",
"ad c #9c9680",
"ae c #0c0604",
"af c #8c0294",
"ag c #d44e04",
"ah c #7c6f1c",
"ai c #645514",
"aj c #ac9624",
"ak c #8c7d1c",
"al c #fc0224",
"am c #0c0b04",
"an c #2c2a1c",
"ao c #d4ba2c",
"ap c #fc8a1c",
"aq c #6c5d14",
"ar c #7c7a6c",
"as c #7c7244",
"at c #fc8e34",
"au c #fcbc34",
"av c #bc0254",
"aw c #a48e24",
"ax c #44021c",
"ay c #ac02f4",
"az c #a4026c",
"aA c #bc02e6",
"aB c #4c02fc",
"aC c #b4a224",
"aD c #e402bc",
"aE c #8c02fc",
"aF c #2c0234",
"aG c #746a2c",
"aH c #5c02fc",
"aI c #f402b4",
"aJ c #fc023c",
"aK c #5c4e14",
"aL c #b4aeac",
"aM c #7c02fc",
"aN c #9c02fc",
"aO c #8c8a8c",
"aP c #4c3e0c",
"aQ c #9c9a9c",
"aR c #6c661c",
"aS c #646660",
"aT c #948e6c",
"aU c #544a10",
"aV c #fc0614",
"aW c #acaeaa",
"aX c #fcb634",
"aY c #2c2e0c",
"aZ c #fc9e3c",
"a0 c #746619",
"a1 c #fc8e2c",
"a2 c #fcce34",
"a3 c #7c7e84",
"a4 c #4c460f",
"a5 c #545274",
"a6 c #fcd634",
"a7 c #040604",
"a8 c #94861c",
/* pixels */
"`H`H.P`H`H.P`H`H.P`H`H.P`H`H.P`H`H.P`H`H.P`H`H.P`H`H.P`H`H.P`H`H",
".P`H`H.P`H`H.P`H`H.P`H`H.P`H`H.P`H`H.P`H`H.P`H`H.P`H`H.P`H`H.P`H",
"`H.P`H`H.P`H`H.P`H`H.P`H`J.C#FaT`p`F.R`J`H.P`H`H`H.P`H`H.P`H`H.P",
"`H.P`H`H`H`H`H`H`H`HaWaS.uak.Aa4a4aUakaG.BaW`H.P`H`H`H`H`H`H`H`H",
"`H.P`H`H.P`H.P`H.R.u#P#Qai.qaKaK`M`WaiaU.o#o#u.R.P`H`H.P`H.P`H.P",
"`H.P`H`H`H`H`H#O`hah.q`W`h#D#pa7#p``#o#D`W.1ai#p#O.P`H`H`H`H`H`H",
"`H.P`H`H.PaW`D#P#D```g`0#o`.`W.lah#o`g`c#oai`h``a4.1aW`H.P`H.P`H",
"`H.P`H`HaW#D.q.S.#.3#Q``#Pa0``#Qa0#Q``aU.b``.3#p.qaR.baW`H`H`H`H",
"`H.P`H.P.GaY#o.VaCaj`h``a0#o````.q.V``#o`c#DaU#Maq``#p.`.P`H.P`H",
"`H.P`H.Bah.3``.Vai.o#Pa0.SaP`W.0`Y`g`W#p.4`..o``aK`h``aw`n`H`H`H",
"`H`H`S```6#pa7`W#o````.l`M```````g#o`````h`0````am`6aia4#p`S.P`H",
".P`H.G.q#r`Ka6`b#Mao`jaCaw`.ah.q`c`W#p#paeaR#o.3a4`Yaw``.bas.P`H",
"`H.R#p#x.d`t`t`t`t.8.8.8.8.d.d#x`t.8.8.8.t.1`ZaKaP``ai.3a7.1`z`H",
"`HaSa4.z`t.z.z.z.z.z.z.z.z.z.z.z.z.z`t.8.J#Cah```````haqaia4ar.P",
".P`OaK.t`t.z.z.z.z.z.z.z.z`t.z.z`t.z.z.8.J`V`D#4`````h#ra4```Oa#",
"`z.i#p.U.a.a.a.a.X.Xa2acacaca6.za6.z.z`t#..k#A.1.b`0.Aai#P``.iaT",
"#F.qaU#l#v`E`E#v#v`8`8aXauauauauau.a.aac`da.aR`b`M.o``#D.I#p`War",
".y#P.3`R#S#S#S#S#S#S.x#S.xaZaZ`E`E`E#v`8#ca.``.S#D``````.S`g.#`N",
"ad#4``#m.n`x#`.N.Napap.Q.Q.Qa1a1a1#S#S.x#N`v``.S.A``#o`WakaY.V.F",
"#T`W``ag#w#w.E.E.E#1#1`x`x`x#`.N.N.N.N`C`G#e```Z`Y`g`0am.b.q.b.B",
"a#.``I`##Y`u`u.M#y.w#a#a#z`4#w#w.E.E#1#``o#L`a`Y.4#D````#Q.Zan.Y",
"`H.j`A.W#W`BaJ.salal`1aV#E....`u`u.M#y.w`l.La7#P`.````#D`c.q`m`z",
"`H.R.##B#X`P#Z#Z#Z#Z.f.f#W#W`B`BaJ.s.s`1#kax``.3`.a7.A`W#p.A.C`H",
".P`H`Q.h`2#8#8#X#X#X`P`P`P`P`P`P#Z#Z#Z#Zav`q#h.q`jaK#p``#QaT`H.P",
"`H.PaW`f#q`k`kaDaD.5.5aI.g.g#8#8#X#X#X#Xaz#j`s.qaj````#Daa.P`H`H",
"`H`H`J#b.e`w`w#5#5#5.m.ma`a`a`aDaD.5.5aI.haF```ha8``.3.D.P`H`H.P",
".P`H`J`y#R`Xayayay.raAaAaA`w`w`w#5#5.ma`af`T``#o#H.y`H.P`H`H.P`H",
"`H.P`H.H#i`LaEaE#i#i#iaNaN`X`Xayay.r.r#R#3#J`Fab`H.P`H`H`H`H`H.P",
"`H`H.Pa5`5#6##aBaH#G.TaMaM`LaEaEaE#i#i`X#f`r.P`H.P`H`H.P`H.P`H`H",
".P`H`H`HaL`S.K.7.6#t`U#U.2#6##aBaH#G.TaM#n.Y.P`H`H`H`H`H`H`H`H`H",
"`H.P`H.P`H.P`H.P`H`H.P.P`3`Sa3#Ia5#d`U`e#g`H.P`H.P`H.P`H`H`H.P`H",
"`H.P`H`H`H.P`H`H.P`H`H`H.P`H.P`H.P`H`H`H.P`H.P`H`H`H`H`H.P`H`H.P"
};
