/* XPM */
static char image_name[]={
"32 32 6 2",
"  	c #C2C2C2",
". 	c #212121",
"X 	c #454545",
"o 	c #B8860B",
"O 	c #F2DE0D",
"+ 	c #55562F",
"              . . . . . . . . . . . . . . . . . .               ",
"              . X X X X X X X X o O O O O O O O .               ",
"              . X X X X X X X X o O O O O O O O .               ",
"              . X X X X X X X X o O O O O O O O .               ",
"              . X X X X X X X X o O O O O O O O .               ",
"              . X X X X X X X X o O O O O O O O .               ",
"              . X X X X X X X X o O O O O O O O .               ",
"              . X X X X X X X X o O O O O O O O .               ",
"              . X X X X X X X X + + + + + + + + .               ",
"              . + + + + + + + + X X X X X X X X .               ",
"              . O O O O O O O o X X X X X X X X .               ",
"              . O O O O O O O o X X X X X X X X .               ",
"              . O O O O O O O o X X X X X X X X .               ",
"              . O O O O O O O o X X X X X X X X .               ",
"              . O O O O O O O o X X X X X X X X .               ",
"              . O O O O O O O o X X X X X X X X .               ",
"              . O O O O O O O o X X X X X X X X .               ",
"              . . . . . . . . . . . . . . . . . .               ",
"                                                                ",
"                                                                ",
"                                                                ",
"                                                                ",
"                                                                ",
"                                                                ",
"                                                                ",
"                                                                ",
"                                                                ",
"                                                                ",
"                                                                ",
"                                                                ",
"                                                                ",
"                                                                "
};
