# This file uses centimeters as units for non-parametric coordinates.

v -0.500000 -0.500000 -0.500000
v -0.500000 -0.500000 0.500000
v -0.500000 0.500000 -0.500000
v -0.500000 0.500000 0.500000
v 0.500000 0.500000 -0.500000
v 0.500000 0.500000 0.500000
v 0.500000 -0.500000 -0.500000
v 0.500000 -0.500000 0.500000
vt 0.666724 0.499918
vt 0.333391 0.499918
vt 0.333391 0.999918
vt 0.666724 0.999918
vt 0.666725 0.499913
vt 0.666725 0.999913
vt 1.000059 0.999913
vt 1.000059 0.499913
vt 0.000024 0.999916
vt 0.333357 0.999916
vt 0.333357 0.499916
vt 0.000024 0.499916
vt 0.333347 0.499900
vt 0.333347 -0.000100
vt 0.000014 -0.000100
vt 0.000014 0.499900
vt 1.000060 -0.000096
vt 0.666726 -0.000096
vt 0.666726 0.499904
vt 1.000060 0.499904
vt 0.666724 -0.000099
vt 0.333390 -0.000099
vt 0.333390 0.499901
vt 0.666724 0.499901
vn 1.000000 0.000000 0.000000
vn 1.000000 0.000000 0.000000
vn 1.000000 0.000000 0.000000
vn 1.000000 0.000000 0.000000
vn 0.000000 -1.000000 0.000000
vn 0.000000 -1.000000 0.000000
vn 0.000000 -1.000000 0.000000
vn 0.000000 -1.000000 0.000000
vn -1.000000 0.000000 0.000000
vn -1.000000 0.000000 0.000000
vn -1.000000 0.000000 0.000000
vn -1.000000 0.000000 0.000000
vn 0.000000 1.000000 0.000000
vn 0.000000 1.000000 0.000000
vn 0.000000 1.000000 0.000000
vn 0.000000 1.000000 0.000000
vn 0.000000 0.000000 -1.000000
vn 0.000000 0.000000 -1.000000
vn 0.000000 0.000000 -1.000000
vn 0.000000 0.000000 -1.000000
vn 0.000000 0.000000 1.000000
vn 0.000000 0.000000 1.000000
vn 0.000000 0.000000 1.000000
vn 0.000000 0.000000 1.000000
s off
f 1/1/1 3/4/2 4/3/3 2/2/4
f 3/5/5 5/8/6 6/7/7 4/6/8
f 5/9/9 7/12/10 8/11/11 6/10/12
f 7/13/13 1/16/14 2/15/15 8/14/16
f 2/17/17 4/20/18 6/19/19 8/18/20
f 7/21/21 5/24/22 3/23/23 1/22/24
