/* XPM */
static char colorMaterial_xpm[] = {
/* width height num_colors chars_per_pixel */
"    32    32      256            2",
/* colors */
"`` c #c1c1c1",
"`. c #bdbdbd",
"`# c #8f8f8f",
"`a c #808080",
"`b c #777777",
"`c c #797979",
"`d c #848484",
"`e c #969696",
"`f c #c0c0c0",
"`g c #828282",
"`h c #717171",
"`i c #6c6c6c",
"`j c #6b6b6b",
"`k c #696969",
"`l c #666666",
"`m c #646464",
"`n c #5f5f5f",
"`o c #5c5c5c",
"`p c #5b5b5b",
"`q c #838383",
"`r c #818181",
"`s c #747474",
"`t c #7a7a7a",
"`u c #858585",
"`v c #7f7f7f",
"`w c #787878",
"`x c #6a6a6a",
"`y c #5d5d5d",
"`z c #565656",
"`A c #505050",
"`B c #595959",
"`C c #a6a6a6",
"`D c #999999",
"`E c #9c9c9c",
"`F c #9a9a9a",
"`G c #929292",
"`H c #8b8b8b",
"`I c #5e5e5e",
"`J c #575757",
"`K c #4b4b4b",
"`L c #464646",
"`M c #8c8c8c",
"`N c #9e9e9e",
"`O c #a8a8a8",
"`P c #aeaeae",
"`Q c #b0b0b0",
"`R c #a9a9a9",
"`S c #a2a2a2",
"`T c #8e8e8e",
"`U c #767676",
"`V c #626262",
"`W c #545454",
"`X c #474747",
"`Y c #3b3b3b",
"`Z c #919191",
"`0 c #b1b1b1",
"`1 c #b9b9b9",
"`2 c #bbbbbb",
"`3 c #bcbcbc",
"`4 c #bababa",
"`5 c #b4b4b4",
"`6 c #acacac",
"`7 c #a3a3a3",
"`8 c #989898",
".` c #7d7d7d",
".. c #606060",
".# c #4f4f4f",
".a c #404040",
".b c #323232",
".c c #a5a5a5",
".d c #c2c2c2",
".e c #c4c4c4",
".f c #aaaaaa",
".g c #9d9d9d",
".h c #909090",
".i c #616161",
".j c #5a5a5a",
".k c #535353",
".l c #363636",
".m c #2d2d2d",
".n c #b2b2b2",
".o c #c8c8c8",
".p c #c9c9c9",
".q c #bfbfbf",
".r c #b8b8b8",
".s c #949494",
".t c #878787",
".u c #6d6d6d",
".v c #636363",
".w c #2a2a2a",
".x c #2f2f2f",
".y c #737373",
".z c #a7a7a7",
".A c #b7b7b7",
".B c #cbcbcb",
".C c #cacaca",
".D c #c7c7c7",
".E c #afafaf",
".F c #6e6e6e",
".G c #4d4d4d",
".H c #3f3f3f",
".I c #2e2e2e",
".J c #222222",
".K c #484848",
".L c #757575",
".M c #7c7c7c",
".N c #979797",
".O c #c3c3c3",
".P c #cccccc",
".Q c #868686",
".R c #313131",
".S c #212121",
".T c #272727",
".U c #adadad",
".V c #a1a1a1",
".W c #414141",
".X c #1a1a1a",
".Y c #525252",
".Z c #bebebe",
".0 c #c6c6c6",
".1 c #b5b5b5",
".2 c #686868",
".3 c #555555",
".4 c #4c4c4c",
".5 c #303030",
".6 c #181818",
".7 c #353535",
".8 c #959595",
"#` c #888888",
"#. c #7b7b7b",
"## c #656565",
"#a c #585858",
"#b c #3d3d3d",
"#c c #232323",
"#d c #191919",
"#e c #252525",
"#f c #8a8a8a",
"#g c #9f9f9f",
"#h c #3a3a3a",
"#i c #1f1f1f",
"#j c #898989",
"#k c #ababab",
"#l c #434343",
"#m c #292929",
"#n c #1d1d1d",
"#o c #1b1b1b",
"#p c #707070",
"#q c #939393",
"#r c #a0a0a0",
"#s c #6f6f6f",
"#t c #676767",
"#u c #424242",
"#v c #373737",
"#w c #171717",
"#x c #1c1c1c",
"#y c #727272",
"#z c #454545",
"#A c #3c3c3c",
"#B c #1e1e1e",
"#C c #151515",
"#D c #4e4e4e",
"#E c #3e3e3e",
"#F c #2b2b2b",
"#G c #161616",
"#H c #383838",
"#I c #242424",
"#J c #494949",
"#K c #262626",
"#L c #141414",
"#M c #444444",
"#N c #515151",
"#O c #4a4a4a",
"#P c #393939",
"#Q c #2c2c2c",
"#R c #202020",
"#S c #333333",
"#T c #7e7e7e",
"#U c #282828",
"#V c #000000",
"#W c #000000",
"#X c #000000",
"#Y c #000000",
"#Z c #000000",
"#0 c #000000",
"#1 c #000000",
"#2 c #000000",
"#3 c #000000",
"#4 c #000000",
"#5 c #000000",
"#6 c #000000",
"#7 c #000000",
"#8 c #000000",
"a` c #000000",
"a. c #000000",
"a# c #000000",
"aa c #000000",
"ab c #000000",
"ac c #000000",
"ad c #000000",
"ae c #000000",
"af c #000000",
"ag c #000000",
"ah c #000000",
"ai c #000000",
"aj c #000000",
"ak c #000000",
"al c #000000",
"am c #000000",
"an c #000000",
"ao c #000000",
"ap c #000000",
"aq c #000000",
"ar c #000000",
"as c #000000",
"at c #000000",
"au c #000000",
"av c #000000",
"aw c #000000",
"ax c #000000",
"ay c #000000",
"az c #000000",
"aA c #000000",
"aB c #000000",
"aC c #000000",
"aD c #000000",
"aE c #000000",
"aF c #000000",
"aG c #000000",
"aH c #000000",
"aI c #000000",
"aJ c #000000",
"aK c #000000",
"aL c #000000",
"aM c #000000",
"aN c #000000",
"aO c #000000",
"aP c #000000",
"aQ c #000000",
"aR c #000000",
"aS c #000000",
"aT c #000000",
"aU c #000000",
"aV c #000000",
"aW c #000000",
"aX c #000000",
"aY c #000000",
"aZ c #000000",
"a0 c #000000",
"a1 c #000000",
"a2 c #000000",
"a3 c #000000",
"a4 c #000000",
"a5 c #000000",
"a6 c #000000",
"a7 c #000000",
"a8 c #000000",
/* pixels */
"````````````````````````````````````````````````````````````````",
"`````````````````````````.`#`a`b`c`d`e``````````````````````````",
"```````````````````f`g`h`i`j`k`l`m`n`o`p`l`q````````````````````",
"`````````````````r`s`t`g`u`d`v`w`h`x`m`y`z`A`B`u````````````````",
"`````````````C`b`v`#`D`E`E`F`G`H`g`b`i`m`I`J`K`L`l``````````````",
"```````````M`b`M`N`O`P`Q`P`R`S`D`T`g`U`k`V`o`W`X`Y`B````````````",
"`````````G`U`Z`C`0`1`2`3`4`5`6`7`8`H.``h`l..`B.#.a.b`z``````````",
"```````.`s`M.c`5`..d.e.e`f`2`5.f.g.h`d`U`x.i.j.k`X.l.m`V````````",
"```````b`g`N.n`..e.o.p.o.e.q.r`P`S.s.t`c.u.v`o`z`K`Y.w.x`r``````",
"`````e.y.h.z.A.d.o.B.B.C.D.d`4.E`7`e.t`c.F`m`o`z.G.H.I.J.K``````",
"````.L.M.N`6`4.O.o.B.P.P.o.O`2.E`7.s.Q`c`i.v`o`z.G.a.R.S.T.`````",
"``.q`j`q`E`6`1.d.D.p.B.B.D```1.U.V`G`q`U`x`V`p`z.G.W.R.S.X.Y````",
"``.Q`i`u`E.f.r.Z.O.0.D.o.e.q.1.f`E`T`v.y.2`n.j.3.4.H.5.J.6.7`f``",
"``.L.u`d`8.z`0.r`3`f````.q.r.E`7.8#`#..F##`I#a.k.K#b.5#c#d#e#f``",
"```i`i`v`G#g`R`Q.1.A.r.r`5`P.c`D`M`v`s`x..`o`J`A`L#h.I#i.6.S`t``",
"```k.2`b#j.8#g`C#k.U.U`6`O`S`D`#`q`U`i`m`y`B.k.4#l.l#m#n#d#o.2``",
"``.2`m#p`v`M#q`F.g#r#r`N`D.s`M`g`w.F`l...j`z`A`X#b.b#e#o.6#d`m``",
"```l`n.2`s`v.t`M.h`Z`G`#`M.Q`v`U#s#t.i`o`J.Y.4#u#v.m.S#d#w#x#p``",
"```i`p.v`x.y`c`v`g`q`q`r.``c#y`i`l.i`y#a`W.G#z#A.b.T#B.6#C#c`q``",
"``#.`W`y.v.2.u.y.L`U.L`s`h`i.2`m`n`o#a`W#D`X#E.l#F.J.X#G#G.x.A``",
"```D`A#a`y.i`m#t`k`x`k.2##.v.i`o.j`J.k.G`L.H#H.I#I#x.6#w#C#J````",
"`````B.4`J`p`I`n.i...i..`n`o.j#a.3.Y.G`X.H#H.5#K#n.6#w#L#n#p````",
"`````v#M.4`W#a`p.j`p.j`B#a#a.3.k.#`K#l#E#v.x.T#i#d#w#C#G.l`3````",
"``````.k#E`X#D.Y`W.3.3`W.k#N#D`K`L.a`Y.7.I#K#i.X#w#C#G#i`x``````",
"```````u#E#v.a`L#J`K#O`K#O`X#M.W#A.l.R.w#e#B.6.6#G#G#w`L````````",
"````````#s.7.5.l#h#b#E#E#b`Y#P.7.5#Q#K#R#x#d#w#C#L#G#S.N````````",
"```````````j.I#K#F.m.5.5.5.x#Q.w#e.S#x#d#w#w#G#L#L.5#T``````````",
"````````````.F.R#B#R.S#c#c.S#i#n#x#d.6#G#G#G#C.X`Y`g````````````",
"```````````````q.K#K.X.6#d#d#d.6.6#w#w#C#G#w#U.3.A``````````````",
"```````````````````t`X#m#i.6#w#w#G#C.6#i.R.k.Q``````````````````",
"``````````````````````#q`h`B.K`L`L`K`y`w`3``````````````````````",
"````````````````````````````````````````````````````````````````"
};
