/* XPM */
static char * image_name[]={
"32 32 30 2",
"  	c #C2C2C2",
". 	c #DAAA00",
"X 	c #B8860B",
"o 	c #ADADAD",
"O 	c #BDBDBD",
"+ 	c #55562F",
"@ 	c #6B3939",
"# 	c #1F1F1F",
"$ 	c #B0B0B0",
"% 	c #262626",
"& 	c #121212",
"* 	c #DEB887",
"= 	c #B3B37E",
"- 	c #BC8F8F",
"; 	c #ABABAB",
": 	c #96522D",
"> 	c #8B4513",
", 	c #A6A6A6",
"< 	c #F5DEB3",
"1 	c #BABABA",
"2 	c #9B7071",
"3 	c #666666",
"4 	c #B3B3B3",
"5 	c #6B6B6B",
"6 	c #242424",
"7 	c #0A0A0A",
"8 	c #292929",
"9 	c #A1A1A1",
"0 	c #141414",
"q 	c #1C1C1C",
"                                                                ",
"                        . . X o                                 ",
"                        X . . . . . X O                         ",
"                    X X . . . . . . . . X                       ",
"                o X . . . . . . . . . X +                       ",
"                X . . . . . . . . . @ # $ X                     ",
"              X . . . X % X . . + & o   * = X -                 ",
"              X . . + + ; : + & =         O > X                 ",
"              X . > =     + +               , X X               ",
"              . . +                         < . X               ",
"              X . 1                           . X               ",
"              X .                           X . .               ",
"              + X ;                         X . X               ",
"              = > X             * X X   * X . . X               ",
"                2 X =         X . . X X X . . . +               ",
"                O 3 : o   X . . . . . . . . . > =               ",
"                    o 4 . . . . . . . . . . : 5                 ",
"                      X . . . . . . . . X + + O                 ",
"                      6 7 @ X . . . . X 8 =                     ",
"                        < 9 # 7 0 + X .                         ",
"                                O = q 7                         ",
"                                                                ",
"                                                                ",
"                                                                ",
"                                                                ",
"                                                                ",
"                                                                ",
"                                                                ",
"                                                                ",
"                                                                ",
"                                                                ",
"                                                                "
};
