/* XPM */
static char * image_name[]={
"32 32 67 2",
"  	c #C4C4C4",
". 	c #B5B5B5",
"X 	c #B3B37E",
"o 	c #696969",
"O 	c #757575",
"+ 	c #A8A8A8",
"@ 	c #55562F",
"# 	c #9B7071",
"$ 	c #BDB76B",
"% 	c #91535D",
"& 	c #666666",
"* 	c #636363",
"= 	c #616161",
"- 	c #8B4513",
"; 	c #DAAA00",
": 	c #6B3939",
"> 	c #96522D",
", 	c #292929",
"< 	c #262626",
"1 	c #1F1F1F",
"2 	c #212121",
"3 	c #B8860B",
"4 	c #080808",
"5 	c #2E2E2E",
"6 	c #0A0A0A",
"7 	c #050505",
"8 	c #0F0F0F",
"9 	c #141414",
"0 	c #1A1A1A",
"q 	c #242424",
"w 	c #8E2323",
"e 	c #00562D",
"r 	c #A52A2A",
"t 	c #FF0000",
"y 	c #D11619",
"u 	c #CD853F",
"i 	c #00AF14",
"p 	c #238E23",
"a 	c #030303",
"s 	c #0D0D0D",
"d 	c #121212",
"f 	c #000000",
"g 	c #171717",
"h 	c #1C1C1C",
"j 	c #000001",
"k 	c #B8B8B8",
"l 	c #6B6B6B",
"z 	c #6E6E6E",
"x 	c #ADADAD",
"c 	c #5C5C5C",
"v 	c #F4A460",
"b 	c #F5DEB3",
"n 	c #919191",
"m 	c #949494",
"M 	c #9E9E9E",
"N 	c #B3B3B3",
"B 	c #BABABA",
"V 	c #C2C2C2",
"C 	c #ABABAB",
"Z 	c #999999",
"A 	c #969696",
"S 	c #737373",
"D 	c #BDBDBD",
"F 	c #5E5E5E",
"G 	c #A6A6A6",
"H 	c #8C8C8C",
"J 	c #A1A1A1",
"                                                                ",
"                                                                ",
"                                                                ",
"                                                                ",
"                                                                ",
". X o o o o o o o o o o o o o o o o o o o o o o o o o o o o O + ",
"@ # $ $ $ $ $ $ # % % % & & * * = * * & & % % % $ $ $ $ $ $ # @ ",
"@ $ - @ @ ; @ : > @ , : > < 1 @ @ 1 2 - : < @ 3 : : 3 > @ @ 3 @ ",
"@ $ : 4 5 3 6 4 @ @ 7 8 : 9 6 : @ 7 6 @ 0 4 q > 6 4 > @ 4 0 3 @ ",
"@ $ @ q @ 3 q 1 @ : : : w w w : e e e e e e e e 1 2 > @ q @ 3 @ ",
"@ $ ; 3 3 ; 3 - r t t y w w : e e e e e e e e e @ > u u 3 ; 3 @ ",
"@ 3 : 4 : 3 6 w t w w t y : 1 i e p p p e e e e 9 7 > @ 6 1 > @ ",
"@ > , 7 < > a s : 6 8 t y d 8 e p e e e e e e e 9 a @ @ 7 9 > @ ",
"@ > 3 @ > 3 @ @ @ : y t w : 9 e p e f 6 e e e e d @ 3 > @ > > @ ",
"@ @ > @ - 3 @ @ @ w y t r w g e p e 7 f e p e g s : 3 > @ - > @ ",
"@ @ q a 1 > a 4 : : 7 w t w d e p e 6 f e p e 9 4 a @ : a 8 @ @ ",
"@ @ : 4 < > 4 w t w 6 w t w s e p e d 6 e e e s 4 7 - @ 4 h @ @ ",
"@ @ ; 3 3 ; > @ y t r t t : 2 e e e e e e p e @ - > 3 3 3 3 - @ ",
"@ @ @ d : > 8 s : w w w : 4 s e e p i i p e 1 - 8 8 - @ d q @ @ ",
"@ @ 2 j 0 > j j @ < f a @ a f 0 2 s d e 9 a 9 @ j j @ : j 6 @ @ ",
"@ @ @ : @ 3 : q - @ h 2 @ h g : @ 9 9 @ : h : - 2 q - @ : @ @ @ ",
"@ @ > > > > > > @ @ @ @ @ @ @ @ @ @ @ @ @ @ @ @ @ > @ > > > @ @ ",
"k X l z z $ 3 z z z z z z z z > 3 @ z z z 3 u 3 3 3 3 3 $ l X x ",
"        c v ; &           b @ ; ; ; o   n > 3 3 ; ; 3 3 % m     ",
"        = v 3 o           M > ; 3 ; @ N   n X * ; 3 o X m       ",
"        = v 3 o           z 3 ; @ ; 3 X       = ; ; o           ",
"        = v 3 o         B @ ; > o 3 ; @ V     = ; ; o           ",
"        = v 3 o         m > ; ; 3 ; ; @ C     = ; ; o           ",
"        = v 3 l n n Z   & ; ; 3 3 3 ; 3 X     = ; ; o           ",
"        = v ; > > > > A @ ; > O S O 3 ; @ D   F ; ; &           ",
"        O $ ; ; ; ; 3 = > u @ B   G @ ; @ G   z 3 3 S           ",
"        + @ @ @ @ @ @ A @ @ H       X @ @ V   J @ @ +           "
};
