/* XPM */
static char * image_name[]={
"32 32 2 2",
"  	c #080808",
". 	c #8E2323",
"                                                                ",
"                                                                ",
"                                                                ",
"                                                                ",
"                                                                ",
"                                                                ",
"                                                                ",
"                                                                ",
"                                                                ",
"                                                                ",
"                                                                ",
"  . .       . .                                                 ",
"  . .       . .                                                 ",
"  . .       . .       . .   . .         . .   . .     . . . .   ",
"  . .       . .       . . .   . .     . .   . . .     . .       ",
"  . .       . .       . .     . .     . .     . .     . .       ",
"  . .       . .       . .     . .     . .     . .     . .       ",
"  . .       . .       . .     . .     . .     . .     . .       ",
"  . .       . .       . . .   . .     . .   . . .     . .       ",
"    . . . . .         . .   . .         . .   . .     . .       ",
"                      . .             .       . .               ",
"                      . .               . . . .                 ",
"                                                                ",
"                                                                ",
"                                                                ",
"                                                                ",
"                                                                ",
"                                                                ",
"                                                                ",
"                                                                ",
"                                                                ",
"                                                                "
};
