/* XPM */
static char render_starglobe_xpm[] = {
/* width height num_colors chars_per_pixel */
"    32    32      256            2",
/* colors */
"`` c #040204",
"`. c #7c7e7c",
"`# c #3c4244",
"`a c #1c2224",
"`b c #7c525c",
"`c c #5c5e5c",
"`d c #0c121c",
"`e c #bcbabc",
"`f c #3c262c",
"`g c #5c4244",
"`h c #9c9e9c",
"`i c #2c2e3c",
"`j c #241a2c",
"`k c #040a04",
"`l c #4c4e4c",
"`m c #6c6e6c",
"`n c #949294",
"`o c #2c2a2c",
"`p c #141a24",
"`q c #7c6e64",
"`r c #6c5e44",
"`s c #4c424c",
"`t c #3c363c",
"`u c #140e14",
"`v c #5c564c",
"`w c #9c7e5c",
"`x c #c4a684",
"`y c #040a1c",
"`z c #ac7244",
"`A c #847664",
"`B c #543e2c",
"`C c #242a34",
"`D c #acaeac",
"`E c #6c5654",
"`F c #1c2234",
"`G c #1c1224",
"`H c #4c4a54",
"`I c #3c3e3c",
"`J c #f4f2d4",
"`K c #646664",
"`L c #aca294",
"`M c #0c0a04",
"`N c #1c1a2c",
"`O c #6c626c",
"`P c #645e64",
"`Q c #141214",
"`R c #34363c",
"`S c #2c2634",
"`T c #4c4a44",
"`U c #5c5a5c",
"`V c #94827c",
"`W c #8c7664",
"`X c #0c060c",
"`Y c #848684",
"`Z c #242224",
"`0 c #e4d6c4",
"`1 c #443a44",
"`2 c #7c7674",
"`3 c #141224",
"`4 c #040614",
"`5 c #444244",
"`6 c #dcc29c",
"`7 c #342e2c",
"`8 c #2c1a1c",
".` c #545654",
".. c #a4968c",
".# c #1c1a1c",
".a c #8c6e5c",
".b c #3c364c",
".c c #0c0a1c",
".d c #0c0a14",
".e c #6c6a6c",
".f c #040604",
".g c #7c5e54",
".h c #645e5c",
".i c #ccc2bc",
".j c #a4a6a4",
".k c #544e4c",
".l c #7c7264",
".m c #64524c",
".n c #9c8664",
".o c #6c5a5c",
".p c #242234",
".q c #3c3e54",
".r c #acaaac",
".s c #141614",
".t c #342a34",
".u c #544a3c",
".v c #242624",
".w c #847a7c",
".x c #444644",
".y c #34323c",
".z c #1c1e1c",
".A c #847e84",
".B c #c4c2c4",
".C c #3c2e3c",
".D c #5c4e54",
".E c #a4a294",
".F c #040a14",
".G c #747674",
".H c #9c9a9c",
".I c #34262c",
".J c #746654",
".K c #54463c",
".L c #3c3a3c",
".M c #b4b6b4",
".N c #1c161c",
".O c #544a54",
".P c #fceecc",
".Q c #b49e8c",
".R c #0c0e0c",
".S c #1c1e2c",
".T c #74665c",
".U c #646264",
".V c #2c2a34",
".W c #645a54",
".X c #a4867c",
".Y c #8c8684",
".Z c #7c7a7c",
".0 c #343234",
".1 c #2c1e1c",
".2 c #0c0e1c",
".3 c #7c6654",
".4 c #646254",
".5 c #242634",
".6 c #04020c",
".7 c #1c222c",
".8 c #bcbebc",
"#` c #6c4644",
"#. c #9c8a84",
"## c #7c666c",
"#a c #747274",
"#b c #ccaa8c",
"#c c #b4b2b4",
"#d c #64565c",
"#e c #a47e54",
"#f c #74564c",
"#g c #443e44",
"#h c #443e4c",
"#i c #6c5e54",
"#j c #140e24",
"#k c #543e3c",
"#l c #746a6c",
"#m c #544a4c",
"#n c #a4a2a4",
"#o c #54464c",
"#p c #74666c",
"#q c #241e24",
"#r c #040e24",
"#s c #847a6c",
"#t c #a49a94",
"#u c #545254",
"#v c #9c8a6c",
"#w c #3c3234",
"#x c #342a24",
"#y c #8c8a8c",
"#z c #949694",
"#A c #141624",
"#B c #3c3a4c",
"#C c #0c0e14",
"#D c #848284",
"#E c #fcf2cc",
"#F c #b4a28c",
"#G c #040a0c",
"#H c #4c4e54",
"#I c #7c6e6c",
"#J c #5c5654",
"#K c #4c4a5c",
"#L c #0c0a0c",
"#M c #14121c",
"#N c #343644",
"#O c #4c4a4c",
"#P c #24222c",
"#Q c #7c767c",
"#R c #44424c",
"#S c #342e34",
"#T c #1c1a24",
"#U c #04060c",
"#V c #7c726c",
"#W c #6c5a64",
"#X c #14161c",
"#Y c #24262c",
"#Z c #44464c",
"#0 c #1c1e24",
"#1 c #3c3a44",
"#2 c #1c1624",
"#3 c #1c1e34",
"#4 c #64626c",
"#5 c #2c2a3c",
"#6 c #645a5c",
"#7 c #2c1e24",
"#8 c #0c0e24",
"a` c #64625c",
"a. c #24263c",
"a# c #000000",
"aa c #000000",
"ab c #000000",
"ac c #000000",
"ad c #000000",
"ae c #000000",
"af c #000000",
"ag c #000000",
"ah c #000000",
"ai c #000000",
"aj c #000000",
"ak c #000000",
"al c #000000",
"am c #000000",
"an c #000000",
"ao c #000000",
"ap c #000000",
"aq c #000000",
"ar c #000000",
"as c #000000",
"at c #000000",
"au c #000000",
"av c #000000",
"aw c #000000",
"ax c #000000",
"ay c #000000",
"az c #000000",
"aA c #000000",
"aB c #000000",
"aC c #000000",
"aD c #000000",
"aE c #000000",
"aF c #000000",
"aG c #000000",
"aH c #000000",
"aI c #000000",
"aJ c #000000",
"aK c #000000",
"aL c #000000",
"aM c #000000",
"aN c #000000",
"aO c #000000",
"aP c #000000",
"aQ c #000000",
"aR c #000000",
"aS c #000000",
"aT c #000000",
"aU c #000000",
"aV c #000000",
"aW c #000000",
"aX c #000000",
"aY c #000000",
"aZ c #000000",
"a0 c #000000",
"a1 c #000000",
"a2 c #000000",
"a3 c #000000",
"a4 c #000000",
"a5 c #000000",
"a6 c #000000",
"a7 c #000000",
"a8 c #000000",
/* pixels */
".B.B.8.B.B.8.B.B.8.B.B.8`h.Z`c#u`l`U.Z.H.8.B.B.8.B.B.8.B.B.8.B.B",
".8.B.B.8.B.B.8.B.B.j`c`o.f.f.f.f`````````Z`U.j.B.8.B.B.8.B.B.8.B",
".B.8.B.B.8.B.B.M`l#C`M.f#L`X.f#L``````````.f.f.x.M.8.B.B.8.B.B.8",
".B.8.B.8.B.8#y`a`Q#C.d#U.R#L.6`k.f``````````.f``.R#D.8.B.B.8.B.B",
".B.8.B.B.B`m.5`N#X.s#M.d`4#L#L#U``````.f`````````````K.8.B.B.8.B",
".B.B.8.B.G.q#N.y.5#3#X.d.d#C#L#L.f`````````````````````K.8.B.8.B",
".8.B.B`n`Y`Y#l#u#N`N#0#A#M`Q#G`X.R#U``.f`k```````````````Y.B.B.8",
".B.8.8.k.l.4#s`A#i.L.7#2.7#2#M.F`X.f``.f.f````````````````.M.B.B",
".B.B.`.I.R.1`8`o`r`W#w.7`i.5`a`Q#C#L``````````````.f.f`````I.8.B",
".8`D.u.z.t.g.K```Q`B.n`L.5.V`i`a#M#L.f``````````.f``````````.j.B",
".B`K`#.v#1#S.W#o.6``#i#v.3`q.O#P#0#C.f```````````````````````l.B",
".B.0.p#P#0#M#Y#R.V#8`4.d`V`6`x.W`C#X#L`k````````````````````.R.8",
"`h#T#8#M`d`Q.2.S`R`N.2#P.3.X#E`J`O`p`u#G``````````````````````#z",
".Z`Q#L#L.f#L.d.c#A#3`4.q#b`z.a#E`0.b`d.R`M````````````````````.e",
"`U#G#G`X`k#L#U#U.c#8#A#3`P`w#e#f#F.Aa..s#L.f``````````````````#u",
"`l.R`X.f```````k#L.d.2`G#r#O.Q`E`s#V#K#A#C````````````````````#O",
"#u.f.f```````````k`X.2`j`p#q.p`S`1#I.Y`F#X.f```````````````````l",
"`U````````````````#U.R#G`N.S`p.7#N.U.E#4#q#C.f`````Q.s````````#u",
".G``````````````````.f.f#U.F#C#0#g#J`v`2#N`Q.f````.R`Q`````````K",
"`h``````````````````````````#L#G.s.y.h..#O#G.f`````````````````n",
".B.s````````````````````````````#L`p#g#.#p#j#U`M#U`Q````````.R`e",
".B.```````````````````.f``````````#C#T#Q#t#S`d#G#X`S.f``````#O.8",
".B.r``````````````````````````````.R`3.q.i#a#A`Q`u#L`````````h.B",
".8.B`#`````````````````````````````k#C#X#6.w.0.z`u#U``````.0.8.B",
".B.8`e``````````````````````````````#U#P`i.m#`#q#X#L```````D.B.B",
".B.B.8`Y``````````````````````````.f#L#0.t.K`b.I`u#G````.Z.B.8.B",
".8.B.B.B`K````````.f``````````````.f#L#X.t.D`B.I#2`u#L.`.B.8.B.8",
".B.8.B.8.B`c````````````````````````.f.R`t#p`E.C#0`Q`U.8.B.B.B.B",
".B.8.B.8.B.B`.`k```````````````````k#U#M#S#W##`5.7.G.B.B.8.B.8.B",
".B.8.B.B.8.B.B`D`5`````````````````M#U#X.L#d`s#Z.r.B.8.B.B.B.B.8",
".B.B.8.B.B.8.B.8.B`h`l.#````````.f#L.f`Q`I`U#z.B.B.8.B.8.B.8.B.B",
".8.B.B.B.B.B.B.8.B.8.B.8`n`m.``l.k.`#a#y`e.B.B.8.B.B.8.B.B.B.B.8"
};
