/* XPM */
static char render_domeAFL_WxH_xpm[] = {
/* width height num_colors chars_per_pixel */
"    32    32      256            2",
/* colors */
"`` c #c1c1c1",
"`. c #896d0a",
"`# c #d3a60f",
"`a c #695d2f",
"`b c #020202",
"`c c #6b5508",
"`d c #060606",
"`e c #695408",
"`f c #000001",
"`g c #040404",
"`h c #080808",
"`i c #0d0d0d",
"`j c #7f7653",
"`k c #000002",
"`l c #0a0a0a",
"`m c #3f3f3f",
"`n c #131002",
"`o c #695308",
"`p c #131313",
"`q c #323232",
"`r c #1e1e1e",
"`s c #816709",
"`t c #b6900d",
"`u c #7a6108",
"`v c #99937e",
"`w c #604d07",
"`x c #3a3a3a",
"`y c #f1bd12",
"`z c #514207",
"`A c #4e4006",
"`B c #554506",
"`C c #e2b211",
"`D c #ddae10",
"`E c #ca9f0f",
"`F c #fcc616",
"`G c #7d7451",
"`H c #141003",
"`I c #665823",
"`J c #000000",
"`K c #5a4907",
"`L c #aeaba1",
"`M c #404040",
"`N c #252525",
"`O c #1c1c1c",
"`P c #645827",
"`Q c #111111",
"`R c #010104",
"`S c #c69c0f",
"`T c #b1afa7",
"`U c #b2b0a8",
"`V c #a29e8d",
"`W c #928c73",
"`X c #837b5b",
"`Y c #766c44",
"`Z c #776e47",
"`0 c #2a271a",
"`1 c #e9b50c",
"`2 c #d9ab0f",
"`3 c #a27e08",
"`4 c #edba11",
"`5 c #e7b511",
"`6 c #aca99e",
"`7 c #8e886e",
"`8 c #746a41",
".` c #a7a395",
".. c #594909",
".# c #d1a50f",
".a c #b68f0d",
".b c #6c6135",
".c c #2f2706",
".d c #7e7552",
".e c #141414",
".f c #53450b",
".g c #99780b",
".h c #796f49",
".i c #221e10",
".j c #64551c",
".k c #171717",
".l c #2a230a",
".m c #191919",
".n c #9e7d0b",
".o c #c09d25",
".p c #997d1b",
".q c #eebd1d",
".r c #524309",
".s c #514208",
".t c #353535",
".u c #363636",
".v c #bdbcba",
".w c #665a2a",
".x c #b9910a",
".y c #c1c0c0",
".z c #9a7a0b",
".A c #3c3413",
".B c #31312f",
".C c #745c09",
".D c #866a0a",
".E c #27220e",
".F c #92740b",
".G c #bfbfbe",
".H c #424242",
".I c #e5b611",
".J c #534306",
".K c #5f4c07",
".L c #6e5808",
".M c #775f09",
".N c #7d6409",
".O c #675a25",
".P c #090a0c",
".Q c #a2810c",
".R c #433605",
".S c #665208",
".T c #a8850c",
".U c #3b3005",
".V c #010308",
".W c #b9b8b5",
".X c #352b05",
".Y c #2d2d2d",
".Z c #bbbab7",
".0 c #5f552a",
".1 c #161304",
".2 c #876d09",
".3 c #eabb1c",
".4 c #826a13",
".5 c #91720b",
".6 c #aa860d",
".7 c #a0821a",
".8 c #8f720a",
"#` c #ab870d",
"#. c #262315",
"## c #212121",
"#a c #c6a32b",
"#b c #6b6033",
"#c c #a6840b",
"#d c #d6a810",
"#e c #51451a",
"#f c #9d9986",
"#g c #e5b411",
"#h c #40381a",
"#i c #463a0a",
"#j c #6b5f32",
"#k c #7b6302",
"#l c #967709",
"#m c #a2800a",
"#n c #a6830a",
"#o c #b38d0d",
"#p c #130f01",
"#q c #313237",
"#r c #bab9b5",
"#s c #807755",
"#t c #71673d",
"#u c #857d5e",
"#v c #877f61",
"#w c #2b2a26",
"#x c #272007",
"#y c #948e77",
"#z c #97917a",
"#A c #3a3520",
"#B c #a4a091",
"#C c #928c74",
"#D c #0e0e0e",
"#E c #b5b3ac",
"#F c #dbac10",
"#G c #493c07",
"#H c #edb90c",
"#I c #17181d",
"#J c #827a59",
"#K c #090a0f",
"#L c #7f7754",
"#M c #121215",
"#N c #bcbbb9",
"#O c #cea20d",
"#P c #deae0d",
"#Q c #ac8609",
"#R c #cc9f0d",
"#S c #040407",
"#T c #f7c00d",
"#U c #d7a90f",
"#V c #d9aa0b",
"#W c #dcac0b",
"#X c #f4be0c",
"#Y c #5b4603",
"#Z c #d8a910",
"#0 c #574708",
"#1 c #d2a50f",
"#2 c #898164",
"#3 c #d0a30f",
"#4 c #be960e",
"#5 c #827958",
"#6 c #3f3a27",
"#7 c #b08b0d",
"#8 c #a5820c",
"a` c #7b714c",
"a. c #98770b",
"a# c #8d6f0a",
"aa c #6c5508",
"ab c #6c6033",
"ac c #1c180a",
"ad c #e4b311",
"ae c #5c4e17",
"af c #e0af11",
"ag c #5e501c",
"ah c #2b281c",
"ai c #454232",
"aj c #b89723",
"ak c #bb930e",
"al c #af8a0d",
"am c #5b4e18",
"an c #ac8c1b",
"ao c #8d7316",
"ap c #171406",
"aq c #8b6d0b",
"ar c #7e630a",
"as c #181506",
"at c #f0bd18",
"au c #9d7d12",
"av c #55460c",
"aw c #715c0f",
"ax c #52430a",
"ay c #e1b525",
"az c #3f3b2e",
"aA c #b5b4ae",
"aB c #62500b",
"aC c #bab9b6",
"aD c #604d09",
"aE c #b9b7b3",
"aF c #584708",
"aG c #594807",
"aH c #554919",
"aI c #bb940e",
"aJ c #514106",
"aK c #1a170a",
"aL c #896e0a",
"aM c #c39a0e",
"aN c #393939",
"aO c #c49b0e",
"aP c #564506",
"aQ c #3e3f42",
"aR c #313131",
"aS c #574606",
"aT c #36373a",
"aU c #96780a",
"aV c #232427",
"aW c #212225",
"aX c #6b5607",
"aY c #896d09",
"aZ c #8b6f06",
"a0 c #030407",
"a1 c #524000",
"a2 c #878062",
"a3 c #736941",
"a4 c #817957",
"a5 c #8c856a",
"a6 c #ffffff",
"a7 c #a9850b",
"a8 c #d3a510",
/* pixels */
"````````````````````````````````````````````````````````````````",
"````````````````````````````````````````````````````````````````",
"````````````````````````````````````````````````````````````````",
"````````````````````````````````````````````````````````````````",
"````````````````````````````````````````````````````````````````",
"````````````````````````````````.y``````````````````````````````",
"```````````````````````L`Wa`#b`P`z#j.h`7`6``````````````````````",
"````````````````.G`v.b#i.A#A#h#e#e#h#A.A#i`a#y.v````````````````",
"``````````````#z`A.X#..B`x#q`A#k#k.J#q`x`q#..c`A#C``````````````",
"``````````aE#L.U`0`m`m`q`N#Iax.2.2..#I`NaR`m`Mah.U`j`T``````````",
"`````````6.d.c.t`M.Y`r.m`p#KaFaU#l`w#K`p.m`r.Y`M`x.l`A#B````````",
"```````T.d.l`m.u##.k`Q`i`l.V`w#c#n`e.V`l`i`Q.k##.u.H.E`A.```````",
"```````j.l`m`q`r.e#D`l`h`d`R`e`t`t.C`R`d`h`l#D.e`O.B.H.E.h.v````",
"````#v.XaN`q`O`p`i`h`d`d`g`k.C`S`Sar`k`g`g`d`h`i`p`O`q`m.c#J````",
"```L#G#w`x`r`p`i`h`d`g`g`b`f`u#d#d.D`f`b`g`g`d`h`i`p`r`x.B.R`V``",
"``#L#x`M`N.k`i`h`d`g`b`b`b`f`sad`C.5`f`b`b`b`g`d`h`i.e`N.H.E`8``",
"#E#G#w.u`O`Q`l`d`g`b`b`b`f`Jaq`y`ya.`J`f`b`b`b`g`d`l`Q.m.t.t.R`6",
"`7.AaTaV#M.P#S`R`k`k`k`f`f`J.5`F`F#m`J`f`f`f`k`k`Ra0.P#MaWaQ#x`X",
".b#6az`0.iaKap.1`H`H`n`n`n#pa#.I.I.g#p`n`n`n`H`H.1asac.i`0ai.i.s",
"ag.jaZ`.`.`.`.`.`.`.`.`.`.`.`.aL`.`.`.`.`.`.`.`.`.`.`.`.aY.8a1aH",
".b#Q`2`#`#`#`#`#`#`#`#`#`#`#`#.#.##1`#`#`#`#`#`#`#`#`#`#`#`2`3.0",
"ab`w`c`o`e`e`e`e`o`e`e`c`c`c`c`c`c`c`c`c`c`c`c`e`e`e`o`o`oaa#Y.0",
".j.7aX`a`a`u.z`B`a`z.g`o`a`a`a`a`a`a`a`a`a`a`a.N.g.J`a`a`a.Mauae",
".fay.x`Z`P`#`F`u#B.L`y.N`V#f#t`X`U```v#b`v```8#4`y`KaC``#5.T`F.O",
"`Gan#Vam`w#U`2.na2.F`C`K#r`K.a.Q`j`j.DaI.S`U`Y`t#gaJ`G`G`G.n.q`P",
"#f.4`1`w`s#O.T`S`aak`S`a```W.8`4.D.S`5.Q`z.y`Z#o`4#`#`.6.6#R.3`I",
"#EaD`1`s#8.a.Maf.K#F.z#2``.y`j#c`C#3.a`8`T```Z#o`y`E`E`E`E#P.3`I",
"```P#O#7aO.FaP`D.F`5.C.``````L`B`C`4.K`V`````Y`t#g`B.w.w.w.n.q`I",
"``#u`3`D#F.L#jaM.##ZaS#N`````j.z`D`Dal.h.Z```Y`t`5aG.Z```X#m.q`I",
"```V`u#X#W`B#u`3#T.x#t`````v`s`1`s`u#H#la5``a3.x#H`K#r``a4#nat.O",
"``.W...o.7#s.`aw#a.4`v``.W..aj.p`j.d.p.oaB`U`X.p.o#0#N```7ao#a.j",
"````#y.s#s`L```W`z`W````.G.rav#J`TaA#v.f.f.G`U.s.r#z````.v`z.r#C"
};
