/* XPM */
static char render_magicDome_xpm[] = {
/* width height num_colors chars_per_pixel */
"    32    32      256            2",
/* colors */
"`` c #040205",
"`. c #9c8214",
"`# c #4c4223",
"`a c #ccc28c",
"`b c #84837c",
"`c c #746434",
"`d c #aca274",
"`e c #ac9e3c",
"`f c #242219",
"`g c #64625b",
"`h c #644e14",
"`i c #ac8f1c",
"`j c #5c5233",
"`k c #c4b279",
"`l c #343223",
"`m c #94927a",
"`n c #7c7259",
"`o c #a4a4a4",
"`p c #94824a",
"`q c #9c9244",
"`r c #444241",
"`s c #8c762c",
"`t c #bcae74",
"`u c #a49e64",
"`v c #9496a4",
"`w c #0c1218",
"`x c #747676",
"`y c #7c724c",
"`z c #443a18",
"`A c #242525",
"`B c #a49776",
"`C c #9c884e",
"`D c #dce2e4",
"`E c #ac9448",
"`F c #bca858",
"`G c #645a3c",
"`H c #545352",
"`I c #6c6343",
"`J c #a4a39b",
"`K c #847758",
"`L c #544614",
"`M c #6c6a64",
"`N c #343534",
"`O c #84868c",
"`P c #4c4a42",
"`Q c #1c1913",
"`R c #8c8460",
"`S c #b49614",
"`T c #ccd2d4",
"`U c #9c9a90",
"`V c #b4b6b4",
"`W c #aca664",
"`X c #746a48",
"`Y c #342a04",
"`Z c #2c2b2b",
"`0 c #5c5a52",
"`1 c #040a10",
"`2 c #8c8b82",
"`3 c #6c5a1c",
"`4 c #acae94",
"`5 c #b4a151",
"`6 c #a49d8f",
"`7 c #b4aa8c",
"`8 c #646467",
".` c #c4bd91",
".. c #3c3a2b",
".# c #949491",
".a c #94926c",
".b c #ecf2f4",
".c c #acaa90",
".d c #1c1e27",
".e c #948d61",
".f c #bc9e29",
".g c #7c7a6c",
".h c #847e74",
".i c #9c8e52",
".j c #8c7e56",
".k c #54492d",
".l c #bc9818",
".m c #bcb18e",
".n c #4c4a34",
".o c #c4c2c4",
".p c #3c3420",
".q c #74736a",
".r c #44464d",
".s c #7c7e80",
".t c #443d30",
".u c #a49e7f",
".v c #645e44",
".w c #746641",
".x c #4c4a4f",
".y c #1c1e14",
".z c #a49238",
".A c #444234",
".B c #acaa7c",
".C c #5c5a44",
".D c #a4aab4",
".E c #847a4c",
".F c #ac9860",
".G c #c4b068",
".H c #5c554c",
".I c #aca591",
".J c #6c6c70",
".K c #3c3c3b",
".L c #2c2c38",
".M c #0c0b09",
".N c #948c79",
".O c #b4a166",
".P c #544e34",
".Q c #2c2a1c",
".R c #545244",
".S c #4c4642",
".T c #8c7941",
".U c #141415",
".V c #847442",
".W c #94865f",
".X c #ac9934",
".Y c #b4b6bc",
".Z c #342c1a",
".0 c #745e24",
".1 c #6c6666",
".2 c #a4945e",
".3 c #a48a1c",
".4 c #7c6c34",
".5 c #b4a474",
".6 c #2c251b",
".7 c #645614",
".8 c #ac9230",
"#` c #c4ba7c",
"#. c #e4dec4",
"## c #e4eae8",
"#a c #f4fafc",
"#b c #9c7e14",
"#c c #c4ccd0",
"#d c #948e8c",
"#e c #b4aea4",
"#f c #9c9e9d",
"#g c #bc9e3c",
"#h c #d4be7c",
"#i c #d4ca9c",
"#j c #a49a4c",
"#k c #ac9a54",
"#l c #8c8e98",
"#m c #947e4c",
"#n c #b4becc",
"#o c #bcaa68",
"#p c #645a32",
"#q c #dcdadc",
"#r c #9c8e61",
"#s c #847e68",
"#t c #645e51",
"#u c #64562c",
"#v c #847a68",
"#w c #5c5d5f",
"#x c #7c6224",
"#y c #b49e30",
"#z c #9c9583",
"#A c #4c3e24",
"#B c #2c2624",
"#C c #746c55",
"#D c #bcbaa4",
"#E c #7c6d3d",
"#F c #ccbe8c",
"#G c #acadab",
"#H c #bcb691",
"#I c #9c9eb4",
"#J c #a49244",
"#K c #c49e1f",
"#L c #ac9e78",
"#M c #bcbebc",
"#N c #a4841a",
"#O c #8c8676",
"#P c #6c6659",
"#Q c #aca15f",
"#R c #9c9a9c",
"#S c #7c7979",
"#T c #e4e6ec",
"#U c #544e41",
"#V c #b4aa5c",
"#W c #342e25",
"#X c #b4b197",
"#Y c #9c968c",
"#Z c #5c4a2c",
"#0 c #7c7468",
"#1 c #544e4e",
"#2 c #4c442f",
"#3 c #746e6c",
"#4 c #5c563f",
"#5 c #b49a32",
"#6 c #3c2e14",
"#7 c #eceeec",
"#8 c #cccecc",
"a` c #6c5e31",
"a. c #040614",
"a# c #d4c68c",
"aa c #645224",
"ab c #b4921c",
"ac c #949684",
"ad c #948454",
"ae c #bcb284",
"af c #443e24",
"ag c #242634",
"ah c #9c8a5c",
"ai c #ac9654",
"aj c #645a4c",
"ak c #54545c",
"al c #6c634c",
"am c #544a24",
"an c #3c3634",
"ao c #8c8a8c",
"ap c #1c191c",
"aq c #8c826c",
"ar c #b49e5c",
"as c #c4ba9c",
"at c #f4f5f4",
"au c #948e6c",
"av c #bc9a24",
"aw c #3c362c",
"ax c #443e3c",
"ay c #aca69c",
"az c #3c3e44",
"aA c #0c0d14",
"aB c #948e84",
"aC c #8c7a4c",
"aD c #141624",
"aE c #84764c",
"aF c #bcbabc",
"aG c #a4966c",
"aH c #b4a684",
"aI c #fcfefc",
"aJ c #b4a23c",
"aK c #d4d2d8",
"aL c #a48e4c",
"aM c #6c5e40",
"aN c #241e17",
"aO c #5c4e2f",
"aP c #6c561c",
"aQ c #c4aa64",
"aR c #aca284",
"aS c #c4b284",
"aT c #34322c",
"aU c #b49624",
"aV c #9c926c",
"aW c #acaa9c",
"aX c #7c7e8c",
"aY c #74664c",
"aZ c #b4aa7c",
"a0 c #94866c",
"a1 c #b49a54",
"a2 c #ccbe9c",
"a3 c #a49254",
"a4 c #040604",
"a5 c #5c5634",
"a6 c #7c765c",
"a7 c #94864c",
"a8 c #444641",
/* pixels */
".o.o#M.o.o#M.o.o#M.o#G`m`u#V#o`F#o`FaJ#jaV.D.o.o#M.o.o#M.o.o#M.o",
"#M.o.o#M.o.o#M.o#f`m#Has`JaB.h`x#3`8#P`n`C.8.e`U.o#M.o.o#M.o.o#M",
".o#M.o.o#M.o`V`m#.##.Y#I#l`O.s#S.q.1`g#1.r.x#E#5.e`V#M.o.o#M.o.o",
".o#M.o#M.o`J`4aIaI.b`T.D#R.#ao`b.h.q.J`8#w#1azax`s#5`U#M.o.o#M.o",
".o#M.o.o#f.`.b.baIatat.Y#f.##l`2`b#S#3.1`g.H.H.S.L#Uavac.o#M.o#M",
".o.o#MaW#`.o#c#T###7at#q#f`6#z#z.N#O#s.q#P#t`0#1`r.L.t.f#f.o.o.o",
"#M.o`V`W#e`v.Y`T#q`D#Tat.o`J`6`U`U.N#O#s#0#C#t.R#U..ag`#aU#G#M.o",
".o#Mau.maX#l#f.Y#caK`D#8`Uay.c.I.u#zauaq#va6#P.H`P.San.da``q.o#M",
".o`J.G.s.s`2#l#faFaF#d`x#S.##D#XaH.u`B.N.Wa6`naM#U`r.t`Z`A#N`4.o",
".o.e`B.J`b#OaB`U`U#w.x.J`x#S.cas.m.I.uaG#r#v`nal`G.S.A..`A`L.X.o",
"aW.O.1.J#S`baB`U`6`ga8`H`8.J#Sa2.`.maR#LaV.W.E#C.v#4#2..`Zap`.#e",
".N.2`H`M.q.h`2#z.I`6`raz#1`8`8#z#iaSae.5aVah.j`yal`G`r.t#WaD`3#Q",
"`q`Kak`8#3.g#O`m.u#H#v.L.K`H`g`8.m`aaS.5.F#rad`y`I`G#2..aTaN.p.X",
"aJ#t`H`g#P#0#O.N`B.I#H`P`A.K#1#w.qa#`k`t.O#rad.E`I`G#Uawaw`A`f`i",
"#g.x#1`0#P.q#sa0aVaR.m#L`A`A.K`HakaG#h#o.Fa3.jaC.w`G.k.t#W#BaD#N",
"#g.S#U.H`g`n`Ka0aV.u.5#F#C.U`Zax`H`0#o#oar.2a7aE.w`G.P.t`l.Q.U#b",
"#gax`P`H#t#Ca6`R#raG.O`t`kaT.U`Z`r.x`MaQ#ka3`p.V`X#uaO.t`l`Z`Q#b",
"#5...K`P#Ual#C`KadahaG.O`kahaA.U.L.r.x.ja1`C.T.VaM`j#2.p#WaN.U#b",
"#5.t`N`r`P#4al`X.j.W#r#Qar.GaO``apaT.r`HaLa7.V#E#paO#2`l#W.y`Q`i",
"#J`j#B.K#2#U.val`y.j`C.i.Far#k`Q`1.y.K.r.v`p.V`c`j.kaf#W.Qap.6#5",
".e`s.dan.K#2#4aM`X.VaCad`C`Ear#E``aA`A`r.r`I.4a`aO#2.p.Q.6`1`h#Q",
"`o.8`A`Zaw.t#U#p`G`I`y.V#m`pa7`E.p``.U`Z`r`P#paOam`#`l.6aN`1#b`4",
".o`qaaapaw...t.k`j`G`I#E.V.V.V.T#E.M```Q`N`r.Sam#A.p.Z.Q`w#6#5#M",
".o#YaU`A`A#WaT.t#2`j`ja``c`c.4.4.V`#``a.`A.Ka8#2`l.Q.6aN.M#b.B#M",
"#M.o.i.0`w.6#W#W.p#2amaO.P`j#ua`a`#u`Q``aA`Z`r`r.Z.6aNa.`L.z#M.o",
".o#M#G.f`z`w`f.Z`Z.p#A`#amam.k#Zamam#Aa4``ap`N.r`N.y`1`f.l`J.o.o",
".o.o.oac#K.ZaA`f.Q.Z`l`l.paf#A`#`##AafaN```1`A`ra8aD`Q.l.N.o#M.o",
"#M.o#M.o`m#K.pa.`Q.Q.6.Q.Z.Z.Z.p`l.Z.Z.Q.M``.U`Zaz#2`S.e#M.o.o#M",
".o#M.o.o#Mac.faPaAaA`QaN`f.6`A.Q.6.6`f.6`Q`````wa`#K.N.o.o#M.o.o",
".o.o#M.o.o.o`J.z`i`zaAa.aA.U`QaN.y`Q.U.Ma.```Y#b.8#f.o#M.o#M.o#M",
"#M.o.o#M.o#M.o.o`m.8#N`3#6`Q.MaA.MaA.U`Y.7`..8`m#M.o#M.o.o#M.o.o",
".o#M.o#M.o.o#M.o#M.o#f.eaU`i.3#N`.#Nab.8.i.##M.o#M.o.o#M.o.o.o#M"
};
