# This file uses centimeters as units for non-parametric coordinates.

g default
v -0.500000 -0.500000 -0.500000
v -0.500000 -0.500000 0.500000
v -0.500000 0.500000 -0.500000
v -0.500000 0.500000 0.500000
v 0.500000 0.500000 -0.500000
v 0.500000 0.500000 0.500000
v 0.500000 -0.500000 -0.500000
v 0.500000 -0.500000 0.500000
vt -0.000011 0.666700
vt -0.000011 0.833367
vt 0.999989 0.833367
vt 0.999989 0.666700
vt 0.000001 0.666695
vt 1.000001 0.666695
vt 1.000001 0.500029
vt 0.000001 0.500029
vt 0.999985 1.000037
vt 0.999985 0.833371
vt -0.000015 0.833371
vt -0.000015 1.000037
vt 0.999993 0.333360
vt -0.000007 0.333360
vt -0.000007 0.500027
vt 0.999993 0.500027
vt 0.000008 0.166678
vt 0.000008 0.333345
vt 1.000008 0.333345
vt 1.000008 0.166678
vt -0.000003 0.000015
vt -0.000003 0.166682
vt 0.999996 0.166682
vt 0.999996 0.000015
vn 1.000000 0.000000 0.000000
vn 1.000000 0.000000 0.000000
vn 1.000000 0.000000 0.000000
vn 1.000000 0.000000 0.000000
vn 0.000000 -1.000000 0.000000
vn 0.000000 -1.000000 0.000000
vn 0.000000 -1.000000 0.000000
vn 0.000000 -1.000000 0.000000
vn -1.000000 0.000000 0.000000
vn -1.000000 0.000000 0.000000
vn -1.000000 0.000000 0.000000
vn -1.000000 0.000000 0.000000
vn 0.000000 1.000000 0.000000
vn 0.000000 1.000000 0.000000
vn 0.000000 1.000000 0.000000
vn 0.000000 1.000000 0.000000
vn 0.000000 0.000000 -1.000000
vn 0.000000 0.000000 -1.000000
vn 0.000000 0.000000 -1.000000
vn 0.000000 0.000000 -1.000000
vn 0.000000 0.000000 1.000000
vn 0.000000 0.000000 1.000000
vn 0.000000 0.000000 1.000000
vn 0.000000 0.000000 1.000000
s off
f 1/1/1 3/2/2 4/3/3 2/4/4
f 3/5/5 5/6/6 6/7/7 4/8/8
f 5/9/9 7/10/10 8/11/11 6/12/12
f 7/13/13 1/14/14 2/15/15 8/16/16
f 2/17/17 4/18/18 6/19/19 8/20/20
f 7/21/21 5/22/22 3/23/23 1/24/24
