/* XPM */
static char * image_name[]={
"32 32 17 2",
"  	c #C2C2C2",
". 	c #4F4F4F",
"X 	c #000000",
"o 	c #8B4513",
"O 	c #55562F",
"+ 	c #6B3939",
"@ 	c #96522D",
"# 	c #1F1F1F",
"$ 	c #242424",
"% 	c #B8860B",
"& 	c #1C1C1C",
"* 	c #121212",
"= 	c #171717",
"- 	c #1A1A1A",
"; 	c #141414",
": 	c #DAAA00",
"> 	c #212121",
"                            . X X .                             ",
"                        . X X o o X X .                         ",
"                    . X X o O + + o o X X .                     ",
"                  . X o @ O # O O $ o % o X .                   ",
"              . X X o O O + & O O & O o o o X X .               ",
"            . X o O O O + * + O O + = O o o o o X .             ",
"            X O O O O O = = O O O O = # o o o o % X             ",
"            X o O O O - ; & O O O O & = + o o o : X             ",
"            X % o O + > # O % % % % O > + o o % : X             ",
"            X @ % o + > # o % % % % o > + O % : : X             ",
"            X o @ % O - + o % % % % % $ > o : : : X             ",
"            X o o % o - O % @ @ % % % + $ % : : : X             ",
"            X o o @ o $ O @ o o @ % % O + % : : : X             ",
"            X o o o O O O o o o o @ % o O % : : : X             ",
"            X o o o O O X o o o o o o X O @ % % % X             ",
"            X o o o O X . X o o o o X . X o % % % X             ",
"            X o o o O X   . X @ @ X .   X o % % % X             ",
"            X o O o o X     . X X .     X % @ % % X             ",
"            X X X X X X                 X X X X X X             ",
"                                                                ",
"                                                                ",
"                                                                ",
"                                                                ",
"                                                                ",
"                                                                ",
"                                                                ",
"                                                                ",
"                                                                ",
"                                                                ",
"                                                                ",
"                                                                ",
"                                                                "
};
