/* XPM */
static char * image_name[]={
"32 32 33 2",
"  	c #C2C2C2",
". 	c #6B3939",
"X 	c #363636",
"o 	c #96522D",
"O 	c #DAAA00",
"+ 	c #333333",
"@ 	c #BFBFBF",
"# 	c #2E2E2E",
"$ 	c #262626",
"% 	c #2B2B2B",
"& 	c #292929",
"* 	c #999999",
"= 	c #BABABA",
"- 	c #242424",
"; 	c #8F8F8F",
": 	c #1F1F1F",
"> 	c #1C1C1C",
", 	c #BDBDBD",
"< 	c #171717",
"1 	c #CD853F",
"2 	c #55562F",
"3 	c #141414",
"4 	c #303030",
"5 	c #1A1A1A",
"6 	c #121212",
"7 	c #949494",
"8 	c #0F0F0F",
"9 	c #B8860B",
"0 	c #969696",
"q 	c #0D0D0D",
"w 	c #A8A8A8",
"e 	c #474747",
"r 	c #858585",
"                                                                ",
"                  . . . . .                                     ",
"                X o O O O o + @                                 ",
"              # o O O O O O o $ % # & # # # * =                 ",
"              - O O O O O O O O O O O O O O o ;                 ",
"              : O O O O O O O O O O O O O O O > ,               ",
"              < 1 1 1 2 $ 3 # 2 1 1 1 2 4 3 < 5 > : X           ",
"              6 1 1 1 & 2 2 2 # 3 3 3 # 2 2 2 2 2 7 7           ",
"            @ 8 9 9 2 > 2 2 2 2 2 2 2 2 2 2 2 2 2 3             ",
"            = 8 9 9 $ 2 2 2 2 2 2 2 2 2 2 2 2 2 0 7             ",
"            = 8 9 2 - 2 2 2 2 2 2 2 2 2 2 2 2 . X               ",
"            , q 9 : . 2 2 2 2 2 2 2 2 2 2 2 2 . w               ",
"            @ q . # 2 2 2 2 2 2 2 2 2 2 2 2 $ e                 ",
"              2 6 . 2 2 2 2 2 2 2 2 2 2 2 . 8 =                 ",
"                r q q q q q q q q q q q q q 2                   ",
"                                                                ",
"                                                                ",
"                                                                ",
"                                                                ",
"                                                                ",
"                                                                ",
"                                                                ",
"                                                                ",
"                                                                ",
"                                                                ",
"                                                                ",
"                                                                ",
"                                                                ",
"                                                                ",
"                                                                ",
"                                                                ",
"                                                                "
};
