/* XPM */
static char * image_name[]={
"32 32 15 2",
"  	c #C2C2C2",
". 	c #9C9C9C",
"X 	c #242424",
"o 	c #636363",
"O 	c #B8860B",
"+ 	c #CD853F",
"@ 	c #DAAA00",
"# 	c #6B6B6B",
"$ 	c #7D7D7D",
"% 	c #949494",
"& 	c #F2DE0D",
"* 	c #96522D",
"= 	c #262626",
"- 	c #6E6E6E",
"; 	c #787878",
"                . X X X X X X X X X X X o                       ",
"                X O O O O + @ @ @ @ @ @ X #                     ",
"                X O @ @ @ O @ @ @ @ O O @ X $                   ",
"                X O @ @ @ O @ @ O @ @ O O O X %                 ",
"                X O & & & & & & & & @ @ O O O X                 ",
"                X O & & & & & & & & O O * * O X                 ",
"                X O @ @ @ @ @ @ @ @ @ @ O O * X                 ",
"                X O @ @ @ @ @ @ @ @ @ @ @ @ * X                 ",
"                X O @ @ @ @ @ @ @ @ @ @ @ @ * X                 ",
"                X O @ @ @ @ @ @ @ @ @ @ @ @ * X                 ",
"                X O @ @ @ @ @ @ @ @ @ @ @ @ * X                 ",
"                X O @ @ @ @ @ @ @ @ @ @ @ @ * X                 ",
"                X O @ @ @ @ @ @ @ @ @ @ @ @ * X                 ",
"                X O @ @ @ @ @ @ @ @ @ @ @ @ * X                 ",
"                X O @ @ @ @ @ @ @ @ @ @ @ @ * X                 ",
"                X O @ @ @ @ @ @ @ @ @ @ @ @ * X                 ",
"                X @ @ @ @ @ @ @ @ @ @ @ @ @ * X                 ",
"                X @ @ @ @ @ @ @ @ @ @ @ @ @ * =                 ",
"                X @ O O O O O O O O O O O O O X                 ",
"                - X X X X X X X X X X X X X X ;                 ",
"                                                                ",
"                                                                ",
"                                                                ",
"                                                                ",
"                                                                ",
"                                                                ",
"                                                                ",
"                                                                ",
"                                                                ",
"                                                                ",
"                                                                ",
"                                                                "
};
