/* XPM */
static char * image_name[]={
"32 32 4 2",
"  	c #C2C2C2",
". 	c #55562F",
"X 	c #F2DE0D",
"o 	c #F5DEB3",
"                                                                ",
"                                                                ",
"                                                                ",
"                                                                ",
"                                                                ",
"                                                                ",
"                                    .     X                     ",
"                                    .     X                     ",
"                                    .     X                     ",
"                                    .     X                     ",
"                                    . .   X X                   ",
"                                    . .   X X                   ",
"                                    . .   X X                   ",
"                                    . .   X X                   ",
"                                  . . . X X X                   ",
"                                  . . . X X X                   ",
"                                  . . . X X X                   ",
"                                  . . . X X X                   ",
"                                  . . . X X X X                 ",
"                                  . . . X X X X                 ",
"                  .     X         . . . X X X X                 ",
"                  . .   X X     . . . X X X X X                 ",
"                . . . X X X   . . . X X X X X X X               ",
"                . . . X X X X . X X X X X X X X X               ",
"                . . . X X X X X X X X X X X X X X               ",
"            . . . X X X X X X X X X X X X X X X X X             ",
"        o . X X X X X X X X X X X X X X X X X X X X X           ",
"  o   o X X X X X X X X X X X X X X X X X X X X X X X           ",
"                                                                ",
"                                                                ",
"                                                                ",
"                                                                "
};
