/* XPM */
static char * image_name[]={
"32 32 19 2",
"  	c #C2C2C2",
". 	c #F5DEB3",
"X 	c #D1C166",
"o 	c #CDCD1D",
"O 	c #F2DE0D",
"+ 	c #EEDD82",
"@ 	c #F3E64B",
"# 	c #DAAA00",
"$ 	c #8B4513",
"% 	c #55562F",
"& 	c #171717",
"* 	c #0A0A0A",
"= 	c #000000",
"- 	c #EEE8AA",
"; 	c #6B3939",
": 	c #030303",
"> 	c #1C1C1C",
", 	c #121212",
"< 	c #080808",
"                                                                ",
"                      . X X o O O O O X X .                     ",
"                  + @ # $ % & * = * & % $ # @ +                 ",
"              - X # ; : = = = = = = = = = = ; # X -             ",
"            X # % = = = = = = = = = = = = = = = % # X           ",
"          X # > = = = = = = = = = = = = = = = = = > # X         ",
"        X # , = = = = = = = = = = = = = = = = = = = , # X       ",
"      - # > = = = = = = = = = = = = = = = = = = = = = > # -     ",
"      X % = = = = = = = = = = = = = = = = = = = = = = = % X     ",
"    + # = = = = = = = = = = = = O = = = = = = = = = = = = # +   ",
"    @ ; = = = = = = O = = = = = O = = = = = O = = = = = = ; @   ",
"  . # = = = = = = = = O = = = = O = = = = O = = = = = = = = # . ",
"  X $ = = = = = = = = = O = O O O O O = O = = = = = = = = = $ X ",
"  X % = = = = = = = = = = O = = O = = O = = = = = = = = = = ; X ",
"  o & = = = = = = = = = O = = = O = = = O = = = = = = = = = & o ",
"  O < = = = = = = = = = O = = = O = = = O = = = = = = = = = < O ",
"  O = = = = = = = O O O O O O O O O O O O O O O = = = = = = = O ",
"  O < = = = = = = = = = O = = = O = = = O = = = = = = = = = < O ",
"  o & = = = = = = = = = O = = = O = = = O = = = = = = = = = & o ",
"  X % = = = = = = = = = = O = = O = = O = = = = = = = = = = ; X ",
"  X $ = = = = = = = = = O = O O O O O = O = = = = = = = = = $ X ",
"  . # = = = = = = = = O = = = = O = = = = O = = = = = = = = # . ",
"    @ ; = = = = = = O = = = = = O = = = = = O = = = = = = ; @   ",
"    + # = = = = = = = = = = = = O = = = = = = = = = = = = # +   ",
"      X % = = = = = = = = = = = = = = = = = = = = = = = % X     ",
"      - # > = = = = = = = = = = = = = = = = = = = = = > # -     ",
"        X # , = = = = = = = = = = = = = = = = = = = , # X       ",
"          X # > = = = = = = = = = = = = = = = = = > # X         ",
"            X # % = = = = = = = = = = = = = = = % # X           ",
"              - X # ; : = = = = = = = = = = ; # X -             ",
"                  + @ # $ % & < = < & ; $ # @ +                 ",
"                      . X X o O O O O X X .                     "
};
