/* XPM */
static char * image_name[]={
"32 32 4 2",
"  	c #F2DE0D",
". 	c #000000",
"X 	c #242424",
"o 	c #2E2E2E",
"                                                                ",
"  . . . . . . . . . . . . . . . . . . . . . . . . . . . . . .   ",
"  . . . . . . . . . . . . . . . . . . . . . . . . . . . . . .   ",
"  . . . . . . . . . . . . . . . . . . . . . . . . . . . . . .   ",
"  . . . . . . . . . . . . . . . . . . . . . . . . . . . . . .   ",
"  . . . . . . . . . . . . . . . . . . . . . . . . . . . . . .   ",
"  . . . . . . . . . . . . . . . . . . . . . . . . . . . . . .   ",
"  . . . . . . . . . . . . . . . . . . . . . . . . . . . . . .   ",
"  . . . . . . . . . . . . . . . . . . . . . . . . . . . . . .   ",
"  . . . . . . . . . . . . . . .   . . . . . . . . . . . . . .   ",
"  . . . . . . . . .   . . . . .   . . . . .   . . . . . . . .   ",
"  . . . . . . . . . .   . . . .   . . . .   . . . . . . . . .   ",
"  . . . . . . . . . . .   .           .   . . . . . . . . . .   ",
"  . . . . . . . . . . . .   . .   . .   . . . . . . . . . . .   ",
"  . . . . . . . . . . .   . . .   . . .   . . . . . . . . . .   ",
"  . . . . . . . . . . .   . . .   . . .   . . . . . . . . . .   ",
"  X X X X o o o o                               o X X X X o o   ",
"  X X X X o o o o X X X   o o o   X X X   o o o o X X X X o o   ",
"  X X X X o o o o X X X   o o o   X X X   o o o o X X X X o o   ",
"  X X X X o o o o X X X X   o o   X X   X o o o o X X X X o o   ",
"  o o o o X X X X o o o   X           o   X X X X o o o o X X   ",
"  o o o o X X X X o o   o X X X   o o o o   X X X o o o o X X   ",
"  o o o o X X X X o   o o X X X   o o o o X   X X o o o o X X   ",
"  o o o o X X X X o o o o X X X   o o o o X X X X o o o o X X   ",
"  X X X X o o o o X X X X o o o o X X X X o o o o X X X X o o   ",
"  X X X X o o o o X X X X o o o o X X X X o o o o X X X X o o   ",
"  X X X X o o o o X X X X o o o o X X X X o o o o X X X X o o   ",
"  X X X X o o o o X X X X o o o o X X X X o o o o X X X X o o   ",
"  o o o o X X X X o o o o X X X X o o o o X X X X o o o o X X   ",
"  o o o o X X X X o o o o X X X X o o o o X X X X o o o o X X   ",
"  o o o o X X X X o o o o X X X X o o o o X X X X o o o o X X   ",
"                                                                "
};
