/* XPM */
static char * image_name[]={
"32 32 31 2",
"  	c #C2C2C2",
". 	c #BDBDBD",
"X 	c #A1A1A1",
"o 	c #B3B37E",
"O 	c #BDB76B",
"+ 	c #9E9E9E",
"@ 	c #BABABA",
"# 	c #B0B0B0",
"$ 	c #DAAA00",
"% 	c #B8860B",
"& 	c #8B4513",
"* 	c #55562F",
"= 	c #96522D",
"- 	c #A8A8A8",
"; 	c #DEB887",
": 	c #CD853F",
"> 	c #B3B3B3",
", 	c #E9967A",
"< 	c #F2DE0D",
"1 	c #9B7071",
"2 	c #ADADAD",
"3 	c #A3A3A3",
"4 	c #F4A460",
"5 	c #FFFF00",
"6 	c #F5DEB3",
"7 	c #91535D",
"8 	c #A6A6A6",
"9 	c #9C9C9C",
"0 	c #BC8F8F",
"q 	c #999999",
"w 	c #B5B5B5",
"                      . X o O O O O o + @                       ",
"                  # O $ % & & & & & * & = O -                   ",
"              ; : $ $ $ & & & & & & & * % % & = >               ",
"            , $ $ $ < % & & & & & & & * & % % & & o             ",
"          O $ $ $ $ $ $ $ $ $ % % % % % & = & & & & O           ",
"        O = % % % & $ < < < < < $ $ $ $ $ % * * * * * 1         ",
"      o = % % % % % < < < < < $ $ $ $ $ $ $ & * * * * * o       ",
"    ; = % % % $ % $ < < < < < < $ $ $ $ $ $ % * & * * * * 2     ",
"    % % % $ $ $ % $ < < < < < < < $ $ $ $ $ $ & & & * * * *     ",
"  2 & % % $ $ $ $ < < < < < < < < < $ $ $ $ $ & & & * * * * 3   ",
"  4 $ $ $ $ $ $ $ < 5 < < < < < < < < < $ $ $ % * * * * * * 1   ",
"6 $ < < < < < < < $ $ $ $ $ $ $ $ $ $ $ $ $ % % % % = & & & & . ",
"; < < < < < 5 5 < $ $ $ $ $ % % % % % % = & & % $ $ % % % & & 3 ",
", < < < < < < 5 $ $ $ $ $ $ $ $ $ % % % % % & % $ $ % % % & & o ",
"4 < < < < < < 5 $ $ $ $ $ $ $ $ $ % % % % % & = $ $ % % % & & o ",
"4 < < < < < < 5 $ $ $ $ $ $ $ $ $ $ % % % % & & $ $ % % % & & O ",
"4 < < < < < < < $ $ $ $ $ $ $ $ $ % % % % % = & $ $ % % % & & O ",
"4 < < < < < < < $ $ $ $ $ $ $ $ $ % % % % % & & $ $ % % % % & o ",
"o % $ < < < 5 5 $ $ $ $ $ $ $ $ % % % % = & & & $ $ $ % = & * o ",
"- % % % $ $ $ $ $ $ $ $ $ $ $ $ $ $ % % % % % % % % & & * * * + ",
". % % % $ $ $ $ < 5 < < < < < < < < < $ $ $ $ $ & * * * * * * @ ",
"  O % % % $ $ $ < < < < < < < < < < < $ $ $ $ $ & & & * * * 7   ",
"  8 = % % % $ % < < < < < < < < < < $ $ $ $ $ % & & & * * * 9   ",
"    % & % % % % $ < < < < < < < < $ $ $ $ $ $ % & & * * * *     ",
"    # % = = % % $ < < < < < < $ $ $ $ $ $ $ $ % * * * * * -     ",
"      4 $ % % = % < < < < < < $ $ $ $ $ $ $ $ & * * & & o       ",
"        4 $ $ $ $ $ $ $ $ $ $ $ $ $ $ $ % % % & & & & O         ",
"          O $ $ $ % & = = % % % = & & & & * & % % & O           ",
"            O % $ $ & & & & & & & & & & & * & % & O             ",
"              2 % $ % & & & & & & & & * * & % = -               ",
"                  0 % & & & & & & * * * * = q                   ",
"                      w o O O = = O O o w                       "
};
