/* XPM */
static char imagemagick_xpm[] = {
/* width height num_colors chars_per_pixel */
"    32    32      256            2",
/* colors */
"`` c #c1c1c1",
"`. c #ffffff",
"`# c #c0c0c0",
"`a c #bfbfbf",
"`b c #f8b737",
"`c c #f7c138",
"`d c #a47d25",
"`e c #8b7e6d",
"`f c #f8ae37",
"`g c #506580",
"`h c #1c3379",
"`i c #8a7c6b",
"`j c #545968",
"`k c #ed9e3d",
"`l c #3f4044",
"`m c #24419b",
"`n c #a69c94",
"`o c #b3afab",
"`p c #946321",
"`q c #bfc0c3",
"`r c #ee8e5b",
"`s c #a06e24",
"`t c #3c4252",
"`u c #918476",
"`v c #213f95",
"`w c #59626b",
"`x c #7d5846",
"`y c #332c32",
"`z c #5d5c5e",
"`A c #553713",
"`B c #ecebeb",
"`C c #847562",
"`D c #504642",
"`E c #9c9387",
"`F c #131e4f",
"`G c #956f21",
"`H c #1e2d71",
"`I c #8d6b20",
"`J c #a56d25",
"`K c #7a5b1c",
"`L c #7c6b56",
"`M c #2a2e4a",
"`N c #b38c29",
"`O c #223f9b",
"`P c #b9b8b6",
"`Q c #a2a1a1",
"`R c #43384b",
"`S c #272f79",
"`T c #243d90",
"`U c #94897c",
"`V c #664517",
"`W c #7f6f5b",
"`X c #b1ada8",
"`Y c #a56c52",
"`Z c #a06348",
"`0 c #bbbbb9",
"`1 c #887a6a",
"`2 c #df9a32",
"`3 c #15163c",
"`4 c #93877a",
"`5 c #929b61",
"`6 c #787f6b",
"`7 c #2c468d",
"`8 c #989998",
".` c #cb784f",
".. c #3d4c76",
".# c #fafafa",
".a c #dba35f",
".b c #484c57",
".c c #a8a6a3",
".d c #c37148",
".e c #b5b5b6",
".f c #152c67",
".g c #f2f2f3",
".h c #908e8c",
".i c #7e6b59",
".j c #878b8d",
".k c #875b1e",
".l c #3b558f",
".m c #676b74",
".n c #2d384e",
".o c #d48b58",
".p c #e1e2e3",
".q c #b4b4b4",
".r c #b7b8ba",
".s c #747576",
".t c #16348c",
".u c #4b6185",
".v c #828282",
".w c #c5c7ca",
".x c #656567",
".y c #786d66",
".z c #455b83",
".A c #c9c0ba",
".B c #9b9c9e",
".C c #7f8081",
".D c #7d7e80",
".E c #aeafb0",
".F c #abacad",
".G c #aaabac",
".H c #f2f6f9",
".I c #45484a",
".J c #fd9c65",
".K c #5d707c",
".L c #37518b",
".M c #959a9d",
".N c #3d4968",
".O c #cdbdb0",
".P c #d2d4d5",
".Q c #566c76",
".R c #9a8d82",
".S c #63767a",
".T c #6e6f6f",
".U c #b76a43",
".V c #929393",
".W c #677875",
".X c #25345a",
".Y c #b9b9b9",
".Z c #b7b4b1",
".0 c #49514a",
".1 c #677767",
".2 c #975737",
".3 c #1e2d5a",
".4 c #b9bab8",
".5 c #b07658",
".6 c #bdbdbd",
".7 c #8f796e",
".8 c #97a061",
"#` c #9f968c",
"#. c #17285b",
"## c #234094",
"#a c #bca396",
"#b c #d7d645",
"#c c #2242a2",
"#d c #8b8b8a",
"#e c #ca8434",
"#f c #716e5b",
"#g c #112764",
"#h c #f1c337",
"#i c #132f80",
"#j c #1f3781",
"#k c #203c92",
"#l c #8b6554",
"#m c #243b8c",
"#n c #a9a9a9",
"#o c #f7bc38",
"#p c #dca832",
"#q c #50525b",
"#r c #958f82",
"#s c #6a5c57",
"#t c #d0b798",
"#u c #4d3833",
"#v c #263582",
"#w c #86651f",
"#x c #131c5f",
"#y c #f8b137",
"#z c #353865",
"#A c #888787",
"#B c #1e2165",
"#C c #1d206d",
"#D c #74501a",
"#E c #9f9fa0",
"#F c #b8b6b3",
"#G c #fdfdfe",
"#H c #7e541c",
"#I c #f7a637",
"#J c #38384c",
"#K c #343457",
"#L c #b97d2a",
"#M c #2b2a59",
"#N c #1f1e5b",
"#O c #0e0d26",
"#P c #201c52",
"#Q c #1d1945",
"#R c #614e52",
"#S c #77797c",
"#T c #5d4527",
"#U c #eea040",
"#V c #f7a23b",
"#W c #c6a47a",
"#X c #9c6723",
"#Y c #bbbbbb",
"#Z c #81715d",
"#0 c #f3b336",
"#1 c #e8e6e1",
"#2 c #9f8a44",
"#3 c #8c7f6f",
"#4 c #e3b834",
"#5 c #cccbc6",
"#6 c #7c7856",
"#7 c #796752",
"#8 c #ebeb41",
"a` c #8e8172",
"a. c #ffff2d",
"a# c #a6ac5a",
"aa c #afb660",
"ab c #cdcecd",
"ac c #728276",
"ad c #697671",
"ae c #999795",
"af c #c4c5c5",
"ag c #988573",
"ah c #ced3d5",
"ai c #959798",
"aj c #a4adb2",
"ak c #e4eaee",
"al c #716359",
"am c #ccced0",
"an c #b3b0ae",
"ao c #634d3f",
"ap c #425164",
"aq c #80848c",
"ar c #6d645f",
"as c #db6e37",
"at c #b35c2e",
"au c #e67740",
"av c #1c2742",
"aw c #344c8b",
"ax c #7a7b7e",
"ay c #6f727a",
"az c #2a3860",
"aA c #9b6043",
"aB c #8a5a40",
"aC c #2a479b",
"aD c #a57258",
"aE c #96715e",
"aF c #c2957e",
"aG c #b48d79",
"aH c #1c3069",
"aI c #122355",
"aJ c #bdbbba",
"aK c #1a347e",
"aL c #142a6c",
"aM c #122b74",
"aN c #183489",
"aO c #c6b1a7",
"aP c #11309b",
"aQ c #b8aeaa",
"aR c #24378a",
"aS c #69392b",
"aT c #313d7c",
"aU c #7a4f47",
"aV c #7c5651",
"aW c #1a225b",
"aX c #8e8f98",
"aY c #535576",
"aZ c #1e2056",
"a0 c #c3c3c4",
"a1 c #262667",
"a2 c #403d6f",
"a3 c #87936b",
"a4 c #6d7d73",
"a5 c #b8b9bb",
"a6 c #223b94",
"a7 c #000000",
"a8 c #f7ad37",
/* pixels */
"``````````#``E````````````````.Z`1.Z````````````````````````````",
"```P`ea`#Z#H.k`E````````#F`i`4`A`J`1```````````````````#aX`D`y#n",
"```e`s#X`s#I`J`C`````````i`J`p#e`2#T`#`````````````#.m.n#6#K.c``",
"```U`p`f`f`f`2#D`W`P````#3`s`f`f`f.k`A`X```````a.s.0.S.m#2.x````",
"``aJ`A#0`b`b`b`b`s`e`````X`V`b`b`b`b`d`C`````Q#z`7.l`6#f`3.G````",
"`#`4`G`c`c`c#p#D`W`P`````i`d`c`c`c#w.i`X``#Sapaaa3aw`z`R.C``````",
"`0`1`d`G`I#h`d`C`````````e`d`I`N#4#T```a`j.t.ua.#b..#C`3.6``````",
".a#r`e`4`C`K#w`E`````U`o.4`e#r`A`d`i`0.b.z.l.z`5`6a2`R.T````````",
"#V`k`a.E```n`E.c`L#7`p`V`o````#F`ian`t`gac.W`g.u..#z`l`0````````",
".O`k#W`````````L#L#L#I#H`u````````.b`5.S`7`7.Lad`z#M.s``````````",
"`a.a`k.A```````U`p#y#y`2.k#`````.m..#8.LaP##`g`jal`D.Y``````````",
"```##U.a```````u`G#o#o#p`K`n```8.faC#b`ga#.8`6.i#R.D````````````",
"````#t`k#t````.i`N`N#h`K`u`#.F.0`g.l.K.W.8`5aY#l`R.6````````````",
"``````.o`k.h.h`n`L`W`I`V`o.B.n.1.1`w.Q.Q.K.uaT#M#Q`a````````````",
"``````ag#e`Z.o.y.q.r.R`o``#q.3aU`Z`Y`x#u`D`t#s#R#O`#````````````",
"`````#.y`Z.d.o`x`Fay``````#E`lao.5.J`xaB.U#l`z`D`y`#````````````",
"``````.q`x.2.J.`aW.N````````#f.jaG.``laj.5`r.O.j#O`a````````````",
"````````#Y#sat`raV.f#n`````QaD.7.U.d`u.R`rau#aae#u`a````````````",
"``````````#E`FaSaA.t`w````#d`B`BaO.A#aaE`ras.7`Y.2`a````````````",
"``````````.C`H#P`y`v`h.D``.v.p.Fah`.ak.v.`.d#A`Yar``````````````",
"``````````.q#B#N`F`v`maH.v`Q.V`Ba0ai.M`naFaQ.M`z`a``````````````",
"````````````#x#P#.`T`v`m`h`tab`.`..#.##G.H.w.s.h````````````````",
"````````````#x#Q`h#v##`v`m`haf`.`.`.`.`..g`q#S#A````````````````",
"````````````aI#j`Ha1#v`T`maM.G`.`.`.`.`..#.w.j.x````````````````",
"````````````.x`M`y`3#C`S#m#iaq`.`.`.`.`.`..P.B.I````````````````",
"`````````````#`q`q.e#J#N`SaN`j`.`.`.`.`.`..p.E.I.b.e````````````",
"````````````````````.Y`laZ#k.X#1`.`.`.`.`..g`q.T.fazax`a````````",
"```````````````````````#`l`T#g.c`.`.`.`.`.#G.P`8.X#c#m.N.e``````",
"````````````````````````#d`H.t`j`.`.`.`.`.`.`B.r`jaL#j`O#K``````",
"`````````````````````````#.3#c#.#5`.`.`.`.`..Ham.VavaKaR`M`a````",
"``````````````````````````.n`O#i`w`.`.`.`.`.`..p.r`w`h`S#J``````",
"```````````````````````````t#k`O#g.4`.`.`.`.`..g.w`8`M#B#q``````"
};
