/* XPM */
static char * image_name[]={
"32 32 148 2",
"  	c #C2C2C2",
". 	c #B6E2CE",
"X 	c #91D2DE",
"o 	c #5DF370",
"O 	c #B0B0B0",
"+ 	c #D8BFD8",
"@ 	c #00FFFF",
"# 	c #18FFB7",
"$ 	c #00FF00",
"% 	c #878787",
"& 	c #FF00FF",
"* 	c #D21EE6",
"= 	c #D15DE1",
"- 	c #2DFFBB",
"; 	c #32D838",
": 	c #8A8A8A",
"> 	c #72D5CD",
", 	c #57F3F1",
"< 	c #EEDD82",
"1 	c #BD52BD",
"2 	c #D7F46E",
"3 	c #9BEFF2",
"4 	c #B6E191",
"5 	c #B123D4",
"6 	c #8F0052",
"7 	c #9B7071",
"8 	c #EEE8AA",
"9 	c #FFFF00",
"0 	c #9BEE70",
"q 	c #3FFC41",
"w 	c #858585",
"e 	c #8E2323",
"r 	c #BC8F8F",
"t 	c #F5DEB3",
"y 	c #D7EB31",
"u 	c #F2DE0D",
"i 	c #708090",
"p 	c #9400D3",
"a 	c #A52A2A",
"s 	c #DEB887",
"d 	c #B6E24D",
"f 	c #6A6A8D",
"g 	c #19CCDF",
"h 	c #2FF1B1",
"j 	c #757575",
"k 	c #1FE5A6",
"l 	c #707070",
"z 	c #8C12A1",
"x 	c #6B3939",
"c 	c #A8A8A8",
"v 	c #D1C166",
"b 	c #CDCD1D",
"n 	c #15DA9E",
"m 	c #6B6B6B",
"M 	c #CED85A",
"N 	c #00D2D2",
"B 	c #0ED097",
"V 	c #00AF14",
"C 	c #666666",
"Z 	c #91535D",
"A 	c #91D25D",
"S 	c #09C792",
"D 	c #616161",
"F 	c #73234E",
"G 	c #575757",
"H 	c #ADFF2F",
"J 	c #00BFFF",
"K 	c #00A6A6",
"L 	c #5C5C5C",
"P 	c #7F09A2",
"I 	c #7A0CA5",
"U 	c #4F4F4F",
"Y 	c #BDB76B",
"T 	c #B8860B",
"R 	c #32BFC1",
"E 	c #595959",
"W 	c #7B0CA0",
"Q 	c #770E9C",
"! 	c #72129D",
"~ 	c #1A1A1A",
"^ 	c #00938F",
"/ 	c #7D0EA1",
"( 	c #790F9D",
") 	c #741299",
"_ 	c #6E1492",
"` 	c #64138B",
"' 	c #171717",
"] 	c #545454",
"[ 	c #20B2AA",
"{ 	c #761498",
"} 	c #701491",
"| 	c #671287",
" .	c #4E125D",
"..	c #1C1C1C",
"X.	c #B3B37E",
"o.	c #6B8E23",
"O.	c #32814B",
"+.	c #238E23",
"@.	c #4D4D4D",
"#.	c #750891",
"$.	c #660D81",
"%.	c #262626",
"&.	c #55562F",
"*.	c #00562D",
"=.	c #2F4F4F",
"-.	c #2F2F64",
";.	c #242424",
":.	c #A6A6A6",
">.	c #2E2E2E",
",.	c #141414",
"<.	c #292929",
"1.	c #721D91",
"2.	c #711D8F",
"3.	c #701D8E",
"4.	c #6F1D8E",
"5.	c #6D1D8C",
"6.	c #6F1D91",
"7.	c #0D0D0D",
"8.	c #0F0F0F",
"9.	c #2B2B2B",
"0.	c #384B66",
"q.	c #1F1F1F",
"w.	c #BFBFBF",
"e.	c #7D7D7D",
"r.	c #050505",
"t.	c #030303",
"y.	c #6C0682",
"u.	c #0A0A0A",
"i.	c #080808",
"p.	c #787878",
"a.	c #BDBDBD",
"s.	c #303030",
"d.	c #592F71",
"f.	c #212121",
"g.	c #B3B3B3",
"h.	c #778899",
"j.	c #7E88AB",
"k.	c #121212",
"l.	c #969696",
"z.	c #A3A3A3",
"x.	c #696969",
"c.	c #9E9E9E",
"v.	c #A1A1A1",
"b.	c #949494",
"n.	c #BFBFC0",
"m.	c #525252",
"M.	c #4A4A4A",
"N.	c #7A7A7A",
"                                                                ",
"                      . X o o o o o o O +                       ",
"                . X @ @ # $ $ $ $ $ $ % & * = +                 ",
"              X @ @ @ @ - ; ; ; ; $ $ : & * * * +               ",
"            > @ @ @ @ @ , o o ; ; ; $ : & * * * * =             ",
"          < @ @ @ @ @ , , o o o ; ; $ : & * * * * * 1           ",
"        2 2 @ @ @ @ , , 3 4 4 o o ; $ % & * * * * 5 6 7         ",
"      8 9 2 @ @ @ @ , , 3 4 0 o q ; $ w & * * * 5 5 6 e r       ",
"    t y u 2 @ @ @ @ , , > o o o ; ; $ i * * * 5 5 p 6 e a s     ",
"    < y u d @ @ @ @ @ , , o o ; ; ; $ f * * 5 5 p p 6 e e 1     ",
"    y y u d @ @ @ @ g @ h ; ; ; ; ; $ j * 5 5 p p p 6 e e e s   ",
"  8 y y u d @ g g g g g k ; ; ; ; ; $ l * 5 p z z z 6 e e x c   ",
"  v b y u d g g g g g g n ; ; ; ; ; $ m 5 p z z z z 6 e e x 7   ",
"  M b y b d N N N g g g B ; ; ; ; V $ C p z z z z z 6 x x x Z   ",
"  M b b b A N N N N N g S ; ; V V V V D p z z z z z F x x x G   ",
"  d H b b A N N N N N J K V V V V V V L z z z z P I F x x x U   ",
"  Y T T H A g N R R R R K V V V V V V E z z z W Q ! F x x ~ U   ",
"  Y T T T T R R R R R R ^ V V V V V V G z / ( ) _ ` x x x ' ]   ",
"  Y T T T T K K [ [ [ K ^ V V V V V V ] z { } |  . .x ~ ..' C   ",
"  X.T T T o.K K K K K K O.V V +.+.+.V @.#.$. . . . .%.~ ..~ 7   ",
"  O &.T T o.^ ^ ^ ^ ^ ^ O.+.+.*.*.*.*.=. . . . .-.-.;.~ ..~ :.  ",
"    >.~ ,.<.1.2.3.4.5.6. .7.8.8.8.8.7.9.0.=.=.=.=.=.q.7.8.%.w.  ",
"    e.r.t.,. . . . . .y. .r.u.u.u.u.i.%.=.=.=.=.=.=...u.7.p.    ",
"    a.=.s.-.d.d.d. .-. .%.u.7.7.7.7.i...-.-.-.-.-.-.' 7.f.a.    ",
"      g.h.h.h.j.j.-.7.k.k.,.,.,.,.k.u.u.u.u.u.u.u.u.7.u.l.      ",
"        z.h.h.h.h.>.8.,.,.k.,.,.,.k.u.u.u.u.u.u.u.7.7.x.        ",
"          c.i h.h.>.8.,.,.,.,.,.,.k.u.u.u.u.u.7.7.7.L           ",
"            v.i h.>.8.,.,.,.,.,.,.k.u.u.u.7.7.7.7.x.            ",
"              g.h.s.k.,.,.,.,.,.,.k.7.7.7.7.7.%.b.              ",
"                n.% 9.k.k.k.8.8.8.8.i.u.u.%.p.a.                ",
"                    w.z.f D m.M.M.U L N.v.w.                    ",
"                                                                "
};
