/* XPM */
static char * image_name[]={
"32 32 84 2",
"  	c #DAAA00",
". 	c #55562F",
"X 	c #4D4D4D",
"o 	c #595959",
"O 	c #616161",
"+ 	c #696969",
"@ 	c #6B6B6B",
"# 	c #636363",
"$ 	c #9B7071",
"% 	c #6B3939",
"& 	c #383838",
"* 	c #333333",
"= 	c #2E2E2E",
"- 	c #212121",
"; 	c #1C1C1C",
": 	c #1A1A1A",
"> 	c #171717",
", 	c #141414",
"< 	c #121212",
"1 	c #0F0F0F",
"2 	c #B8860B",
"3 	c #4A4A4A",
"4 	c #4F4F4F",
"5 	c #5C5C5C",
"6 	c #6A6A8D",
"7 	c #8F8F8F",
"8 	c #B3B37E",
"9 	c #575757",
"0 	c #454545",
"q 	c #3B3B3B",
"w 	c #242424",
"e 	c #1F1F1F",
"r 	c #0D0D0D",
"t 	c #737373",
"y 	c #ADADAD",
"u 	c #BDBDBD",
"i 	c #D6D6D6",
"p 	c #707070",
"a 	c #666666",
"s 	c #5E5E5E",
"d 	c #545454",
"f 	c #303030",
"g 	c #2B2B2B",
"h 	c #7A7A7A",
"j 	c #969696",
"k 	c #D1D1D1",
"l 	c #F7F7F7",
"z 	c #FFFFFF",
"x 	c #E5E5E5",
"c 	c #6E6E6E",
"v 	c #525252",
"b 	c #363636",
"n 	c #292929",
"m 	c #262626",
"M 	c #787878",
"N 	c #BABABA",
"B 	c #EBEBEB",
"V 	c #FAFAFA",
"C 	c #B3B3B3",
"Z 	c #96522D",
"A 	c #D4D4D4",
"S 	c #DCDCDC",
"D 	c #E3E3E3",
"F 	c #E8E8E8",
"G 	c #F0F0F0",
"H 	c #91535D",
"J 	c #CCCCCC",
"K 	c #E0E0E0",
"L 	c #CFCFCF",
"P 	c #949494",
"I 	c #BDB76B",
"U 	c #919191",
"Y 	c #B7644D",
"T 	c #3D3D3D",
"R 	c #404040",
"E 	c #0A0A0A",
"W 	c #030303",
"Q 	c #474747",
"! 	c #050505",
"~ 	c #000001",
"^ 	c #2F2F64",
"/ 	c #000000",
"( 	c #424242",
") 	c #080808",
"                                                                ",
"  . . . X o O + @ # $ o X . . . % & * = * . - ; : > , , < < 1 2 ",
"  . 3 4 5 + 6 7 7 6 8 + 5 9 4 3 0 . q * & . w e : , < 1 1 r r 2 ",
"  . 4 9 O t 7 y u i y p a s o d X 3 . . . . f g w - ; : > > , 2 ",
"  . d 5 + h j k l z x $ c a O 5 9 v X . . . % b f n m - e ; :   ",
"  . o s + M N B B B V C + c + # O 5 9 v . Z . . . % = n m w e   ",
"  . o O + t j A S D F G 7 @ @ a # s 5 9 o H . . . . % f g m -   ",
"  O @ $ $ 8 8 y J A K L P 8 8 8 $ $ $ H H I . . . . . . . . .   ",
"  O @ $ $ 8 8 8 C u U M 6 8 8 8 8 $ $ H H I Z . . . . . . . .   ",
"  . o O a c $ $ 8 s 4 a M M c + a # O 5 s H . . . . . . . % g   ",
"  . o O a @ $ $ $ d 0 v a t c + a # O s O Y . . . . . . . . %   ",
"  . 9 s # + p $ $ @ % q X # + a a # O 5 s Y . . . . . . . . %   ",
"  . . 5 O a @ c c $ O g b 4 O # O O s 5 s H . . . . . . . . %   ",
"  . . 9 s # a + + + I . w b 4 s s s s o . H . . . . . . . . %   ",
"  . . . 9 s O O O # I s e - q v o o . . . H . . . . . . . % g   ",
"  . . O a H $ $ $ $ I I . , w T v d a H H I . . . . . . . . .   ",
"  . . . # + H H H H I $ H w 1 m R X 5 Z Z Z . . . . . . . . .   ",
"  . . . . . v d d d I 5 o . E r n 0 3 . . Z . . . . . . % = m   ",
"  . . . . . . . . v $ o . 9 = W < f Q 3 . Z . . . . . . % = m   ",
"  % % . . . . . . . H . . . . 1 W > & Q X Z . . . . . % f n -   ",
"  = f % . . . . . . H . . . . % W ! - T 3 . . . . . % f g m e   ",
"  n g f % % . . . . Z . . . . . ; ~ E n ^ 0 . . % % * = n - :   ",
"  - - m = f b % % % Z . . . . . % W / 1 f ( . % * = n w e : < 2 ",
"  . . . . . . . . . Z . . . . . . . / W ; q ( . . . . . . % %   ",
"  . % . . . . . . . Z . . . . . . . < / ) n ^ . . . . . . % =   ",
"  , 1 , > ; - w n g . % = f f f f * = W ~ < * ( g : > < r ) ) 2 ",
"  > r < , : ; - w m . b g = = f f f f : / W e q R e , < r ) ) 2 ",
"  , E r 1 < > : ; - . = w m n n n m m m ! / ) n 0 g r E ) ) ) 2 ",
"  < ) E E r 1 < , : . n ; e e e e e e ; : W ~ , - 1 ) ) ! ! ! 2 ",
"  1 ! ! ! ) ) E r 1 . e , > > > > > > < - % W r ) ! ! ! ! ! ! 2 ",
"  r ! ! ! ! ! ! ! ) . > E 1 1 1 1 1 1 E > . ) ! ! ! W W W W W 2 ",
"  2 2 2 2 2 2 2 2 2   2 2 2 2 2 2 2 2 2 2   2 2 2 2 2 2 2 2 2   "
};
