/* XPM */
static char image_name[]={
"32 32 78 2",
"  	c #C4C4C4",
". 	c #C7C7C7",
"X 	c #B4BACC",
"o 	c #A4AECC",
"O 	c #ACB6CC",
"+ 	c #ACB2CD",
"@ 	c #B4BECC",
"# 	c #B3B37E",
"$ 	c #BDB76B",
"% 	c #F4A460",
"& 	c #B8860B",
"* 	c #8B4513",
"= 	c #6B3939",
"- 	c #DAAA00",
"; 	c #55562F",
": 	c #141414",
"> 	c #080808",
", 	c #1C1C1C",
"< 	c #96522D",
"1 	c #0D0D0D",
"2 	c #A4AEC4",
"3 	c #ACAEC4",
"4 	c #ACB6C4",
"5 	c #242424",
"6 	c #050505",
"7 	c #262626",
"8 	c #0F0F0F",
"9 	c #B4B6C4",
"0 	c #171717",
"q 	c #121212",
"w 	c #B4BAC4",
"e 	c #ACB2C4",
"r 	c #030303",
"t 	c #1F1F1F",
"y 	c #A4AAC4",
"u 	c #ABABAB",
"i 	c #9B7071",
"p 	c #CFCFCF",
"a 	c #B0E0E6",
"s 	c #E6E6FA",
"d 	c #8F8F8F",
"f 	c #9CA2C4",
"g 	c #D9D9D9",
"h 	c #A1A1A1",
"j 	c #778899",
"k 	c #999999",
"l 	c #D1D1D1",
"z 	c #DCDCDC",
"x 	c #6E6E6E",
"c 	c #FFFF00",
"v 	c #F2DE0D",
"b 	c #B0B0B0",
"n 	c #878787",
"m 	c #9C9C9C",
"M 	c #CCCCCC",
"N 	c #D6D6D6",
"B 	c #ACB6DC",
"V 	c #737373",
"C 	c #6A6A8D",
"Z 	c #DBDBDB",
"A 	c #858585",
"S 	c #E3E3E3",
"D 	c #8A8A8A",
"F 	c #C9C9C9",
"G 	c #D4D4D4",
"H 	c #91535D",
"J 	c #384B66",
"K 	c #A6A6A6",
"L 	c #666666",
"P 	c #B3B3B3",
"I 	c #E5E5E5",
"U 	c #7A7A7A",
"Y 	c #949494",
"T 	c #BDBDBD",
"R 	c #8C8C8C",
"E 	c #BABABA",
"W 	c #919191",
"Q 	c #BCBEC4",
"                                                                ",
"                                                                ",
"                                                                ",
"                                                                ",
"                                                                ",
". X o O + o O O o + O + o + O + + O + o + O + o O O o + O o X   ",
"@ # $ % $ $ % % $ $ % $ $ % % $ $ % % $ $ % $ $ % % $ $ % $ # X ",
"+ & * = & - = = - & = * - ; = - - = ; - * = & - = = - & = * & + ",
"X $ : > ; & > > & ; > , & > > < < > > & , > ; & > > & ; > 1 $ X ",
"+ $ * ; & - ; ; - & ; < - ; ; & & ; ; - < ; & - ; ; - & ; * & O ",
"2 & - & - - & & - - & - - - & - - & - - - & - - & & - - & - & 3 ",
"4 $ 5 6 ; & > > & ; 6 7 - 8 6 < < 6 8 - 7 6 ; & > > & ; 6 , & 9 ",
"4 & 0 6 ; & 6 6 & ; 6 , & 6 6 < < 6 6 & , 6 ; & 6 6 & ; 6 q & w ",
"2 & - & - - & & - - & & - & & - - & & - & & - - & & - - & - & 2 ",
"2 & < ; & - ; ; - & ; < - < ; - - ; < - < ; & - ; ; - & ; < & 3 ",
"e & 1 r = & r r & ; r 8 & r r * * r r & 8 r = & r r & = r r & 9 ",
"3 & = q ; & q q & ; q = & t q < < q t & = q ; & q q & ; q = & e ",
"y & - & - - & & - - & - - & & - - & & - - & - - & & - - & - & y ",
"2 & = 8 ; & 8 8 & ; 8 = & 0 8 < < 8 0 & = 8 ; & 8 8 & ; 8 = & e ",
"3 & > r = < r r < = r > & r r ; ; r r & > r = < r r < = r r < e ",
"u < ; = * - ; = & * = ; - = = & & ; = & ; ; < - ; ; - < ; ; * y ",
"w i $ $ $ ; < $ $ $ $ $ $ $ $ ; ; & % $ $ * ; ; ; ; ; ; < $ # w ",
". p a s d * * f g a a a a s h * & ; a s j * - - & & - - ; h s . ",
"      g # - - k l         z x - c & d s k < & & v - < & < b p   ",
"      g n - & m p       M 2 & - * - x N M 4 B V - & C + w M     ",
"      g n - & m p       Z A - - ; - < y M M S D - & h Z F       ",
"      g n - & m p       G H - < J & - A Z   g n - & m p         ",
"      g n - & h Z M M p K < v - & - - L l   g n - & m p         ",
"      g n - & C O K P I U - - < & < - & K p g n - & m p         ",
"      g # - - < & & < m $ - ; h O C & - i N g # - - Y l         ",
"      g D * - - - - * L < * # I g p < * ; p Z D * * h p         ",
"        T n # # # # R E W # Q F   p K U h     T # R             "
};
