/* XPM */
static char render_domeAFL_FOV_Stereo_xpm[] = {
/* width height num_colors chars_per_pixel */
"    32    32      256            2",
/* colors */
"`` c #040204",
"`. c #047e04",
"`# c #8c0204",
"`a c #043e04",
"`b c #8c7a14",
"`c c #443e0c",
"`d c #445e0c",
"`e c #440204",
"`f c #bca624",
"`g c #042a04",
"`h c #643e14",
"`i c #0cb60c",
"`j c #9c8624",
"`k c #645e14",
"`l c #4c4e14",
"`m c #645e4c",
"`n c #3c8a0c",
"`o c #84721c",
"`p c #242204",
"`q c #2c0204",
"`r c #24320c",
"`s c #049e0c",
"`t c #cc0204",
"`u c #7c7a64",
"`v c #045e04",
"`w c #a4a6a4",
"`x c #9c9a94",
"`y c #041204",
"`z c #646e1c",
"`A c #4c4e4c",
"`B c #444244",
"`C c #a49624",
"`D c #848a84",
"`E c #34860c",
"`F c #9c220c",
"`G c #44460c",
"`H c #646e64",
"`I c #2c2a04",
"`J c #04da14",
"`K c #746214",
"`L c #24621c",
"`M c #048e04",
"`N c #34320c",
"`O c #ac0204",
"`P c #ccba2c",
"`Q c #04ca14",
"`R c #04aa0c",
"`S c #141204",
"`T c #4c5a4c",
"`U c #343a0c",
"`V c #241204",
"`W c #ec0204",
"`X c #847a7c",
"`Y c #b4b6b4",
"`Z c #b49a24",
"`0 c #54460c",
"`1 c #0c0a04",
"`2 c #24420c",
"`3 c #8c9224",
"`4 c #44360c",
"`5 c #64520c",
"`6 c #5c5614",
"`7 c #2c2204",
"`8 c #747264",
".` c #343224",
".. c #5c563c",
".# c #8c821c",
".a c #ccb62c",
".b c #6c6614",
".c c #846664",
".d c #046a04",
".e c #1c1a04",
".f c #7c5214",
".g c #1c821c",
".h c #941614",
".i c #5c5e54",
".j c #640204",
".k c #bcae2c",
".l c #9c8a24",
".m c #5c4e14",
".n c #64665c",
".o c #4c9a14",
".p c #04a60c",
".q c #746e1c",
".r c #94928c",
".s c #4c460c",
".t c #342a0c",
".u c #746a1c",
".v c #1c6e0c",
".w c #149614",
".x c #14c214",
".y c #241a04",
".z c #0c0204",
".A c #0c8a0c",
".B c #9c0204",
".C c #4c3e0c",
".D c #043604",
".E c #14be14",
".F c #6c622c",
".G c #5c7a5c",
".H c #9c721c",
".I c #dc0204",
".J c #748274",
".K c #14620c",
".L c #acaeac",
".M c #a4a29c",
".N c #ac9e24",
".O c #049604",
".P c #3c320c",
".Q c #bc0204",
".R c #0cb20c",
".S c #1c1604",
".T c #fc0204",
".U c #848274",
".V c #bcbebc",
".W c #b4a224",
".X c #245604",
".Y c #645a14",
".Z c #2c260b",
".0 c #7c7264",
".1 c #5c5a5c",
".2 c #4c6e4c",
".3 c #6c6654",
".4 c #7c761c",
".5 c #341a04",
".6 c #0c7e0c",
".7 c #044a04",
".8 c #8c7e1c",
"#` c #c4aa2c",
"#. c #bc2a04",
"## c #44824c",
"#a c #14ee14",
"#b c #4c160c",
"#c c #dcca34",
"#d c #a4320c",
"#e c #2c562c",
"#f c #344a14",
"#g c #847274",
"#h c #6c7e6c",
"#i c #041a04",
"#j c #2c862c",
"#k c #5c6e5c",
"#l c #144604",
"#m c #740204",
"#n c #4c4a3c",
"#o c #647664",
"#p c #2c0a04",
"#q c #2c5e2c",
"#r c #7c7a77",
"#s c #047204",
"#t c #1c1a1c",
"#u c #14ca14",
"#v c #14b614",
"#w c #acaaac",
"#x c #545244",
"#y c #4c463c",
"#z c #8c8a8c",
"#A c #545654",
"#B c #bcbabc",
"#C c #3c321c",
"#D c #94821c",
"#E c #b4b2b4",
"#F c #c4c2c4",
"#G c #a48224",
"#H c #6c5e14",
"#I c #8c761c",
"#J c #0c9e0c",
"#K c #ac9624",
"#L c #0caa0c",
"#M c #f40204",
"#N c #140e04",
"#O c #747674",
"#P c #a48a24",
"#Q c #7c6e1c",
"#R c #246a0c",
"#S c #7c7674",
"#T c #6c6e6c",
"#U c #0c8e0c",
"#V c #0c960c",
"#W c #940204",
"#X c #544e14",
"#Y c #340204",
"#Z c #d40204",
"#0 c #b40204",
"#1 c #d4ba2c",
"#2 c #0cca14",
"#3 c #3c3a0c",
"#4 c #8c7a7c",
"#5 c #6c0204",
"#6 c #c4ae2c",
"#7 c #0ca60c",
"#8 c #7c6a1c",
"a` c #a40204",
"a. c #e40204",
"a# c #c40204",
"aa c #848284",
"ab c #bca224",
"ac c #6c5a14",
"ad c #bcaa2c",
"ae c #24260c",
"af c #444a14",
"ag c #2c2e0c",
"ah c #746619",
"ai c #141607",
"aj c #544a14",
"ak c #645614",
"al c #5c5a3c",
"am c #5c5213",
"an c #949694",
"ao c #4c4a14",
"ap c #4c420e",
"aq c #146608",
"ar c #6c6a5c",
"as c #8c8e84",
"at c #545a4c",
"au c #948624",
"av c #040604",
"aw c #042e04",
"ax c #0cba0c",
"ay c #84761c",
"az c #34360c",
"aA c #b49e24",
"aB c #0c0e04",
"aC c #443a0c",
"aD c #5c5a14",
"aE c #9c8e24",
"aF c #342e0c",
"aG c #14c614",
"aH c #241e04",
"aI c #0c0604",
"aJ c #043a04",
"aK c #3c360c",
"aL c #341e04",
"aM c #0c820c",
"aN c #041e04",
"aO c #3c361c",
"aP c #6c6214",
"aQ c #0ca20c",
"aR c #ac9a24",
"aS c #0cae0c",
"aT c #f40604",
"aU c #7c721c",
"aV c #246e0c",
"aW c #8c7a1c",
"aX c #24220c",
"aY c #9c9a9c",
"aZ c #2c2a0c",
"a0 c #544614",
"a1 c #2c220c",
"a2 c #5c5644",
"a3 c #6c661c",
"a4 c #7c521c",
"a5 c #5c5e5c",
"a6 c #646664",
"a7 c #4c4614",
"a8 c #a4a2a4",
/* pixels */
"#F#F.V#F#F.V#F#F.V#F#F.V#F#F.V#F#F.V#F#F.V#F#F.V#F#F.V#F#F.V#F#F",
".V#F#F.V#F#F.V#F#F.V#F#F.V#F#F.V#F#F.V#F#F.V#F#F.V#F#F.V#F#F.V#F",
"#F.V#F#F.V#F#F.V#F#F.V#FaY#Oaral#Aar#raY.V#F.V#F#F.V#F#F.V#F#F.V",
"#F.V#F.V#F.V#F#F.Van`m.`ah.8amam`5am`baPaO.ian#F.V#F.V#F#F.V#F#F",
"#F.V#F#F#F#F.V`w#n.uajaH`6akam.m.sam.Yaj.ZaCah#y`w#F#F.V#F#F.V#F",
"#F#F.V#F#F#F#OaF`I`o`KakaH```p``.t```paIam#I#H.P`I#O#F.V#F.V#F.V",
".V#F#F#F.V.naP`caH``#HaW.P.4amaC#QaCaP.uap.Y`p``.maPa5#F#F#F#F#F",
"#F.V#F#F.iaB#H#K.e.Z.e``.Zacai.Zah.Zavam````.taC.Y#8.Z#A.V#F.V#F",
"#F.V#F.JaC.ZaH`7.l.l#3aeah.Z````aj`1``.Payaz#XaR#X``aKap#r#F#F.V",
"#F.V`Y`7#D.Z``aB.Y`Iaoak.N.uah.u`ZayaU#XaR.8.Z``.m.S``.l.e`Y.V#F",
"#F#F`B`SaW#H.e`0.S````aKacaB.y`paW.s#N``aH#Q``````aP#HakaF`A#F#F",
".V.LaFaj```N#KaRaZav```K.S``````#HaF``````ak`caFamaA.l```Iaj.L#F",
"#F#Aay`c````#Haj#H.b`k.Wam.saCaK#P#Q.sam`6.#.Wam.C``am.S```o#A#F",
"#F#t#H#8``aK`K```````k`C.m.u#Q#8`f#K.u`6aCae#I```````Sam.s.m.`.V",
"#waj.eaF`K`fai``````aWac````````aP.m````````aWaC````.P#1ap``aC`x",
".U#H.S``aj#6`5`kaF``#K`S````````#8`K````````am.l#X`oakamaC``.m`u",
"#TaP.C```K.Z`Sama3.u#c#Q.YaCaF`I#Dau.P.Y.qay.4.kapai````ajaKama5",
"`8aFaj#X.Y````````apad#XaPaPac.YaAab.Yah`6#3aI#I`````````jaPaI.i",
"`uaF``#Q#`.Z``````.u`o``````````#H`o```````````jaK``aK`6.l.Sav.3",
"#rak```p#I`6#8`6aHaW.m```````````z`3``````````.f#G`h.f`q`V.Y`7.n",
"#z.s`7am`4``aHam#Q`P.8.s`c`r#i``.5`Fa``O#m#b`d.K.o.v`a.D`r.H#N#O",
"#E``.eabap`````````C.u.s`6aP#d#0#Z`t`ta.#.`naS.p.O.p.R`i`i#l.z.M",
"#F#x```6.laj`7````#K.y`````t.T.T.T`Wa#a#`E`J#L`iaS#7#7.OaQ`sat.V",
"#F`Yai`KaFaKaP#Hak.W`S`````O`O``#m.T.I.j.v`Q#7#V#vaxaSaQ.A`s.2#F",
"#F#FaYaUa0`````pah.a`kam`l#f`U`q#0.T`#`qaq#2`i`gaNaQ#v.R#U`M#e#F",
".V#F#F#w#x`N.S````.laZ`IaCaf`2#M.T.I#W.Baq`Q.E`v``.7aG.R#V.6#e.V",
"#F.V#F.V#Fas..aF`p#1.e```````q#5#W.T.T`O.K`QaS`.```gax#v#V#s`T.V",
"#F.V#F#F#F#F#F.M`8.F`0`G.ya#.T`e``.I.T`O.X`Q.R.6`y`gaxax#LaJ.L#F",
"#F#F.V#F.V.V#F.V#F#Fa8.r.0`W.T#0`##M.T#m`L`QaS.A.daM`i#u.A.J#F#F",
".V#F#F#F#F.V#F#F.V#F.V#F.V`X`t.T.T.T.h`w###a.E.xax.x#2.x.n#F#F.V",
"#F.V#F.V#F#F.V#F.V#F#F.V#F#F#w#4.c#g#B#F`H#jaM#UaQ#7.w.2#F#F.V#F",
"#F.V#F#F#F#F#F#F#F.V#F#F.V#F.V#F#F#F#F#F.Lan`D.J.G.G.J#F#F.V#F#F"
};
