/* XPM */
static char * image_name[]={
"32 32 9 2",
"  	c #C2C2C2",
". 	c #8B4513",
"X 	c #B8860B",
"o 	c #DAAA00",
"O 	c #6B8E23",
"+ 	c #ADFF2F",
"@ 	c #CDCD1D",
"# 	c #238E23",
"$ 	c #7CFC00",
"                                                                ",
"                                                                ",
"      . X X X X X X X X X X .     . X X X X X X X X X X .       ",
"      X o o o o o o o o o o X     X o o o o o o o o o o X       ",
"      X o o o o o o o o o o X     X o o o o o o o o o o X       ",
"      . X X X X X X X X X X .     . X X X X X X X X X X .       ",
"                                                                ",
"                                                                ",
"      O X X X X X X X X X X O     O X X X X X X X X X X O       ",
"      X + @ @ @ @ @ @ @ @ + X     X + @ @ @ @ @ @ @ @ + X       ",
"      X + @ @ @ @ @ @ @ @ + X     X + @ @ @ @ @ @ @ @ + X       ",
"      O X X X X X X X X X X O     O X X X X X X X X X X O       ",
"                                                                ",
"                                                                ",
"      # O O O O O O O O O O #     # O O O O O O O O O O #       ",
"      O $ $ $ $ $ $ $ $ $ $ O     O $ $ $ $ $ $ $ $ $ $ O       ",
"      O $ $ $ $ $ $ $ $ $ $ O     O $ $ $ $ $ $ $ $ $ $ O       ",
"      # O O O O O O O O O O #     # O O O O O O O O O O #       ",
"                                                                ",
"                                                                ",
"                                                                ",
"                                                                ",
"                                                                ",
"                                                                ",
"                                                                ",
"                                                                ",
"                                                                ",
"                                                                ",
"                                                                ",
"                                                                ",
"                                                                ",
"                                                                "
};
